<?xml version="1.0" encoding="utf-8"?>
<!-- Generator: Adobe Illustrator 19.0.0, SVG Export Plug-In . SVG Version: 6.00 Build 0)  -->
<svg version="1.1" id="Layer_1" xmlns="http://www.w3.org/2000/svg" xmlns:xlink="http://www.w3.org/1999/xlink" x="0px" y="0px"
	 viewBox="1694 -486.6 3624 1865" style="enable-background:new 1694 -486.6 3624 1865;" xml:space="preserve">
<style type="text/css">
	.st0{fill:#F7F7F7;}
	.st1{fill:#506345;}
	.st2{fill:#3A4735;}
	.st3{fill:#2B2B2B;}
	.st4{fill:#38BFEF;}
	.st5{fill:#44B649;}
	.st6{fill:#3DB5E8;}
	.st7{fill:#F8E354;}
	.st8{fill:#EC2027;}
	.st9{fill:#B5A8D2;}
	.st10{fill:#1FB5EA;}
	.st11{fill:none;}
</style>
<rect x="1694.9" y="-486.6" class="st0" width="3623.7" height="1865"/>
<g>
	<g id="XMLID_11813_">
		<path id="XMLID_11817_" class="st1" d="M4373.3,518.1c9.6-0.2,18.9,3.5,25.9,10c6.4,6,10.7,14,13,22.4c1.3,4.8,2,10,1.1,14.9
			c-1.2,6.7-5.3,12.5-9.7,17.8c-14.8,17.9-34.1,32.1-55.8,40.5c-13.8,5.3-29,8.2-43.5,5.3c-22.1-4.4-40.8-23.6-43.5-46
			c-2-16.3,3.9-32.5,11.2-47.2c4.5-9,9.8-18,17.6-24.4c8-6.5,18-9.8,27.4-13.9c7.5-3.2,14.9-7.1,23-7.8c16.5-1.5,31.9,11.7,33.7,28"
			/>
		<path id="XMLID_11814_" class="st2" d="M4336.6,631.1c-11.8,3-22.9,3.5-33,1.5c-24-4.8-43.5-25.4-46.4-49
			c-2.3-18.7,5.5-37,11.6-49.2c4.3-8.7,9.9-18.6,18.6-25.6c6.8-5.5,14.7-8.8,22.5-11.9c1.9-0.8,3.9-1.6,5.8-2.4
			c1.2-0.5,2.3-1,3.5-1.5c6.5-2.9,13.2-5.9,20.6-6.5c17.4-1.6,33.8,11.2,37.1,28.3c9.2,0.7,18,4.6,24.8,10.9
			c6.5,6.1,11.3,14.5,14,24.1c1.7,6.2,2.1,11.6,1.1,16.5c-1.4,7.7-6.1,14.2-10.4,19.4c-15.4,18.7-35.2,33.1-57.2,41.5
			C4344.8,628.7,4340.7,630,4336.6,631.1z M4335.3,494.3c-4.4,1.1-8.7,3.1-13.2,5.1c-1.2,0.5-2.4,1.1-3.6,1.6c-2,0.9-4,1.7-6,2.5
			c-7.6,3.1-14.7,6-20.7,10.9c-7.6,6.1-12.7,15.2-16.7,23.2c-5.6,11.3-12.9,28.3-10.9,45.1c2.5,20.7,19.6,38.7,40.7,42.9
			c12.3,2.4,26.3,0.7,41.5-5.2c20.9-8,39.6-21.6,54.3-39.4c3.8-4.6,7.8-10.1,8.9-16.2c0.7-3.8,0.4-8.2-1-13.3
			c-2.3-8.4-6.4-15.5-12-20.8c-6.3-5.9-14.8-9.2-23.4-9.1l-0.1-3.8l-3.2,0.3c-1.6-14.5-15.5-26.1-29.8-24.8
			C4338.6,493.6,4336.9,493.9,4335.3,494.3z"/>
	</g>
	<path id="XMLID_11812_" class="st1" d="M4500.3,623l-6.9,1.7c-5-20.5-12-44.1-25.8-63.7c-14.2-20.1-34.8-33.2-55.1-34.9
		c-4.4-0.4-9-0.3-13.5-0.2c-9.5,0.2-19.4,0.4-28.5-3.7l2.9-6.5c7.7,3.4,16.3,3.2,25.5,3c4.7-0.1,9.5-0.2,14.3,0.2
		c22.7,2,44.7,15.8,60.3,37.9C4487.9,577.4,4495.2,601.8,4500.3,623z"/>
	<path id="XMLID_11811_" class="st1" d="M4501.7,562.8c5.8,20.8,10.3,42.7,5,62.4c2.5-0.1,5-0.2,7.4-0.2c5-20.8,0.4-43-5.5-64.2
		c-8.9-31.7-18.5-56.4-30.4-77.6c-5.8-10.5-14.2-23.4-26.9-30.8c-4.5-2.6-9.5-4.5-14.2-6.3c-8-3-15.6-5.9-20.5-11.9l-5.6,4.5
		c6.1,7.5,14.9,10.9,23.5,14.1c4.7,1.8,9.2,3.4,13.2,5.8c11.1,6.4,18.5,17.8,24.2,28.1C4483.5,507.5,4493,531.6,4501.7,562.8z"/>
	<path id="XMLID_11810_" class="st1" d="M4706,362.9l-42.9,29.9c-9.8,6.8-19.9,13.9-29.2,21.9c-11.7,10-22,21.6-31.5,32.6
		c-15.2,17.6-32.6,38.9-46.7,63.3c-7.2,12.4-13.3,25.4-18.8,37.5c-11,24.1-21.8,49.9-23.1,77c2.4,0,4.8,0.1,7.1,0.2
		c1.3-25.9,11.8-50.8,22.5-74.3c5.5-12,11.5-24.7,18.5-36.9c13.8-23.9,30.9-44.9,45.9-62.2c9.3-10.8,19.4-22.1,30.7-31.8
		c9-7.8,19-14.7,28.6-21.4l42.9-29.9L4706,362.9z"/>
	<path id="XMLID_11809_" class="st1" d="M4701.7,538.3c-5.8-0.2-11.7-0.4-17.6-0.3c-21.9,0.5-45,5.4-72.8,15.6
		c-15,5.5-34.1,13.5-50.1,26.5c-15.8,12.9-26.1,29.2-29.4,46.2c2.5,0.5,4.8,1.4,6,3.1c0.1,0.1,0.1,0.2,0.1,0.2l0.4,0.1
		c2.5-16.1,12.2-31.7,27.4-44.1c15.1-12.3,33.6-20,48-25.3c27-9.9,49.4-14.7,70.5-15.2c5.7-0.1,11.6,0.1,17.2,0.3
		c9.8,0.4,20,0.7,30.1-0.6l-0.9-7.1C4721.2,539,4711.3,538.7,4701.7,538.3z"/>
	<g id="XMLID_11804_">
		<path id="XMLID_11808_" class="st1" d="M4411.4,440.6c-2.6,3.2-3.6,8.1-6.1,11.7c-3.3,4.9-9.5,7.4-15.4,7.7
			c-13.5,0.8-29.9-4-35.2-17.6c-2.9-7.5-2.4-16-0.3-23.7c2.1-7.7,5.9-14.9,9.6-22c2.4-4.6,4.4-10.9,7.7-14.8c4-4.9,11.2-3.2,16.7-3
			c7.4,0.3,14.7,0.4,22.1,0.7c10.6,0.3,21.8,0.8,30.8,6.5c5.3,3.4,9.4,8.3,12.4,13.8c4.9,9,6.7,20.9,0.8,29.3
			c-6.2,8.7-18.5,10.7-29.1,9c-3.7-0.6-7.8-1.5-11.1,0.2C4413.1,438.9,4412.2,439.7,4411.4,440.6z"/>
		<path id="XMLID_11805_" class="st2" d="M4395.4,462.8c-1.7,0.4-3.5,0.7-5.3,0.8c-14,0.8-32.6-3.9-38.7-19.9
			c-2.9-7.5-3-16.5-0.4-25.9c2.3-8.1,6.2-15.6,9.9-22.7c0.8-1.4,1.5-3.1,2.2-4.8c1.7-3.8,3.4-7.7,5.9-10.7
			c4.5-5.5,11.6-4.9,16.7-4.5c1,0.1,1.9,0.2,2.8,0.2c5,0.2,10,0.3,15,0.5l7.1,0.2c10,0.3,22.6,0.7,32.6,7.1
			c5.4,3.4,10.1,8.6,13.6,15.1c5,9.2,7.8,22.8,0.5,33.1c-7.4,10.4-21.7,12.2-32.6,10.4l-1.1-0.2c-3-0.5-5.8-1-7.8,0
			c-0.6,0.3-1.2,0.8-1.7,1.4l0,0c-1.1,1.4-1.9,3.3-2.8,5.4c-0.9,2-1.8,4.1-3.1,6.1C4405.5,458.4,4400.9,461.4,4395.4,462.8z
			 M4377.5,382.4c-1.2,0.3-2.2,0.9-3,1.8c-1.9,2.3-3.4,5.7-4.9,9c-0.8,1.8-1.6,3.6-2.4,5.2c-3.6,6.8-7.3,13.9-9.4,21.3
			c-1.5,5.6-2.8,13.8,0.2,21.5c4.5,11.6,19.1,16.1,31.6,15.3c5.5-0.3,10.3-2.6,12.6-6.2c0.9-1.4,1.7-3.1,2.4-4.9
			c1-2.4,2.1-5,3.9-7.1l0,0c1.2-1.4,2.5-2.5,4-3.3c4.1-2.1,8.4-1.3,12.2-0.7l1.1,0.2c8.8,1.4,20.1,0.2,25.6-7.5
			c5.4-7.6,2.8-18.5-1-25.5c-3-5.4-6.8-9.8-11.2-12.5c-8.4-5.3-19.3-5.7-29-5.9l-7.1-0.2c-5-0.1-10-0.3-15.1-0.5
			c-1,0-2.1-0.1-3.1-0.2C4382,382,4379.5,381.9,4377.5,382.4z"/>
	</g>
	<g id="XMLID_11799_">
		<path id="XMLID_11803_" class="st1" d="M4709,367.8c-0.9-1.4-2-2.8-3.2-4.6c-2.8-4.1-4.2-9.1-6.1-13.7c-2-4.8-3.5-9.9-3-15
			c0.7-7.6,6-14.1,12.6-18c6.6-3.8,14.3-5.2,21.8-5.8c27.2-2,55.5,6.7,75.1,25.6c9.1,8.8,16.2,19.5,20.8,31.3
			c2.9,7.5,4.8,15.7,3.7,23.7c-0.9,7.3-4.3,14.2-8.9,19.9c-9.4,11.5-23.8,17.9-38.4,20.6c-14.6,2.6-29.6,1.8-44.4,0.9
			c-5.4-0.3-10.9-0.6-16.3-0.9c-6.9-0.4-14.1-0.9-19.8-4.6c-11-7.1-12.2-24-5-34.9c3-4.7,7.7-8.4,10.7-13.3
			C4711.7,373.8,4711.1,371.1,4709,367.8z"/>
		<path id="XMLID_11800_" class="st2" d="M4790,434.1c-2,0.5-4,0.9-6,1.3c-15.1,2.7-30.4,1.8-45.2,1l-16.3-0.9
			c-6.6-0.4-14.8-0.9-21.6-5.2c-5.3-3.4-9-9.1-10.5-15.9c-1.7-8.2-0.1-17.1,4.4-24c1.6-2.4,3.5-4.6,5.4-6.6c2-2.2,3.8-4.3,5.2-6.6
			c2.6-4.3,1.8-5.5,0.6-7.5l0,0c-0.5-0.7-1-1.5-1.6-2.4c-0.5-0.7-1-1.4-1.5-2.2c-2.3-3.4-3.7-7.2-5.1-10.8c-0.4-1.2-0.9-2.4-1.4-3.5
			c-1.8-4.5-3.9-10.5-3.3-16.7c0.8-8.2,6.2-15.9,14.4-20.7c6.1-3.5,13.5-5.5,23.4-6.3c29.2-2.2,58.3,7.8,77.8,26.6
			c9.4,9.1,16.9,20.3,21.6,32.6c3.6,9.4,4.9,17.8,4,25.5c-1,7.7-4.3,15.2-9.7,21.8C4816.6,423.3,4804.5,430.5,4790,434.1z
			 M4720.1,316c-3.5,0.9-6.5,2.1-9.1,3.6c-6.1,3.6-10.3,9.4-10.8,15.2c-0.4,4.6,1.2,9.3,2.8,13.3c0.5,1.2,1,2.5,1.4,3.7
			c1.3,3.4,2.5,6.6,4.3,9.3c0.5,0.7,1,1.4,1.5,2.1c0.7,1,1.3,1.8,1.8,2.7l0,0c2.6,4.1,3.6,8.3-0.5,15c-1.7,2.9-3.9,5.3-6,7.7
			c-1.8,2-3.4,3.8-4.7,5.8c-3.4,5.2-4.7,12.4-3.4,18.6c0.7,3.5,2.6,8.3,7.4,11.4c5.1,3.3,12,3.7,18.1,4.1l16.3,0.9
			c14.4,0.8,29.3,1.7,43.5-0.9c15.5-2.8,28.3-9.6,36.2-19.3c4.5-5.5,7.3-11.8,8.2-18.1c0.8-6.5-0.3-13.7-3.5-22
			c-4.3-11.3-11.2-21.6-19.9-30c-18.1-17.5-45.2-26.7-72.4-24.7C4727.1,314.6,4723.4,315.2,4720.1,316z"/>
	</g>
	<g id="XMLID_11794_">
		<path id="XMLID_11798_" class="st1" d="M4730.8,543.6c0.3-0.2,0.5-0.4,0.7-0.6c-2.2-5.1-2.7-13.5-2.5-19.1
			c0.3-6.9,1.9-13.9,6.5-19.2c3.4-3.9,7.9-6.7,12.6-9c9.5-4.7,20.6-8,30.7-4.6c7.4,2.5,13.2,8.2,18.1,14.2
			c12.5,15.6,20.7,35.4,18.9,55.4c-0.4,4.9-1.5,9.8-4,14.1c-1.8,3.1-4.3,5.8-7.2,8.1c-9.6,7.8-22.3,10.9-34.7,10.9
			c-12.4-0.1-24.5-3.1-36.3-6.5c-5.9-1.7-12-3.7-16.4-8.1c-7.6-7.8-6.2-22.4,2.8-28.6C4723.5,548.1,4727.3,546.1,4730.8,543.6z"/>
		<path id="XMLID_11795_" class="st2" d="M4787,595.3c-5.3,1.4-11.1,2.1-17.1,2c-12.8-0.1-25.5-3.2-37.3-6.7
			c-6.7-1.9-13.1-4.1-17.9-9c-4.4-4.5-6.5-10.9-5.9-17.7c0.7-6.8,4-12.7,9.1-16.3c1.6-1.1,3.3-2.1,5-3.2c1.5-0.9,2.9-1.8,4.3-2.7
			c-1.6-5.5-2-12.8-1.9-17.9c0.3-8.9,2.8-16.1,7.4-21.4c4-4.7,9.4-7.7,13.7-9.8c12.8-6.3,24-8,33.4-4.8c9,3,15.6,10.2,19.7,15.4
			c14.5,18,21.4,38.5,19.7,57.9c-0.6,6.3-2,11.4-4.5,15.6c-1.9,3.2-4.6,6.3-8,9C4801.3,590.1,4794.6,593.3,4787,595.3z
			 M4761.4,494.5c-3.7,0.9-7.6,2.4-11.7,4.5c-3.9,1.9-8.3,4.4-11.4,8.1c-3.5,4.1-5.4,9.8-5.7,17.1c-0.2,5.4,0.4,13.2,2.3,17.5
			l1.1,2.5l-2.1,1.7c-0.3,0.2-0.6,0.4-0.9,0.6l0,0c-2.1,1.5-4.2,2.8-6.2,4.1c-1.6,1-3.1,1.9-4.7,2.9c-3.4,2.3-5.6,6.5-6.1,11.1
			c-0.5,4.7,1,9.1,3.9,12c3.6,3.7,9.1,5.5,14.8,7.2c13.1,3.8,24.1,6.3,35.4,6.4c12.8,0.1,24.3-3.5,32.4-10.1
			c2.7-2.2,4.9-4.6,6.3-7.1c1.9-3.3,3.1-7.4,3.5-12.6c1.6-17.3-5-36.5-18.1-52.8c-5.7-7.1-10.9-11.2-16.4-13.1
			C4773,492.9,4767.5,492.9,4761.4,494.5z"/>
	</g>
	<polygon id="XMLID_11793_" class="st1" points="4550.4,738.4 4446.8,724.3 4447.7,717.2 4545.2,730.5 4570.3,640.7 4469.1,620.7 
		4454.5,711.8 4447.4,710.6 4463.2,612.2 4579.3,635.2 	"/>
	<g id="XMLID_11786_">
		
			<rect id="XMLID_11792_" x="4480.5" y="636" transform="matrix(-0.9919 -0.1273 0.1273 -0.9919 8843.8965 1916.1887)" class="st1" width="5.4" height="78.9"/>
		
			<rect id="XMLID_11791_" x="4499.4" y="639.7" transform="matrix(-0.9929 -0.1192 0.1192 -0.9929 8891.2441 1887.2675)" class="st1" width="5.4" height="76"/>
		
			<rect id="XMLID_11790_" x="4518.6" y="642" transform="matrix(-0.9648 -0.2629 0.2629 -0.9648 8704.7354 2525.6951)" class="st1" width="5.4" height="76.9"/>
		
			<rect id="XMLID_11789_" x="4537.6" y="636.6" transform="matrix(-0.9578 -0.2874 0.2874 -0.9578 8693.9424 2634.1392)" class="st1" width="5.4" height="84.6"/>
		
			<rect id="XMLID_11788_" x="4471" y="690" transform="matrix(-0.9919 -0.127 0.127 -0.9919 8891.959 1952.3234)" class="st1" width="74.5" height="5.4"/>
		<path id="XMLID_11787_" class="st1" d="M4559.5,668.2c-14.7-0.5-29.5-2.1-44-4.7c-15.5-2.8-30.9-6.8-45.8-11.8l1.7-5.1
			c14.6,5,29.8,8.9,45,11.6c14.2,2.6,28.8,4.1,43.2,4.7L4559.5,668.2z"/>
	</g>
	<g id="XMLID_11751_">
		<g id="XMLID_11784_">
			<path id="XMLID_11785_" class="st3" d="M4626.5,783.6c-0.5,0.1-1.1,0-1.5-0.3c-10.2-7.6-21.8-16.7-29.9-28.8
				c-8.8-13.1-11.8-27.9-8.1-40.5c4.1-14.5,16.4-25,26.3-33.5c3.2-2.7,6.6-5.4,10.8-5.1c1,0.1,1.7,0.9,1.7,1.9
				c-0.1,1-0.9,1.7-1.9,1.7c-2.9-0.2-5.6,1.9-8.3,4.3c-9.5,8.2-21.3,18.3-25.1,31.8c-3.3,11.6-0.5,25.3,7.7,37.5
				c7.8,11.6,19.1,20.5,29,27.9c0.8,0.6,1,1.7,0.4,2.5C4627.3,783.3,4626.9,783.5,4626.5,783.6z"/>
		</g>
		<g id="XMLID_11782_">
			<path id="XMLID_11783_" class="st3" d="M4762,813.6c-3.2,0.8-6.5,1.4-9.9,1.2c-4.8-0.3-11-2.6-13.6-8.2c-0.4-0.9,0-2,0.9-2.4
				s2,0,2.4,0.9c1.6,3.4,5.8,5.9,10.6,6.1c4.6,0.3,9.3-1.1,13.8-2.5c12.5-3.8,28-8.5,37.1-20c3.3-4.1,5.8-9.1,8.4-16.3
				c5.5-15.7,6.5-29.6,2.9-41.3c-1.7-5.5-5.8-11.1-9.8-16.6c-1.6-2.2-3.2-4.4-4.8-6.6c1,10.8-0.1,21.5-6.4,30.1
				c-8.1,11.1-22.4,15.2-34,17.5c-31.4,6.3-64.4,5.8-95.6-1.5c-8.1-1.9-16.5-4.3-23.6-9.5c-18.3-13.3-20.8-39.5-15.1-59.7
				c4.1-14.4,14.2-30.5,30.4-32.5c1-0.1,1.9,0.6,2,1.6s-0.6,1.9-1.6,2c-14.4,1.7-23.6,16.6-27.4,29.9c-5.4,18.9-3.2,43.5,13.8,55.8
				c6.6,4.8,14.6,7.1,22.3,8.9c30.7,7.2,63.2,7.7,94.1,1.5c10.9-2.2,24.4-6,31.8-16.1c7.3-10.1,6.8-23.6,4.5-36.6
				c-1.3-3.1-2-6.3-1.9-9.6c0-0.9,0.7-1.6,1.6-1.7c0.9-0.1,1.7,0.5,1.9,1.4c0.6,2.9,1.3,5.9,1.8,8.9c2,4.8,5.5,9.6,9,14.2
				c4.2,5.7,8.5,11.5,10.4,17.6c3.8,12.5,2.8,27.1-2.9,43.5c-2.7,7.6-5.4,12.9-8.9,17.3c-9.8,12.3-25.9,17.2-38.9,21.1
				C4765.5,812.6,4763.7,813.1,4762,813.6z"/>
		</g>
		<g id="XMLID_11780_">
			<path id="XMLID_11781_" class="st3" d="M4696.2,796.6c-0.2,0-0.4,0.1-0.6,0l-18.9-1.7c-4.1-0.4-8.2-1-10.6-3.8
				c-0.6-0.8-0.5-1.9,0.2-2.5c0.8-0.6,1.9-0.5,2.5,0.2c1.5,1.8,4.8,2.2,8.2,2.5l18.9,1.7c1,0.1,1.7,1,1.6,1.9
				C4697.5,795.8,4696.9,796.5,4696.2,796.6z"/>
		</g>
		<g id="XMLID_11776_">
			<path id="XMLID_11777_" class="st3" d="M4660.3,799.4c-3.8,1-8.3,0.5-12.9,0c-3.4-0.4-8.4-0.9-13.5-4.3
				c-2.6-1.7-9.3-6.2-9.2-12.5c0.1-7.8,10.7-13,17.7-14.5c4.9-1.1,17-2.7,23.6,6c5,6.7,5,17-0.1,22.2l0,0
				C4664.3,797.9,4662.4,798.9,4660.3,799.4z M4642.4,771.7c-6.1,1.5-14,5.7-14.1,10.9c-0.1,4.4,5.7,8.2,7.6,9.5
				c4.4,2.9,8.7,3.4,11.9,3.7c6.5,0.7,12.2,1.3,15.5-2.1c3.8-3.9,3.7-12.2-0.3-17.5c-5.3-7.1-15.7-5.6-20-4.7
				C4642.9,771.6,4642.7,771.7,4642.4,771.7z"/>
		</g>
		<g id="XMLID_11772_">
			<path id="XMLID_11773_" class="st3" d="M4725.9,821.4L4725.9,821.4c-9.4,2.3-18-4.3-25.1-11.2c-0.3-0.3-0.5-0.7-0.5-1.1
				c-4.7-5.8-6.4-11.8-4.5-16.9c3.5-9.6,16.2-10.7,21.5-10.8c9-0.1,15.1,2.1,18.6,6.6c1.8,2.3,2.8,5.3,3.3,9.2
				C4740.4,807.2,4735.8,818.9,4725.9,821.4z M4707.7,811.6c5.4,4.5,11.3,7.8,17.3,6.3c0,0,0,0,0.1,0c7.9-2,11.6-11.9,10.6-20.2
				c-0.4-3.2-1.2-5.7-2.6-7.5c-2.7-3.6-7.8-5.3-15.7-5.2c-4.6,0-15.5,0.9-18.2,8.4c-2.7,7.4,4.9,15,8.3,17.9
				C4707.6,811.4,4707.6,811.5,4707.7,811.6z"/>
		</g>
		<g id="XMLID_11770_">
			<path id="XMLID_11771_" class="st3" d="M4713.5,729.7c-5.3,1.3-11.2,1.2-17-0.5c-7.7-2.3-15.2-7.2-23.4-15.3
				c-0.7-0.7-0.7-1.8,0-2.5c0.7-0.7,1.8-0.7,2.5,0c7.8,7.7,14.8,12.3,22,14.4c8.9,2.7,18.3,1,24.1-4.2c0.7-0.7,1.9-0.6,2.5,0.1
				c0.7,0.7,0.6,1.9-0.1,2.5C4721.1,726.9,4717.5,728.7,4713.5,729.7z"/>
		</g>
		<g id="XMLID_11768_">
			<path id="XMLID_11769_" class="st3" d="M4681.8,683.5c-0.1,0-0.3,0.1-0.4,0.1l-11.9,0.3c-1,0-1.8-0.8-1.8-1.7
				c0-1,0.8-1.8,1.7-1.8l11.9-0.3c1,0,1.8,0.8,1.8,1.7C4683.1,682.6,4682.5,683.3,4681.8,683.5z"/>
		</g>
		<g id="XMLID_11766_">
			<path id="XMLID_11767_" class="st3" d="M4684.1,670.9c-0.4,0.1-0.8,0.1-1.2-0.1c-3.2-1.5-7.1-1.4-10.2,0.3
				c-0.9,0.5-2,0.2-2.4-0.7c-0.5-0.9-0.2-2,0.7-2.4c4.1-2.2,9.2-2.4,13.5-0.4c0.9,0.4,1.3,1.5,0.9,2.4
				C4685,670.5,4684.6,670.8,4684.1,670.9z"/>
		</g>
		<g id="XMLID_11764_">
			<path id="XMLID_11765_" class="st3" d="M4741.9,688.5c-0.5,0.1-1.1,0-1.6-0.4c-2.5-2.1-5.8-3.3-9.1-3.5c-1,0-1.8-0.9-1.7-1.8
				c0-1,0.9-1.8,1.8-1.7c4.1,0.1,8.1,1.7,11.2,4.3c0.8,0.6,0.9,1.8,0.2,2.5C4742.6,688.2,4742.3,688.4,4741.9,688.5z"/>
		</g>
		<g id="XMLID_11762_">
			<path id="XMLID_11763_" class="st3" d="M4740.3,696.2c-0.4,0.1-0.8,0.1-1.2-0.1c-5.2-2.4-10.7-4-16.4-4.6c-1-0.1-1.7-1-1.6-2
				s1-1.7,2-1.6c6.1,0.7,11.9,2.3,17.5,4.9c0.9,0.4,1.3,1.5,0.9,2.4C4741.2,695.8,4740.8,696.1,4740.3,696.2z"/>
		</g>
		<g id="XMLID_11760_">
			<path id="XMLID_11761_" class="st3" d="M4716.7,685.7L4716.7,685.7c-1,0.2-1.9-0.3-2.2-1.3l-2.4-9.6c-0.6,0.6-1.3,1.2-2.1,1.7
				c-3.6,2.4-8.1,3.3-11.7,2.5c-1-0.2-1.5-1.2-1.3-2.2c0.2-1,1.2-1.5,2.2-1.3c2.6,0.6,6.2-0.2,8.9-2c1.7-1.1,2.8-2.5,3-3.7
				c0.1-0.8,0.8-1.5,1.7-1.5c0.8,0,1.6,0.5,1.8,1.4l3.5,13.9C4718.2,684.4,4717.6,685.4,4716.7,685.7z"/>
		</g>
		<g id="XMLID_11758_">
			<path id="XMLID_11759_" class="st3" d="M4701.8,668.3c-0.3,0.1-0.6,0.1-0.9,0c-2.1-0.6-4.3-0.6-6.4,0c-0.9,0.3-1.9-0.3-2.2-1.2
				c-0.3-0.9,0.3-1.9,1.2-2.2c2.8-0.8,5.6-0.8,8.4,0c0.9,0.3,1.5,1.3,1.2,2.2C4702.9,667.6,4702.4,668.1,4701.8,668.3z"/>
		</g>
		<g id="XMLID_11756_">
			<path id="XMLID_11757_" class="st3" d="M4729.1,676.3c-0.3,0.1-0.6,0.1-0.9,0c-4-1.1-7.7-3.1-10.9-5.7c-0.8-0.6-0.9-1.8-0.2-2.5
				c0.6-0.8,1.8-0.9,2.5-0.2c2.8,2.3,6.1,4,9.6,5c0.9,0.3,1.5,1.3,1.2,2.2C4730.2,675.7,4729.7,676.2,4729.1,676.3z"/>
		</g>
		<g id="XMLID_11754_">
			<path id="XMLID_11755_" class="st3" d="M4708,655.6c-0.1,0-0.3,0.1-0.4,0.1c-1,0-1.8-0.8-1.8-1.8c-0.3-15.2-3.3-19.5-5.9-20.5
				c-1-0.4-1.9-0.2-4.1,0.3c-2.1,0.5-5,1.2-9.6,1.6c-3.7,0.3-5.9,0.2-7.6,0.1c-1.7-0.1-2.7-0.1-4.3,0.3c-4.9,1.3-9.2,5.8-12.8,13.2
				c-0.4,0.9-1.5,1.3-2.4,0.8c-0.9-0.4-1.3-1.5-0.8-2.4c4.1-8.4,9.1-13.5,15-15.1c2.1-0.5,3.6-0.5,5.4-0.4c1.6,0.1,3.7,0.2,7.1-0.1
				c4.4-0.4,7.1-1.1,9.1-1.5c2.4-0.6,4.1-1,6.3-0.2c5.3,2,7.9,9.8,8.2,23.8C4709.4,654.7,4708.8,655.4,4708,655.6z"/>
		</g>
		<g id="XMLID_11752_">
			<path id="XMLID_11753_" class="st3" d="M4798.3,675.9c-0.2,0-0.3,0.1-0.5,0.1c-1,0-1.7-0.9-1.7-1.9c0.2-4-0.4-9.9-4.2-15.5
				c-1.6-2.4-5.8-8.6-11.9-9.3c-5-0.5-9.4,1.3-13.8,3.4c-2.9,1.4-5.1,2.9-7.1,4.2c-3.4,2.2-6.1,4-9.2,2.9c-1.8-0.7-3.3-2.2-4.4-4.5
				c-5.1-4-10.8-7-16.9-9c-6.8-2.3-14-3.2-21.2-2.8c-1,0.1-1.8-0.7-1.9-1.7c-0.1-1,0.7-1.8,1.7-1.9c7.7-0.5,15.2,0.5,22.5,2.9
				c6.6,2.2,12.8,5.5,18.3,9.9c0.2,0.2,0.4,0.4,0.5,0.7c0.7,1.6,1.5,2.6,2.5,2.9c1.4,0.5,2.9-0.5,6-2.5c2-1.3,4.4-2.9,7.5-4.4
				c4.7-2.3,9.8-4.4,15.7-3.8c7.8,0.8,12.6,8.1,14.4,10.8c4.4,6.5,5,13.3,4.8,17.7C4799.6,675,4799,675.7,4798.3,675.9z"/>
		</g>
	</g>
</g>
<g>
	<g>
		<polygon id="XMLID_1407_" class="st4" points="2954.6,1277.1 2897,1310.3 2843.5,1277.1 		"/>
		<polygon id="XMLID_1404_" class="st4" points="2913.4,1328.4 2999.2,1378.2 2973.2,1378.2 2899,1338.2 2843.5,1369.1 
			2843.5,1349.5 2882,1331.4 2843.5,1306.5 2843.5,1290.7 2899,1322.3 2982.6,1277.1 3005.4,1277.1 		"/>
		<polygon id="XMLID_1330_" class="st4" points="2848.2,1378.2 2899,1349.5 2951.1,1378.2 		"/>
		<path id="XMLID_1405_" class="st5" d="M3063.7,1312.8c0,0.5-0.3,1-0.8,1.3l-37.2,19.1c-0.2,0.1-0.5,0.2-0.7,0.2
			c-0.3,0-0.6-0.1-0.8-0.2l-48.8-28.7c-0.5-0.3-0.7-0.8-0.7-1.3s0.3-1,0.8-1.3l42.3-22.2l0.5-0.2l4.3-2.4h6.9l-4.6,2.4l-3.9,2
			l-0.9,0.5l-40.6,21.4l45.6,26.9l34.1-17.5l-36.8-21.8l-23.1,11.5l25.2,16.6l13.5-8.7l-21.4-11.6c-0.7-0.4-1-1.4-0.6-2.1
			c0.4-0.7,1.4-1,2.2-0.6l23.5,12.8c0.5,0.3,0.7,0.8,0.8,1.3c0,0.5-0.2,1-0.7,1.3l-16.5,10.6c-0.5,0.3-1.3,0.3-1.8,0l-28.3-18.6
			c-0.5-0.3-0.7-0.8-0.7-1.4c0-0.5,0.3-1,0.8-1.2l26.2-13.1c0.5-0.2,1.1-0.2,1.6,0l39.8,23.7
			C3063.3,1311.8,3063.7,1312.3,3063.7,1312.8z"/>
		<path id="XMLID_1328_" class="st6" d="M3049.3,1356.5l-48.8-28.7c-0.2-0.1-0.5-0.2-0.8-0.2c-0.2,0-0.5,0.1-0.7,0.2l-37.2,19.1
			c-0.5,0.3-0.8,0.7-0.8,1.3c0,0.5,0.3,1,0.7,1.3l39.8,23.6c0.5,0.3,1,0.3,1.6,0.1l26.3-13.1c0.5-0.2,0.8-0.7,0.8-1.2
			s-0.2-1-0.7-1.3L3001,1339c-0.5-0.3-1.3-0.4-1.8,0l-16.5,10.6c-0.4,0.3-0.7,0.8-0.7,1.3s0.3,1,0.8,1.3l23.5,12.8
			c0.7,0.4,1.7,0.2,2.2-0.6c0.4-0.7,0.2-1.6-0.6-2.1l-21.4-11.6l13.5-8.6l25.2,16.6l-23.1,11.5l-36.7-21.8l34-17.5l45.6,26.9
			l-39.1,20.6h6.5l36.5-19.2c0.5-0.3,0.8-0.7,0.8-1.3C3050,1357.3,3049.7,1356.8,3049.3,1356.5z"/>
		<polygon id="XMLID_1400_" class="st5" points="3177.8,1277.1 3120.2,1310.3 3066.8,1277.1 		"/>
		<polygon id="XMLID_1326_" class="st5" points="3071.5,1378.2 3122.3,1349.5 3174.5,1378.2 		"/>
		<path id="XMLID_1401_" class="st7" d="M3286.9,1312.8c0,0.5-0.3,1-0.8,1.3l-37.2,19.1c-0.2,0.1-0.5,0.2-0.7,0.2
			c-0.3,0-0.6-0.1-0.8-0.2l-48.8-28.7c-0.5-0.3-0.7-0.8-0.7-1.3s0.3-1,0.8-1.3l42.8-22.5l1.1-0.6l3.1-1.8h6.9l-4.6,2.4l-2.2,1.1
			l-2.6,1.3l-40.6,21.4l45.6,26.9l34.1-17.5l-36.8-21.8l-23.1,11.5l25.2,16.6l13.5-8.7l-21.4-11.6c-0.7-0.4-1-1.4-0.6-2.1
			c0.4-0.7,1.4-1,2.2-0.6l23.5,12.8c0.5,0.3,0.7,0.8,0.8,1.3c0,0.5-0.2,1-0.7,1.3l-16.5,10.6c-0.5,0.3-1.3,0.3-1.8,0l-28.3-18.6
			c-0.5-0.3-0.7-0.8-0.7-1.4c0-0.5,0.3-1,0.8-1.2l26.2-13.1c0.5-0.2,1.1-0.2,1.6,0l39.8,23.7
			C3286.6,1311.8,3286.9,1312.3,3286.9,1312.8z"/>
		<path id="XMLID_1324_" class="st5" d="M3272.5,1356.5l-48.8-28.7c-0.2-0.1-0.5-0.2-0.8-0.2c-0.2,0-0.5,0.1-0.7,0.2l-37.2,19.1
			c-0.5,0.3-0.8,0.7-0.8,1.3c0,0.5,0.3,1,0.7,1.3l39.8,23.6c0.5,0.3,1,0.3,1.6,0.1l26.3-13.1c0.5-0.2,0.8-0.7,0.8-1.2
			s-0.2-1-0.7-1.3l-28.3-18.6c-0.5-0.3-1.3-0.4-1.8,0l-16.5,10.6c-0.4,0.3-0.7,0.8-0.7,1.3s0.3,1,0.8,1.3l23.5,12.8
			c0.7,0.4,1.7,0.2,2.2-0.6c0.4-0.7,0.2-1.6-0.6-2.1l-21.4-11.6l13.5-8.6l25.2,16.6l-23.1,11.5l-36.8-21.8l34-17.5l45.6,26.9
			l-39.1,20.6h6.5l36.5-19.2c0.5-0.3,0.8-0.7,0.8-1.3C3273.3,1357.3,3273,1356.8,3272.5,1356.5z"/>
		<polygon id="XMLID_1329_" class="st5" points="3223.2,1378.4 3197.7,1378.4 3123.6,1337.7 3110.9,1330.8 3020.7,1281.4 
			3017.6,1279.7 3015.9,1278.8 3017,1277.1 3038.1,1277.1 3123.6,1323.9 3136.3,1330.8 		"/>
		<polygon id="XMLID_1325_" class="st5" points="3231.8,1278.8 3136.3,1330.8 3123.6,1337.7 3048.9,1378.4 3026.9,1378.4 3026,1377 
			3110.9,1330.8 3123.6,1323.9 3209.5,1277.1 3230.9,1277.1 		"/>
		<polygon id="XMLID_1399_" class="st7" points="3404.3,1277.1 3346.6,1310.3 3293.2,1277.1 		"/>
		<polygon id="XMLID_1320_" class="st7" points="3297.9,1378.2 3348.7,1349.5 3400.9,1378.2 		"/>
		<path id="XMLID_1307_" class="st8" d="M3513.3,1312.8c0,0.5-0.3,1-0.8,1.3l-37.2,19.1c-0.2,0.1-0.5,0.2-0.7,0.2
			c-0.3,0-0.6-0.1-0.8-0.2l-48.8-28.7c-0.5-0.3-0.7-0.8-0.7-1.3s0.3-1,0.8-1.3l42.8-22.5l1.1-0.6l3.1-1.8h6.9l-4.6,2.4l-2.2,1.1
			l-2.6,1.3l-40.6,21.4l45.6,26.9l34.1-17.5l-36.8-21.8l-23.1,11.5l25.2,16.6l13.5-8.7l-21.4-11.6c-0.7-0.4-1-1.4-0.6-2.1
			c0.4-0.7,1.4-1,2.2-0.6l23.5,12.8c0.5,0.3,0.7,0.8,0.8,1.3c0,0.5-0.2,1-0.7,1.3l-16.5,10.6c-0.5,0.3-1.3,0.3-1.8,0l-28.3-18.6
			c-0.5-0.3-0.7-0.8-0.7-1.4c0-0.5,0.3-1,0.8-1.2l26.2-13.1c0.5-0.2,1.1-0.2,1.6,0l39.8,23.7
			C3513,1311.8,3513.3,1312.3,3513.3,1312.8z"/>
		<path id="XMLID_1318_" class="st7" d="M3498.9,1356.5l-48.8-28.7c-0.2-0.1-0.5-0.2-0.8-0.2c-0.2,0-0.5,0.1-0.7,0.2l-37.2,19.1
			c-0.5,0.3-0.8,0.7-0.8,1.3c0,0.5,0.3,1,0.7,1.3l39.8,23.6c0.5,0.3,1,0.3,1.6,0.1l26.3-13.1c0.5-0.2,0.8-0.7,0.8-1.2
			s-0.2-1-0.7-1.3l-28.3-18.6c-0.5-0.3-1.3-0.4-1.8,0l-16.5,10.6c-0.4,0.3-0.7,0.8-0.7,1.3s0.3,1,0.8,1.3l23.5,12.8
			c0.7,0.4,1.7,0.2,2.2-0.6c0.4-0.7,0.2-1.6-0.6-2.1l-21.4-11.6l13.5-8.6l25.2,16.6l-23.1,11.5l-36.8-21.8l34-17.5l45.6,26.9
			l-39.1,20.6h6.5l36.5-19.2c0.5-0.3,0.8-0.7,0.8-1.3C3499.7,1357.3,3499.5,1356.8,3498.9,1356.5z"/>
		<polygon id="XMLID_1277_" class="st7" points="3449.6,1378.4 3362.8,1330.8 3350,1323.9 3264.5,1277.1 3252.4,1277.1 
			3245.6,1277.1 3243.4,1277.1 3242.3,1278.8 3242.4,1278.8 3245.7,1280.6 3337.2,1330.8 3350,1337.7 3424.2,1378.4 		"/>
		<polygon id="XMLID_1309_" class="st7" points="3458.3,1278.8 3362.8,1330.8 3350,1337.7 3275.4,1378.4 3253.3,1378.4 3252.4,1377 
			3337.2,1330.8 3350,1323.9 3435.9,1277.1 3457.3,1277.1 		"/>
		<polygon id="XMLID_1398_" class="st8" points="3630.7,1277.1 3573.1,1310.3 3519.7,1277.1 		"/>
		<polygon id="XMLID_1314_" class="st8" points="3524.4,1378.2 3575.2,1349.5 3627.3,1378.2 		"/>
		<path id="XMLID_1333_" class="st9" d="M3739.8,1312.8c0,0.5-0.3,1-0.8,1.3l-37.2,19.1c-0.2,0.1-0.5,0.2-0.7,0.2
			c-0.3,0-0.6-0.1-0.8-0.2l-48.8-28.7c-0.5-0.3-0.7-0.8-0.7-1.3s0.3-1,0.8-1.3l42.8-22.5l1.1-0.6l3.1-1.8h6.9l-4.6,2.4l-2.2,1.1
			l-2.6,1.3l-40.6,21.4l45.6,26.9l34.1-17.5l-36.8-21.8l-23.1,11.5l25.2,16.6l13.5-8.7l-21.4-11.6c-0.7-0.4-1-1.4-0.6-2.1
			c0.4-0.7,1.4-1,2.2-0.6l23.5,12.8c0.5,0.3,0.7,0.8,0.8,1.3c0,0.5-0.2,1-0.7,1.3l-16.5,10.6c-0.5,0.3-1.3,0.3-1.8,0l-28.3-18.6
			c-0.5-0.3-0.7-0.8-0.7-1.4c0-0.5,0.3-1,0.8-1.2l26.2-13.1c0.5-0.2,1.1-0.2,1.6,0l39.8,23.7
			C3739.5,1311.8,3739.8,1312.3,3739.8,1312.8z"/>
		<path id="XMLID_1312_" class="st8" d="M3725.3,1356.5l-48.8-28.7c-0.2-0.1-0.5-0.2-0.8-0.2c-0.2,0-0.5,0.1-0.7,0.2l-37.2,19.1
			c-0.5,0.3-0.8,0.7-0.8,1.3c0,0.5,0.3,1,0.7,1.3l39.8,23.6c0.5,0.3,1,0.3,1.6,0.1l26.3-13.1c0.5-0.2,0.8-0.7,0.8-1.2
			s-0.2-1-0.7-1.3l-28.3-18.6c-0.5-0.3-1.3-0.4-1.8,0l-16.5,10.6c-0.4,0.3-0.7,0.8-0.7,1.3s0.3,1,0.8,1.3l23.5,12.8
			c0.7,0.4,1.7,0.2,2.2-0.6c0.4-0.7,0.2-1.6-0.6-2.1l-21.4-11.6l13.5-8.6l25.2,16.6l-23.1,11.5l-36.6-21.8l34-17.5l45.6,26.9
			l-39.1,20.6h6.5l36.5-19.2c0.5-0.3,0.8-0.7,0.8-1.3C3726.2,1357.3,3725.9,1356.8,3725.3,1356.5z"/>
		<polygon id="XMLID_1285_" class="st8" points="3676.1,1378.4 3650.6,1378.4 3576.5,1337.7 3563.7,1330.8 3472.1,1280.6 
			3468.9,1278.8 3468.8,1278.8 3469.9,1277.1 3491,1277.1 3576.5,1323.9 3589.2,1330.8 		"/>
		<polygon id="XMLID_1322_" class="st8" points="3501.8,1378.4 3576.5,1337.7 3589.2,1330.8 3684.7,1278.8 3683.7,1277.1 
			3662.3,1277.1 3576.5,1323.9 3563.7,1330.8 3478.9,1377 3479.8,1378.4 		"/>
		<polygon id="XMLID_1394_" class="st9" points="3857.1,1277.1 3799.5,1310.3 3746.1,1277.1 		"/>
		<polygon id="XMLID_1308_" class="st9" points="3750.8,1378.2 3801.6,1349.5 3853.8,1378.2 		"/>
		<path id="XMLID_1397_" class="st4" d="M3966.2,1312.8c0,0.5-0.3,1-0.8,1.3l-37.2,19.1c-0.2,0.1-0.5,0.2-0.7,0.2
			c-0.3,0-0.6-0.1-0.8-0.2l-48.8-28.7c-0.5-0.3-0.7-0.8-0.7-1.3s0.3-1,0.8-1.3l42.8-22.5l4.3-2.4h6.9l-4.6,2.4l-0.6,0.3l-4.2,2.2
			l-40.6,21.4l45.6,26.9l34.1-17.5l-36.8-21.8l-23.1,11.5l25.2,16.6l13.5-8.7l-21.4-11.6c-0.7-0.4-1-1.4-0.6-2.1
			c0.4-0.7,1.4-1,2.2-0.6l23.5,12.8c0.5,0.3,0.7,0.8,0.8,1.3c0,0.5-0.2,1-0.7,1.3l-16.5,10.6c-0.5,0.3-1.3,0.3-1.8,0l-28.3-18.6
			c-0.5-0.3-0.7-0.8-0.7-1.4c0-0.5,0.3-1,0.8-1.2l26.2-13.1c0.5-0.2,1.1-0.2,1.6,0l39.8,23.7
			C3965.9,1311.8,3966.2,1312.3,3966.2,1312.8z"/>
		<path id="XMLID_1306_" class="st9" d="M3951.8,1356.5l-48.8-28.7c-0.2-0.1-0.5-0.2-0.8-0.2c-0.2,0-0.5,0.1-0.7,0.2l-37.2,19.1
			c-0.5,0.3-0.8,0.7-0.8,1.3c0,0.5,0.3,1,0.7,1.3l39.8,23.6c0.5,0.3,1,0.3,1.6,0.1l26.3-13.1c0.5-0.2,0.8-0.7,0.8-1.2
			s-0.2-1-0.7-1.3l-28.3-18.6c-0.5-0.3-1.3-0.4-1.8,0l-16.5,10.6c-0.4,0.3-0.7,0.8-0.7,1.3s0.3,1,0.8,1.3l23.5,12.8
			c0.7,0.4,1.7,0.2,2.2-0.6s0.2-1.6-0.6-2.1l-21.4-11.6l13.5-8.6l25.2,16.6l-23.1,11.5l-36.8-21.8l34-17.5l45.6,26.9l-39.1,20.6h6.5
			l36.5-19.2c0.5-0.3,0.8-0.7,0.8-1.3C3952.6,1357.3,3952.3,1356.8,3951.8,1356.5z"/>
		<polygon id="XMLID_1290_" class="st9" points="3902.5,1378.4 3877,1378.4 3802.9,1337.7 3790.1,1330.8 3698.6,1280.6 
			3695.3,1278.8 3695.2,1278.8 3696.3,1277.1 3717.4,1277.1 3802.9,1323.9 3815.6,1330.8 		"/>
		<polygon id="XMLID_1283_" class="st9" points="3911.1,1278.8 3815.6,1330.8 3802.9,1337.7 3728.2,1378.4 3706.2,1378.4 
			3705.3,1377 3790.1,1330.8 3802.9,1323.9 3888.8,1277.1 3910.2,1277.1 		"/>
		<polygon id="XMLID_1391_" class="st4" points="4086.8,1277.1 4029.1,1310.3 3975.6,1277.1 		"/>
		<polygon id="XMLID_1302_" class="st4" points="3980.4,1378.2 4031.2,1349.5 4083.3,1378.2 		"/>
		<path id="XMLID_1357_" class="st5" d="M4195.7,1312.8c0,0.5-0.3,1-0.8,1.3l-37.2,19.1c-0.2,0.1-0.5,0.2-0.7,0.2
			c-0.3,0-0.6-0.1-0.8-0.2l-48.8-28.7c-0.5-0.3-0.7-0.8-0.7-1.3s0.3-1,0.8-1.3l42.3-22.2l0.5-0.2l4.3-2.4h6.9l-4.6,2.4l-3.9,2
			l-0.9,0.5l-40.6,21.4l45.6,26.9l34.1-17.5l-36.8-21.8l-23.1,11.5l25.2,16.6l13.5-8.7l-21.4-11.6c-0.7-0.4-1-1.4-0.6-2.1
			c0.4-0.7,1.4-1,2.2-0.6l23.5,12.8c0.5,0.3,0.7,0.8,0.8,1.3c0,0.5-0.2,1-0.7,1.3l-16.5,10.6c-0.5,0.3-1.3,0.3-1.8,0l-28.3-18.6
			c-0.5-0.3-0.7-0.8-0.7-1.4c0-0.5,0.3-1,0.8-1.2l26.2-13.1c0.5-0.2,1.1-0.2,1.6,0l39.8,23.7
			C4195.5,1311.8,4195.7,1312.3,4195.7,1312.8z"/>
		<path id="XMLID_1300_" class="st4" d="M4181.4,1356.5l-48.8-28.7c-0.2-0.1-0.5-0.2-0.8-0.2c-0.2,0-0.5,0.1-0.7,0.2l-37.2,19.1
			c-0.5,0.3-0.8,0.7-0.8,1.3c0,0.5,0.3,1,0.7,1.3l39.8,23.6c0.5,0.3,1,0.3,1.6,0.1l26.3-13.1c0.5-0.2,0.8-0.7,0.8-1.2
			s-0.2-1-0.7-1.3l-28.3-18.6c-0.5-0.3-1.3-0.4-1.8,0l-16.5,10.6c-0.4,0.3-0.7,0.8-0.7,1.3s0.3,1,0.8,1.3l23.5,12.8
			c0.7,0.4,1.7,0.2,2.2-0.6s0.2-1.6-0.6-2.1l-21.4-11.6l13.5-8.6l25.2,16.6l-23.1,11.5l-36.8-21.8l34-17.5l45.6,26.9l-39.1,20.6h6.5
			l36.5-19.2c0.5-0.3,0.8-0.7,0.8-1.3C4182.2,1357.3,4181.9,1356.8,4181.4,1356.5z"/>
		<polygon id="XMLID_1291_" class="st4" points="4132.1,1378.4 4106.7,1378.4 4032.5,1337.7 4019.8,1330.8 3926.6,1279.8 
			3924.9,1278.8 3925.9,1277.1 3947,1277.1 4032.5,1323.9 4045.2,1330.8 		"/>
		<polygon id="XMLID_1284_" class="st4" points="4140.7,1278.8 4045.2,1330.8 4032.5,1337.7 3957.8,1378.4 3935.8,1378.4 3935,1377 
			4019.8,1330.8 4032.5,1323.9 4118.3,1277.1 4139.7,1277.1 		"/>
		<polygon id="XMLID_1390_" class="st5" points="4310,1277.1 4252.4,1310.3 4199,1277.1 		"/>
		<polygon id="XMLID_1294_" class="st5" points="4203.7,1378.2 4254.5,1349.5 4306.6,1378.2 		"/>
		<path id="XMLID_1293_" class="st7" d="M4373.5,1279.4l-42.7,22.5c-0.5,0.3-0.8,0.7-0.8,1.3c0,0.5,0.3,1,0.7,1.3l48.8,28.7
			c0.2,0.1,0.5,0.2,0.8,0.2c0.2,0,0.5-0.1,0.7-0.2l37.2-19.1c0.5-0.3,0.8-0.7,0.8-1.3c0-0.5-0.3-1-0.7-1.3l-39.8-23.6
			c-0.5-0.3-1-0.3-1.6-0.1l-26.3,13.1c-0.5,0.2-0.8,0.7-0.8,1.2s0.2,1,0.7,1.3l28.3,18.6c0.5,0.3,1.3,0.4,1.8,0l16.5-10.6
			c0.4-0.3,0.7-0.8,0.7-1.3s-0.3-1-0.8-1.3l-23.5-12.8c-0.7-0.4-1.7-0.2-2.2,0.6c-0.4,0.7-0.2,1.6,0.6,2.1l21.4,11.6l-13.5,8.6
			l-25.2-16.6l23.1-11.5l36.8,21.8l-34,17.5l-45.6-26.9l40.6-21.4l4.8-2.5l4.6-2.4h-6.9L4373.5,1279.4z"/>
		<path id="XMLID_1292_" class="st7" d="M4404.7,1356.5l-48.8-28.7c-0.2-0.1-0.5-0.2-0.8-0.2c-0.2,0-0.5,0.1-0.7,0.2l-37.2,19.1
			c-0.5,0.3-0.8,0.7-0.8,1.3c0,0.5,0.3,1,0.7,1.3l39.8,23.6c0.5,0.3,1,0.3,1.6,0.1l26.3-13.1c0.5-0.2,0.8-0.7,0.8-1.2
			s-0.2-1-0.7-1.3l-28.3-18.6c-0.5-0.3-1.3-0.4-1.8,0l-16.5,10.6c-0.4,0.3-0.7,0.8-0.7,1.3s0.3,1,0.8,1.3l23.5,12.8
			c0.7,0.4,1.7,0.2,2.2-0.6c0.4-0.7,0.2-1.6-0.6-2.1l-21.4-11.6l13.5-8.6l25.2,16.6l-23.1,11.5l-36.7-21.8l34-17.5l45.6,26.9
			l-39.1,20.6h6.5l36.5-19.2c0.5-0.3,0.8-0.7,0.8-1.3C4405.5,1357.3,4405.2,1356.8,4404.7,1356.5z"/>
		<polygon id="XMLID_1299_" class="st5" points="4355.4,1378.4 4329.9,1378.4 4255.8,1337.7 4243,1330.8 4152.9,1281.4 
			4149.8,1279.7 4148.1,1278.8 4149.2,1277.1 4170.3,1277.1 4255.8,1323.9 4268.5,1330.8 4268.5,1330.8 		"/>
		<polygon id="XMLID_1287_" class="st5" points="4364,1278.8 4268.5,1330.8 4268.5,1330.8 4255.8,1337.7 4181,1378.4 4159.1,1378.4 
			4158.2,1377 4243,1330.8 4255.8,1323.9 4341.6,1277.1 4363,1277.1 		"/>
		<polygon id="XMLID_1387_" class="st7" points="4533.3,1277.1 4475.7,1310.3 4422.2,1277.1 		"/>
		<polygon id="XMLID_1288_" class="st7" points="4426.9,1378.2 4477.8,1349.5 4530,1378.2 		"/>
		<path id="XMLID_1279_" class="st8" d="M4642.4,1312.8c0,0.5-0.3,1-0.8,1.3l-37.2,19.1c-0.2,0.1-0.5,0.2-0.7,0.2
			c-0.3,0-0.6-0.1-0.8-0.2l-48.8-28.7c-0.5-0.3-0.7-0.8-0.7-1.3s0.3-1,0.8-1.3l42.8-22.5l1.1-0.6l3.1-1.8h6.9l-4.6,2.4l-2.2,1.1
			l-2.6,1.3l-40.6,21.4l45.6,26.9l34.1-17.5l-36.8-21.8l-23.1,11.5l25.2,16.6l13.5-8.7l-21.4-11.6c-0.7-0.4-1-1.4-0.6-2.1
			c0.4-0.7,1.4-1,2.2-0.6l23.5,12.8c0.5,0.3,0.7,0.8,0.8,1.3c0,0.5-0.2,1-0.7,1.3l-16.5,10.6c-0.5,0.3-1.3,0.3-1.8,0l-28.3-18.6
			c-0.5-0.3-0.7-0.8-0.7-1.4c0-0.5,0.3-1,0.8-1.2l26.2-13.1c0.5-0.2,1.1-0.2,1.6,0l39.8,23.7
			C4642.1,1311.8,4642.4,1312.3,4642.4,1312.8z"/>
		<path id="XMLID_1286_" class="st7" d="M4628,1356.5l-48.8-28.7c-0.2-0.1-0.5-0.2-0.8-0.2c-0.2,0-0.5,0.1-0.7,0.2l-37.2,19.1
			c-0.5,0.3-0.8,0.7-0.8,1.3c0,0.5,0.3,1,0.7,1.3l39.8,23.6c0.5,0.3,1,0.3,1.6,0.1l26.3-13.1c0.5-0.2,0.8-0.7,0.8-1.2
			s-0.2-1-0.7-1.3l-28.3-18.6c-0.5-0.3-1.3-0.4-1.8,0l-16.5,10.6c-0.4,0.3-0.7,0.8-0.7,1.3s0.3,1,0.8,1.3l23.5,12.8
			c0.7,0.4,1.7,0.2,2.2-0.6c0.4-0.7,0.2-1.6-0.6-2.1l-21.4-11.6l13.5-8.6l25.2,16.6l-23.1,11.5l-36.8-21.8l34-17.5l45.6,26.9
			l-39.1,20.6h6.5l36.5-19.2c0.5-0.3,0.8-0.7,0.8-1.3C4628.7,1357.3,4628.4,1356.8,4628,1356.5z"/>
		<polygon id="XMLID_1303_" class="st7" points="4578.6,1378.4 4553.2,1378.4 4479,1337.7 4466.3,1330.8 4376.2,1281.4 
			4373.1,1279.7 4371.4,1278.8 4372.4,1277.1 4393.6,1277.1 4479,1323.9 4491.7,1330.8 		"/>
		<polygon id="XMLID_1297_" class="st7" points="4587.3,1278.8 4491.7,1330.8 4479,1337.7 4404.3,1378.4 4382.3,1378.4 4381.5,1377 
			4466.3,1330.8 4479,1323.9 4565,1277.1 4586.3,1277.1 		"/>
		<polygon id="XMLID_1334_" class="st8" points="4759.8,1277.1 4702.1,1310.3 4648.6,1277.1 		"/>
		<polygon id="XMLID_1282_" class="st8" points="4653.3,1378.2 4704.2,1349.5 4756.4,1378.2 		"/>
		<path id="XMLID_1281_" class="st9" d="M4868.8,1312.8c0,0.5-0.3,1-0.8,1.3l-37.2,19.1c-0.2,0.1-0.5,0.2-0.7,0.2
			c-0.3,0-0.6-0.1-0.8-0.2l-48.8-28.7c-0.5-0.3-0.7-0.8-0.7-1.3s0.3-1,0.8-1.3l42.8-22.5l4.3-2.4h6.9l-4.6,2.4l-0.6,0.3l-4.2,2.2
			l-40.6,21.4l45.6,26.9l34.1-17.5l-36.8-21.8l-23.1,11.5l25.2,16.6l13.5-8.7l-21.4-11.6c-0.7-0.4-1-1.4-0.6-2.1s1.4-1,2.2-0.6
			l23.5,12.8c0.5,0.3,0.7,0.8,0.8,1.3c0,0.5-0.2,1-0.7,1.3l-16.5,10.6c-0.5,0.3-1.3,0.3-1.8,0l-28.3-18.6c-0.5-0.3-0.7-0.8-0.7-1.4
			c0-0.5,0.3-1,0.8-1.2l26.2-13.1c0.5-0.2,1.1-0.2,1.6,0l39.8,23.7C4868.5,1311.8,4868.8,1312.3,4868.8,1312.8z"/>
		<path id="XMLID_1280_" class="st8" d="M4854.4,1356.5l-48.8-28.7c-0.2-0.1-0.5-0.2-0.8-0.2c-0.2,0-0.5,0.1-0.7,0.2l-37.2,19.1
			c-0.5,0.3-0.8,0.7-0.8,1.3c0,0.5,0.3,1,0.7,1.3l39.8,23.6c0.5,0.3,1,0.3,1.6,0.1l26.3-13.1c0.5-0.2,0.8-0.7,0.8-1.2
			s-0.2-1-0.7-1.3l-28.3-18.6c-0.5-0.3-1.3-0.4-1.8,0l-16.5,10.6c-0.4,0.3-0.7,0.8-0.7,1.3s0.3,1,0.8,1.3l23.5,12.8
			c0.7,0.4,1.7,0.2,2.2-0.6c0.4-0.7,0.2-1.6-0.6-2.1l-21.4-11.6l13.5-8.6l25.2,16.6l-23.1,11.5l-36.8-21.8l34-17.5l45.6,26.9
			l-39.1,20.6h6.5l36.5-19.2c0.5-0.3,0.8-0.7,0.8-1.3C4855.1,1357.3,4854.9,1356.8,4854.4,1356.5z"/>
		<polygon id="XMLID_1311_" class="st8" points="4805,1378.4 4779.7,1378.4 4705.4,1337.7 4692.7,1330.8 4601.1,1280.6 
			4597.9,1278.8 4597.8,1278.8 4598.8,1277.1 4620,1277.1 4705.4,1323.9 4718.2,1330.8 		"/>
		<polygon id="XMLID_1298_" class="st8" points="4813.8,1278.8 4718.2,1330.8 4705.4,1337.7 4630.8,1378.4 4608.7,1378.4 
			4607.9,1377 4692.7,1330.8 4705.4,1323.9 4791.4,1277.1 4812.7,1277.1 		"/>
		<polygon id="XMLID_1317_" class="st9" points="4989.3,1277.1 4931.7,1310.3 4878.3,1277.1 		"/>
		<polygon id="XMLID_1270_" class="st9" points="4882.9,1378.2 4933.8,1349.5 4986,1378.2 		"/>
		<path id="XMLID_1289_" class="st10" d="M5098.4,1312.8c0,0.5-0.3,1-0.8,1.3l-37.2,19.1c-0.2,0.1-0.5,0.2-0.7,0.2
			c-0.3,0-0.6-0.1-0.8-0.2l-48.8-28.7c-0.5-0.3-0.7-0.8-0.7-1.3s0.3-1,0.8-1.3l40.7-21.4l2.1-1.1l4.3-2.4h6.9l-4.6,2.4l-4.8,2.5
			l-0.6,0.3l-39.9,21l45.6,26.9l34.1-17.5l-36.8-21.8l-23.1,11.5l25.2,16.6l13.5-8.7l-21.4-11.6c-0.7-0.4-1-1.4-0.6-2.1
			c0.4-0.7,1.4-1,2.2-0.6l23.5,12.8c0.5,0.3,0.7,0.8,0.8,1.3c0,0.5-0.2,1-0.7,1.3l-16.5,10.6c-0.5,0.3-1.3,0.3-1.8,0l-28.3-18.6
			c-0.5-0.3-0.7-0.8-0.7-1.4c0-0.5,0.3-1,0.8-1.2l26.2-13.1c0.5-0.2,1.1-0.2,1.6,0l39.8,23.7
			C5098.1,1311.8,5098.4,1312.3,5098.4,1312.8z"/>
		<path id="XMLID_1256_" class="st9" d="M5084,1356.5l-48.8-28.7c-0.2-0.1-0.5-0.2-0.8-0.2c-0.2,0-0.5,0.1-0.7,0.2l-37.2,19.1
			c-0.5,0.3-0.8,0.7-0.8,1.3c0,0.5,0.3,1,0.7,1.3l39.8,23.6c0.5,0.3,1,0.3,1.6,0.1l26.3-13.1c0.5-0.2,0.8-0.7,0.8-1.2
			s-0.2-1-0.7-1.3l-28.3-18.6c-0.5-0.3-1.3-0.4-1.8,0l-16.5,10.6c-0.4,0.3-0.7,0.8-0.7,1.3s0.3,1,0.8,1.3l23.5,12.8
			c0.7,0.4,1.7,0.2,2.2-0.6s0.2-1.6-0.6-2.1l-21.4-11.6l13.5-8.6l25.2,16.6l-23.1,11.5l-36.7-21.8l34-17.5l45.6,26.9l-39.1,20.6h6.5
			l36.5-19.2c0.5-0.3,0.8-0.7,0.8-1.3C5084.8,1357.3,5084.4,1356.8,5084,1356.5z"/>
		<polygon id="XMLID_1313_" class="st9" points="5034.6,1378.4 5009.2,1378.4 4935,1337.7 4922.3,1330.8 4829.2,1279.8 
			4827.4,1278.8 4828.5,1277.1 4849.6,1277.1 4935,1323.9 4947.8,1330.8 		"/>
		<polygon id="XMLID_1301_" class="st9" points="4860.3,1378.4 4935,1337.7 4947.8,1330.8 5043.3,1278.8 5042.4,1277.1 5021,1277.1 
			4935,1323.9 4922.3,1330.8 4837.5,1377 4838.4,1378.4 		"/>
		<polygon id="XMLID_1316_" class="st10" points="5209.5,1277.1 5151.9,1310.3 5098.4,1277.1 		"/>
		<polygon id="XMLID_1180_" class="st10" points="5103.1,1378.2 5153.9,1349.5 5206.1,1378.2 		"/>
		<path id="XMLID_1305_" class="st5" d="M5318.6,1312.8c0,0.5-0.3,1-0.8,1.3l-37.2,19.1c-0.2,0.1-0.5,0.2-0.7,0.2
			c-0.3,0-0.6-0.1-0.8-0.2l-48.8-28.7c-0.5-0.3-0.7-0.8-0.7-1.3s0.3-1,0.8-1.3l42.8-22.5l4.3-2.4h6.9l-4.6,2.4l-4.8,2.5l-40.6,21.4
			l45.6,26.9l34.1-17.5l-36.8-21.8l-23.1,11.5l25.2,16.6l13.5-8.7l-21.4-11.6c-0.7-0.4-1-1.4-0.6-2.1c0.4-0.7,1.4-1,2.2-0.6
			l23.5,12.8c0.5,0.3,0.7,0.8,0.8,1.3c0,0.5-0.2,1-0.7,1.3l-16.5,10.6c-0.5,0.3-1.3,0.3-1.8,0l-28.3-18.6c-0.5-0.3-0.7-0.8-0.7-1.4
			c0-0.5,0.3-1,0.8-1.2l26.2-13.1c0.5-0.2,1.1-0.2,1.6,0l39.8,23.7C5318.2,1311.8,5318.6,1312.3,5318.6,1312.8z"/>
		<path id="XMLID_1066_" class="st10" d="M5304.2,1356.5l-48.8-28.7c-0.2-0.1-0.5-0.2-0.8-0.2c-0.2,0-0.5,0.1-0.7,0.2l-37.2,19.1
			c-0.5,0.3-0.8,0.7-0.8,1.3c0,0.5,0.3,1,0.7,1.3l39.8,23.6c0.5,0.3,1,0.3,1.6,0.1l26.3-13.1c0.5-0.2,0.8-0.7,0.8-1.2
			s-0.2-1-0.7-1.3l-28.3-18.6c-0.5-0.3-1.3-0.4-1.8,0l-16.5,10.6c-0.4,0.3-0.7,0.8-0.7,1.3s0.3,1,0.8,1.3l23.5,12.8
			c0.7,0.4,1.7,0.2,2.2-0.6c0.4-0.7,0.2-1.6-0.6-2.1l-21.4-11.6l13.5-8.6l25.2,16.6l-23.1,11.5l-36.8-21.8l34-17.5l45.6,26.9
			l-39.1,20.6h6.5l36.5-19.2c0.5-0.3,0.8-0.7,0.8-1.3C5304.9,1357.3,5304.6,1356.8,5304.2,1356.5z"/>
		<polygon id="XMLID_1321_" class="st10" points="5254.8,1378.4 5229.4,1378.4 5155.2,1337.7 5142.5,1330.8 5053.9,1282.3 
			5050.8,1280.5 5047.6,1278.8 5048.6,1277.1 5069.8,1277.1 5155.2,1323.9 5167.9,1330.8 		"/>
		<polygon id="XMLID_1310_" class="st10" points="5263.4,1278.8 5167.9,1330.8 5155.2,1337.7 5080.5,1378.4 5058.5,1378.4 
			5057.7,1377 5142.5,1330.8 5155.2,1323.9 5241.1,1277.1 5262.5,1277.1 		"/>
		<polyline id="XMLID_1187_" class="st11" points="4372.4,1277.1 4377.8,1277.1 4384.6,1277.1 4393.6,1277.1 		"/>
		<line id="XMLID_1194_" class="st11" x1="5262.5" y1="1277.1" x2="5241.1" y2="1277.1"/>
		<line id="XMLID_1263_" class="st11" x1="3449.6" y1="1378.4" x2="3424.2" y2="1378.4"/>
		<line id="XMLID_1278_" class="st11" x1="3501.8" y1="1378.4" x2="3479.8" y2="1378.4"/>
		<line id="XMLID_1249_" class="st11" x1="4860.3" y1="1378.4" x2="4838.4" y2="1378.4"/>
	</g>
	<polygon id="XMLID_70_" class="st4" points="2839.1,1378.3 2896.8,1345.1 2950.2,1378.3 	"/>
	<polygon id="XMLID_69_" class="st4" points="2880.3,1327 2794.5,1277.2 2820.5,1277.2 2894.7,1317.2 2950.2,1286.2 2950.2,1305.9 
		2911.8,1324 2950.2,1348.9 2950.2,1364.7 2894.7,1333 2811.1,1378.3 2788.3,1378.3 	"/>
	<polygon id="XMLID_68_" class="st4" points="2945.5,1277.2 2894.7,1305.9 2842.6,1277.2 	"/>
	<path id="XMLID_67_" class="st5" d="M2730.1,1342.5c0-0.5,0.3-1,0.8-1.3l37.2-19.1c0.2-0.1,0.5-0.2,0.7-0.2c0.3,0,0.6,0.1,0.8,0.2
		l48.8,28.7c0.5,0.3,0.7,0.8,0.7,1.3s-0.3,1-0.8,1.3l-42.3,22.2l-0.5,0.2l-4.3,2.4h-6.9l4.6-2.4l3.9-2l0.9-0.5l40.6-21.4l-45.6-26.9
		l-34.1,17.5l36.8,21.8l23.1-11.5l-25.2-16.6l-13.5,8.7l21.4,11.6c0.7,0.4,1,1.4,0.6,2.1c-0.4,0.7-1.4,1-2.2,0.6l-23.5-12.8
		c-0.5-0.3-0.7-0.8-0.8-1.3c0-0.5,0.2-1,0.7-1.3l16.5-10.6c0.5-0.3,1.3-0.3,1.8,0l28.3,18.6c0.5,0.3,0.7,0.8,0.7,1.4
		c0,0.5-0.3,1-0.8,1.2l-26.2,13.1c-0.5,0.2-1.1,0.2-1.6,0l-39.8-23.7C2730.4,1343.6,2730.1,1343.1,2730.1,1342.5z"/>
	<path id="XMLID_66_" class="st6" d="M2744.5,1298.8l48.8,28.7c0.2,0.1,0.5,0.2,0.8,0.2c0.2,0,0.5-0.1,0.7-0.2l37.2-19.1
		c0.5-0.3,0.8-0.7,0.8-1.3c0-0.5-0.3-1-0.7-1.3l-39.8-23.6c-0.5-0.3-1-0.3-1.6-0.1l-26.3,13.1c-0.5,0.2-0.8,0.7-0.8,1.2
		s0.2,1,0.7,1.3l28.2,18.7c0.5,0.3,1.3,0.4,1.8,0l16.5-10.6c0.4-0.3,0.7-0.8,0.7-1.3s-0.3-1-0.8-1.3l-23.5-12.8
		c-0.7-0.4-1.7-0.2-2.2,0.6c-0.4,0.7-0.2,1.6,0.6,2.1l21.4,11.6l-13.5,8.6l-25.2-16.6l23.1-11.5l36.8,21.8l-34,17.5l-45.6-26.9
		l39.1-20.6h-6.5l-36.5,19.2c-0.5,0.3-0.8,0.7-0.8,1.3C2743.7,1298,2744,1298.6,2744.5,1298.8z"/>
	<polygon id="XMLID_65_" class="st5" points="2615.9,1378.3 2673.5,1345.1 2726.9,1378.3 	"/>
	<polygon id="XMLID_64_" class="st5" points="2722.2,1277.2 2671.4,1305.9 2619.2,1277.2 	"/>
	<path id="XMLID_63_" class="st7" d="M2506.8,1342.5c0-0.5,0.3-1,0.8-1.3l37.2-19.1c0.2-0.1,0.5-0.2,0.7-0.2c0.3,0,0.6,0.1,0.8,0.2
		l48.8,28.7c0.5,0.3,0.7,0.8,0.7,1.3s-0.3,1-0.8,1.3l-42.8,22.5l-1.1,0.6l-3.1,1.8h-6.9l4.6-2.4l2.2-1.1l2.6-1.3l40.6-21.4
		l-45.6-26.9l-34.1,17.5l36.8,21.8l23.1-11.5l-25.2-16.6l-13.5,8.7l21.4,11.6c0.7,0.4,1,1.4,0.6,2.1c-0.4,0.7-1.4,1-2.2,0.6
		l-23.5-12.8c-0.5-0.3-0.7-0.8-0.8-1.3c0-0.5,0.2-1,0.7-1.3l16.5-10.6c0.5-0.3,1.3-0.3,1.8,0l28.3,18.6c0.5,0.3,0.7,0.8,0.7,1.4
		c0,0.5-0.3,1-0.8,1.2l-26.2,13.1c-0.5,0.2-1.1,0.2-1.6,0l-39.8-23.7C2507.1,1343.6,2506.8,1343.1,2506.8,1342.5z"/>
	<path id="XMLID_62_" class="st5" d="M2521.2,1298.8l48.8,28.7c0.2,0.1,0.5,0.2,0.8,0.2c0.2,0,0.5-0.1,0.7-0.2l37.2-19.1
		c0.5-0.3,0.8-0.7,0.8-1.3c0-0.5-0.3-1-0.7-1.3l-39.8-23.6c-0.5-0.3-1-0.3-1.6-0.1l-26.3,13.1c-0.5,0.2-0.8,0.7-0.8,1.2
		s0.2,1,0.7,1.3l28.3,18.6c0.5,0.3,1.3,0.4,1.8,0l16.5-10.6c0.4-0.3,0.7-0.8,0.7-1.3s-0.3-1-0.8-1.3l-23.5-12.8
		c-0.7-0.4-1.7-0.2-2.2,0.6c-0.4,0.7-0.2,1.6,0.6,2.1l21.4,11.6l-13.5,8.6l-25.2-16.6l23.1-11.5l36.8,21.8l-34,17.5l-45.6-26.9
		l39.1-20.6h-6.5l-36.5,19.2c-0.5,0.3-0.8,0.7-0.8,1.3C2520.4,1298,2520.7,1298.6,2521.2,1298.8z"/>
	<polygon id="XMLID_61_" class="st5" points="2570.5,1277 2596,1277 2670.1,1317.6 2682.9,1324.6 2773,1373.9 2776.1,1375.7 
		2777.8,1376.6 2776.7,1378.3 2755.6,1378.3 2670.1,1331.5 2657.4,1324.5 	"/>
	<polygon id="XMLID_60_" class="st5" points="2561.9,1376.6 2657.4,1324.5 2670.1,1317.6 2744.8,1277 2766.8,1277 2767.7,1278.4 
		2682.9,1324.6 2670.1,1331.5 2584.2,1378.3 2562.9,1378.3 	"/>
	<polygon id="XMLID_59_" class="st7" points="2389.4,1378.3 2447.1,1345.1 2500.5,1378.3 	"/>
	<polygon id="XMLID_58_" class="st7" points="2495.8,1277.2 2445,1305.9 2392.8,1277.2 	"/>
	<path id="XMLID_57_" class="st8" d="M2280.4,1342.5c0-0.5,0.3-1,0.8-1.3l37.2-19.1c0.2-0.1,0.5-0.2,0.7-0.2c0.3,0,0.6,0.1,0.8,0.2
		l48.8,28.7c0.5,0.3,0.7,0.8,0.7,1.3s-0.3,1-0.8,1.3l-42.8,22.5l-1.1,0.6l-3.1,1.8h-6.9l4.6-2.4l2.2-1.1l2.6-1.3l40.6-21.4
		l-45.6-26.9l-34.1,17.5l36.8,21.8l23.1-11.5l-25.2-16.6l-13.5,8.7l21.4,11.6c0.7,0.4,1,1.4,0.6,2.1c-0.4,0.7-1.4,1-2.2,0.6
		l-23.5-12.8c-0.5-0.3-0.7-0.8-0.8-1.3c0-0.5,0.2-1,0.7-1.3l16.5-10.6c0.5-0.3,1.3-0.3,1.8,0l28.3,18.6c0.5,0.3,0.7,0.8,0.7,1.4
		c0,0.5-0.3,1-0.8,1.2l-26.2,13.1c-0.5,0.2-1.1,0.2-1.6,0l-39.8-23.7C2280.7,1343.6,2280.4,1343.1,2280.4,1342.5z"/>
	<path id="XMLID_56_" class="st7" d="M2294.8,1298.8l48.8,28.7c0.2,0.1,0.5,0.2,0.8,0.2c0.2,0,0.5-0.1,0.7-0.2l37.2-19.1
		c0.5-0.3,0.8-0.7,0.8-1.3c0-0.5-0.3-1-0.7-1.3l-39.8-23.6c-0.5-0.3-1-0.3-1.6-0.1l-26.3,13.1c-0.5,0.2-0.8,0.7-0.8,1.2
		s0.2,1,0.7,1.3l28.3,18.6c0.5,0.3,1.3,0.4,1.8,0l16.5-10.6c0.4-0.3,0.7-0.8,0.7-1.3s-0.3-1-0.8-1.3l-23.5-12.8
		c-0.7-0.4-1.7-0.2-2.2,0.6c-0.4,0.7-0.2,1.6,0.6,2.1l21.4,11.6l-13.5,8.6l-25.2-16.6l23.1-11.5l36.8,21.8l-34,17.5l-45.6-26.9
		l39.1-20.6h-6.5l-36.5,19.2c-0.5,0.3-0.8,0.7-0.8,1.3C2294,1298,2294.2,1298.6,2294.8,1298.8z"/>
	<polygon id="XMLID_55_" class="st7" points="2344.2,1277 2431,1324.5 2443.8,1331.5 2529.2,1378.3 2541.3,1378.3 2548.1,1378.3 
		2550.3,1378.3 2551.4,1376.6 2551.3,1376.5 2548,1374.8 2456.5,1324.6 2443.8,1317.6 2369.5,1277 	"/>
	<polygon id="XMLID_54_" class="st7" points="2335.4,1376.6 2431,1324.5 2443.8,1317.6 2518.3,1277 2540.4,1277 2541.3,1278.4 
		2456.5,1324.6 2443.8,1331.5 2357.8,1378.3 2336.4,1378.3 	"/>
	<polygon id="XMLID_53_" class="st8" points="2163,1378.3 2220.6,1345.1 2274.1,1378.3 	"/>
	<polygon id="XMLID_52_" class="st8" points="2269.3,1277.2 2218.5,1305.9 2166.4,1277.2 	"/>
	<path id="XMLID_51_" class="st9" d="M2054,1342.5c0-0.5,0.3-1,0.8-1.3l37.2-19.1c0.2-0.1,0.5-0.2,0.7-0.2c0.3,0,0.6,0.1,0.8,0.2
		l48.8,28.7c0.5,0.3,0.7,0.8,0.7,1.3s-0.3,1-0.8,1.3l-42.8,22.5l-1.1,0.6l-3.1,1.8h-6.9l4.6-2.4l2.2-1.1l2.6-1.3l40.6-21.4
		l-45.6-26.9l-34.1,17.5l36.8,21.8l23.1-11.5l-25.2-16.6l-13.5,8.7l21.4,11.6c0.7,0.4,1,1.4,0.6,2.1c-0.4,0.7-1.4,1-2.2,0.6
		l-23.5-12.8c-0.5-0.3-0.7-0.8-0.8-1.3c0-0.5,0.2-1,0.7-1.3l16.5-10.6c0.5-0.3,1.3-0.3,1.8,0l28.3,18.6c0.5,0.3,0.7,0.8,0.7,1.4
		c0,0.5-0.3,1-0.8,1.2l-26.2,13.1c-0.5,0.2-1.1,0.2-1.6,0l-39.8-23.7C2054.2,1343.6,2054,1343.1,2054,1342.5z"/>
	<path id="XMLID_50_" class="st8" d="M2068.4,1298.8l48.8,28.7c0.2,0.1,0.5,0.2,0.8,0.2c0.2,0,0.5-0.1,0.7-0.2l37.2-19.1
		c0.5-0.3,0.8-0.7,0.8-1.3c0-0.5-0.3-1-0.7-1.3l-39.8-23.6c-0.5-0.3-1-0.3-1.6-0.1l-26.3,13.1c-0.5,0.2-0.8,0.7-0.8,1.2
		s0.2,1,0.7,1.3l28.2,18.7c0.5,0.3,1.3,0.4,1.8,0l16.5-10.6c0.4-0.3,0.7-0.8,0.7-1.3s-0.3-1-0.8-1.3l-23.5-12.8
		c-0.7-0.4-1.7-0.2-2.2,0.6c-0.5,0.8-0.2,1.6,0.6,2.1l21.4,11.6l-13.5,8.6l-25.2-16.6l23.1-11.5l36.8,21.8l-34,17.5l-45.6-26.9
		l39.1-20.6h-6.5l-36.5,19.2c-0.5,0.3-0.8,0.7-0.8,1.3C2067.5,1298,2067.8,1298.6,2068.4,1298.8z"/>
	<polygon id="XMLID_49_" class="st8" points="2117.7,1277 2143.1,1277 2217.3,1317.6 2230,1324.6 2321.6,1374.8 2324.8,1376.5 
		2324.9,1376.6 2323.8,1378.3 2302.7,1378.3 2217.3,1331.5 2204.5,1324.5 	"/>
	<polygon id="XMLID_48_" class="st8" points="2292,1277 2217.3,1317.6 2204.5,1324.5 2109,1376.6 2110,1378.3 2131.4,1378.3 
		2217.3,1331.5 2230,1324.6 2314.8,1278.4 2313.9,1277 	"/>
	<polygon id="XMLID_47_" class="st9" points="1936.6,1378.3 1994.2,1345.1 2047.6,1378.3 	"/>
	<polygon id="XMLID_46_" class="st9" points="2042.9,1277.2 1992.1,1305.9 1939.9,1277.2 	"/>
	<path id="XMLID_45_" class="st4" d="M1827.5,1342.5c0-0.5,0.3-1,0.8-1.3l37.2-19.1c0.2-0.1,0.5-0.2,0.7-0.2c0.3,0,0.6,0.1,0.8,0.2
		l48.8,28.7c0.5,0.3,0.7,0.8,0.7,1.3s-0.3,1-0.8,1.3l-42.8,22.5l-4.3,2.4h-6.9l4.6-2.4l0.6-0.3l4.2-2.2l40.6-21.4l-45.6-26.9
		l-34.1,17.5l36.8,21.8l23.1-11.5l-25.2-16.6l-13.5,8.7l21.4,11.6c0.7,0.4,1,1.4,0.6,2.1s-1.4,1-2.2,0.6l-23.5-12.8
		c-0.5-0.3-0.7-0.8-0.8-1.3c0-0.5,0.2-1,0.7-1.3l16.5-10.6c0.5-0.3,1.3-0.3,1.8,0l28.3,18.6c0.5,0.3,0.7,0.8,0.7,1.4
		c0,0.5-0.3,1-0.8,1.2l-26.2,13.1c-0.5,0.2-1.1,0.2-1.6,0l-39.8-23.7C1827.8,1343.6,1827.5,1343.1,1827.5,1342.5z"/>
	<path id="XMLID_44_" class="st9" d="M1841.9,1298.8l48.8,28.7c0.2,0.1,0.5,0.2,0.8,0.2c0.2,0,0.5-0.1,0.7-0.2l37.2-19.1
		c0.5-0.3,0.8-0.7,0.8-1.3c0-0.5-0.3-1-0.7-1.3l-39.8-23.6c-0.5-0.3-1-0.3-1.6-0.1l-26.3,13.1c-0.5,0.2-0.8,0.7-0.8,1.2
		s0.2,1,0.7,1.3l28.3,18.6c0.5,0.3,1.3,0.4,1.8,0l16.5-10.6c0.4-0.3,0.7-0.8,0.7-1.3s-0.3-1-0.8-1.3l-23.5-12.8
		c-0.7-0.4-1.7-0.2-2.2,0.6c-0.4,0.7-0.2,1.6,0.6,2.1l21.4,11.6l-13.5,8.6l-25.2-16.6l23.1-11.5l36.8,21.8l-34,17.5l-45.6-26.9
		l39.1-20.6h-6.5l-36.5,19.2c-0.5,0.3-0.8,0.7-0.8,1.3C1841.1,1298,1841.5,1298.6,1841.9,1298.8z"/>
	<polygon id="XMLID_43_" class="st9" points="1891.3,1277 1916.7,1277 1990.9,1317.6 2003.6,1324.6 2095.1,1374.8 2098.4,1376.5 
		2098.5,1376.6 2097.4,1378.3 2076.3,1378.3 1990.9,1331.5 1978.1,1324.5 	"/>
	<polygon id="XMLID_42_" class="st9" points="1882.6,1376.6 1978.1,1324.5 1990.9,1317.6 2065.6,1277 2087.5,1277 2088.4,1278.4 
		2003.6,1324.6 1990.9,1331.5 1904.9,1378.3 1883.5,1378.3 	"/>
	<polygon id="XMLID_41_" class="st4" points="1706.9,1378.3 1764.6,1345.1 1818.1,1378.3 	"/>
	<polygon id="XMLID_40_" class="st4" points="1813.3,1277.2 1762.5,1305.9 1710.4,1277.2 	"/>
</g>
<line id="XMLID_3_" class="st11" x1="2307.4" y1="410.4" x2="2331.7" y2="410.4"/>
<line id="XMLID_2_" class="st11" x1="2257.3" y1="410.4" x2="2278.4" y2="410.4"/>
<g>
	<path id="XMLID_6582_" class="st1" d="M4122,185.2c0,8.5,0.1,15.4,0,22.2c-0.2,6.6-1.5,8.3-6.2,8.5c-5,0.2-8.1-2.2-9.1-7.4
		c-0.7-4-1.2-8-1.4-12.1c-1.1-24-2.1-48-3.1-72c-0.1-1.9,0-3.7,0.2-5.6c0.3-3.6,2.5-5.6,6.1-5.9c3.8-0.3,5.8,1.7,6.3,5.4
		c0.9,6.8,1.8,13.6,2.7,20.4c0.2,1.2,0.5,2.4,1.3,6c4.2-9.8,7.6-17.6,10.8-25.5c1.5-3.5,3.3-5.9,7.7-4.9c3.9,0.9,6.3,3.1,5.8,7.2
		c-0.4,3.4-1.2,6.8-2.4,9.9c-3.4,9.1-6.8,18.1-10.7,27c-2.4,5.4-2,10.2,0.7,15.2c5.1,9.5,11.9,17.5,20.4,24.1
		c2.5,1.9,5.6,3.8,3.4,7.5c-1.8,3.1-5.3,3.6-8.3,2.2c-3.6-1.7-7.2-3.7-10.1-6.4C4131.4,196.3,4127.4,191.2,4122,185.2z"/>
	<path id="XMLID_6572_" class="st1" d="M4277.9,207.9c-2.5,0.9-5,1.8-7.6,2.5c-4.2,1.1-8.3,2.7-12.6,3c-11.7,0.7-18.1-5.9-17.5-17.7
		c0.7-13.4,6-25.2,15.8-33.9c7.3-6.5,9.9-13.3,9.2-22.7c-0.5-6.8,0.4-13.7,0.7-20.5c0.1-3.5-0.1-7.2,4.7-7.8
		c3.9-0.5,7.7,2.1,8.5,6.9c1,5.2,1.4,10.5,1.6,15.8c0.7,14.3,0.9,28.7,1.8,43c0.4,5.9,1.9,11.7,2.9,17.5c0.4,2.1,0.9,4.3,1.1,6.4
		C4287,207.8,4285.7,209,4277.9,207.9z M4266.6,172.6c-8.8,10.4-12,20.3-9.7,28.6c5-2.3,11.2-3.6,11.6-10.4
		C4268.8,185.3,4267.4,179.8,4266.6,172.6z"/>
	<path id="XMLID_6568_" class="st1" d="M4213.3,164.1c-5.7,2.7-6.6,7.1-7.3,11.2c-1.5,8.9-2.5,17.9-4,26.8c-0.6,3.7-1.3,7.5-6,8.4
		c-5,0.9-8.6-1.4-9.1-6.7c-0.7-6.5-0.9-13.1-1.1-19.6c-0.2-8.1-0.3-16.2-0.3-24.3c0.1-8.5,1.9-9.7,10.2-7.7c0.9,0.2,1.8,0.5,4.6,1.4
		c0.5-0.9,1.2-2.6,2.3-4.1c5.3-7.2,15.1-6.1,19.9,0.9c3.1,4.5,5.5,9.9,6.6,15.2c2.2,10.6,3.6,21.5,4.9,32.3c0.8,6.6-0.4,8.5-4.8,9.5
		c-4.6,1.1-9.2-1.6-10.4-7.1c-1.7-7.9-2.3-16-3.5-24C4214.8,172.4,4214.1,168.6,4213.3,164.1z"/>
	<path id="XMLID_6567_" class="st1" d="M4307,151.2c0.9-1.3,1.7-3,3-4.3c6.3-6,14.3-6,19.3,1c3.3,4.7,5.8,10.5,7,16.1
		c2.2,10.3,3.4,20.9,4.6,31.5c0.8,6.5-0.5,8.6-4.8,9.4c-4.8,1-9.2-1.5-10.3-7.1c-1.7-8.5-2.5-17.3-3.8-25.9
		c-0.5-3.2-1.1-6.4-1.9-10.3c-5.8,3.3-6.7,8.1-7.5,12.5c-1.5,8.6-2.4,17.3-3.9,25.9c-0.5,2.6-1.6,5.7-3.5,7.3
		c-4,3.4-10.8,0.5-11.1-5.1c-0.9-15.9-1.3-31.8-1.3-47.7c0-4.9,2.8-6.3,7.6-5.4C4302.3,149.5,4304,150.3,4307,151.2z"/>
	<path id="XMLID_6559_" class="st1" d="M4363.2,186.6c1.4,7.3,6.8,9.4,12.9,10.3c7.2,1.2,10.6,3.3,9.5,6.4
		c-1.6,4.8-6.2,4.5-10.2,4.7c-12.3,0.5-21.8-5.9-25.7-17.6c-4.4-13.2-3.3-25.8,5.3-37.3c4.7-6.3,10.9-10.2,18.9-10.8
		c9.9-0.7,16.8,6.8,15.1,16.6c-2.1,12-8.3,20.7-20.1,24.7c-1.5,0.5-2.9,1-4.4,1.6C4364.2,185.4,4364,185.7,4363.2,186.6z
		 M4374.3,155.1c-5.7,4.1-9.2,7.5-9,14.3C4370.5,165.9,4373.1,161.9,4374.3,155.1z"/>
	<path id="XMLID_6558_" class="st1" d="M4407,177.1c6.7-0.4,12.1-0.8,17.6-1c10.2-0.3,15.7,10.6,9.4,19.3
		c-5.1,7-11.6,12.3-20.4,13.5c-8.1,1.1-12.1-3.2-10.7-10.9c10.3-1.7,10.3-1.7,17.2-9.1c-4.9,0.8-8.3,1.3-11.7,1.9
		c-13.7,2.5-20.4-5.3-15.7-18.5c4.8-13.5,13.8-23.5,26.6-29.9c4.9-2.5,10.2-3.4,15,0c1.7,1.2,3,4,3.1,6.1c0.1,1-3,2.7-4.8,3.1
		C4418.8,154.7,4413.2,165.5,4407,177.1z"/>
	<path id="XMLID_6557_" class="st1" d="M4460.5,176.4c6.3-0.7,10.9-1.4,15.4-1.7c6-0.3,11.4,1.3,13.9,7.3c2.5,5.9,0.3,11.4-4.2,15.2
		c-4.7,3.9-9.9,7.4-15.4,10.1c-4.5,2.2-9.4,1-12.7-3c-1.2-1.4-1.8-4-1.4-5.8c0.2-1,2.9-2.2,4.4-2.2c5.9,0,9.6-3.2,12.6-8.4
		c-4.1,0.7-8.3,1.5-12.4,2.1c-11.4,1.6-17.7-4.9-14.6-16c4.5-15.9,14.9-27.2,30.1-33.7c6-2.6,11.4-1,14.3,3.2
		c2.3,3.3,1.4,6.2-2.6,6.9C4473.2,152.6,4467.8,164.2,4460.5,176.4z"/>
	<path id="XMLID_6541_" class="st1" d="M4163.4,185.1c0-5-0.2-9.9,0.1-14.9c0.2-3.1,0.7-6.4,4.9-6.7c4.2-0.3,7.3,1.4,8.7,5.4
		c0.5,1.4,0.6,3,0.8,4.6c1.2,10.5,2.4,21,3.6,31.4c0.8,7.2-0.2,9.5-4.5,10.4c-5.5,1.1-10.6-1.9-11.6-8c-1.2-7.3-1.5-14.8-2.2-22.2
		C4163.3,185.1,4163.4,185.1,4163.4,185.1z"/>
	<path id="XMLID_6380_" class="st1" d="M4169.2,141.8c4.7,0.1,8.4,3.7,8.3,8.3c0,4.1-2.9,7-7.1,7.1c-4.7,0.2-7.3-3.1-7.2-8.8
		C4163.4,143.6,4165.1,141.7,4169.2,141.8z"/>
</g>
</svg>
