<svg width="3480" height="1393" viewBox="0 0 3480 1393" fill="none" xmlns="http://www.w3.org/2000/svg">
<g clip-path="url(#clip0)">
<path d="M614.77 1194.62C607.77 1198.21 555.51 1080.33 555.51 1080.33L637.66 953.05L730.3 1076.11C730.3 1076.11 717.83 1081.69 699.38 1123.71C692.03 1140.45 648.59 1131.4 635.95 1146.25C625.05 1159.07 630.55 1186.58 614.77 1194.62Z" fill="#E9E9E9"/>
<path d="M607.69 1017.64C607.69 1057.56 592.43 1086.72 568.21 1107.49C520.7 1148.22 478.99 1156.68 409.94 1150.76C305.69 1141.82 175.78 1075.84 183.57 985.33C191.36 894.82 359.32 845.9 488.77 857.33C556.02 864.66 617.23 922.54 657.87 976.6L712.87 1053.51" fill="#E9E9E9"/>
<path opacity="0.6" d="M352.11 865.68C352.11 865.68 513.18 840.68 596.96 935.44L725.45 1104.25L730.3 1076.11C730.3 1076.11 636.3 914.43 539.3 872.7C539.31 872.7 508.59 842.58 352.11 865.68Z" fill="white"/>
<path opacity="0.08" d="M572.91 1005.26C572.91 1069.46 528.98 1126.32 419.22 1126.32C326.74 1126.32 200.84 1058.8 200.84 994.6C200.84 930.4 335.45 884.2 427.92 884.2C520.39 884.2 572.91 941.07 572.91 1005.26Z" fill="#4A4A4A"/>
<path d="M582.42 1134.07L614.77 1194.62L636 1146.25L699.43 1123.71L750.66 1098.22L657.92 976.62C617.23 922.56 556 864.68 488.77 857.35C359.32 845.9 191.36 894.83 183.57 985.35C177.17 1109.94 386.3 1148.75 409.94 1150.78C478.99 1156.7 520.7 1148.24 568.21 1107.51C592.43 1086.74 607.69 1057.58 607.69 1017.66" stroke="#4A4A4A" stroke-width="2" stroke-linecap="round" stroke-linejoin="round"/>
<path d="M568.21 1108.38L579.44 1128.5" stroke="#4A4A4A" stroke-width="2" stroke-linecap="round" stroke-linejoin="round"/>
<path d="M465.05 896.61C531.24 907.06 568.21 953.32 568.21 1004.75C568.21 1063.26 528.21 1115.09 428.13 1115.09C343.84 1115.09 229.13 1053.55 229.13 995.03C229.13 936.51 351.81 894.41 436.13 894.41C445.84 894.384 455.536 895.12 465.13 896.61" fill="#F4F4F4"/>
<path opacity="0.08" d="M579.44 1128.5L568.21 1107.48L588.39 1085.05L603.93 1049.84L661.25 1139.85L635.96 1146.25L614.77 1194.62L582.77 1134.74" fill="#4A4A4A"/>
<path opacity="0.6" d="M267.58 943.42C277.69 973.72 316.85 1086.31 316.85 1086.31C316.85 1086.31 388.38 1115.09 415.4 1112.62C398.65 1068.71 337.17 912.29 337.17 912.29C337.17 912.29 281.87 929.76 267.58 943.42Z" fill="white"/>
<path opacity="0.6" d="M401.09 900C421.54 957.23 456.77 1053.18 479.38 1107.35C497.12 1106.99 533.44 1083.51 543.76 1069.16C528.49 1025.16 497.12 940.91 483.94 903.25C465.05 896.61 423.87 895.05 401.09 900Z" fill="white"/>
<path opacity="0.08" d="M463.8 898.67C454.391 897.209 444.882 896.487 435.36 896.51C429.18 896.51 422.78 896.77 416.25 897.22C423.951 897.376 431.633 898.027 439.25 899.17C504.19 909.42 540.47 954.82 540.47 1005.28C540.47 1058.96 506.11 1106.9 421.39 1112.9C423.47 1112.97 425.56 1113.04 427.6 1113.04C525.77 1113.04 565.05 1062.19 565.05 1004.78C565 954.31 528.74 908.92 463.8 898.67Z" fill="#4A4A4A"/>
<path d="M337.11 1094.06C280.55 1071.71 232.27 1032.84 232.27 995.24C232.27 937.83 352.65 896.51 435.36 896.51C444.085 896.491 452.8 897.092 461.44 898.31" stroke="#4A4A4A" stroke-width="2" stroke-linecap="round" stroke-linejoin="round"/>
<path d="M348.27 1098.22C346.9 1097.74 345.53 1097.22 344.17 1096.75" stroke="#4A4A4A" stroke-width="2" stroke-linecap="round" stroke-linejoin="round"/>
<path d="M461.44 898.31C527.87 907.83 565 953.71 565 1004.78C565 1062.19 525.72 1113.04 427.55 1113.04C404.17 1113.04 378.39 1108.21 353.44 1099.98" stroke="#4A4A4A" stroke-width="2" stroke-linecap="round" stroke-linejoin="round"/>
<path d="M2862.8 1194.66C2869.8 1198.25 2922.06 1080.37 2922.06 1080.37L2839.91 953.09L2747.26 1076.15C2747.26 1076.15 2759.74 1081.73 2778.19 1123.75C2785.53 1140.49 2828.97 1131.44 2841.61 1146.29C2852.52 1159.11 2847 1186.62 2862.8 1194.66Z" fill="#E9E9E9"/>
<path d="M2869.88 1017.68C2869.88 1057.6 2885.13 1086.76 2909.36 1107.53C2956.87 1148.26 2998.57 1156.72 3067.63 1150.8C3171.88 1141.86 3301.79 1075.88 3294 985.37C3286.21 894.86 3118.25 845.94 2988.79 857.37C2921.55 864.69 2860.34 922.57 2819.7 976.63L2764.7 1053.54" fill="#E9E9E9"/>
<path opacity="0.6" d="M3125.45 865.72C3125.45 865.72 2964.39 840.67 2880.6 935.48L2752.12 1104.29L2747.26 1076.15C2747.26 1076.15 2841.26 914.47 2938.26 872.74C2938.26 872.74 2969 842.62 3125.45 865.72Z" fill="white"/>
<path opacity="0.08" d="M2904.65 1005.3C2904.65 1069.5 2948.59 1126.36 3058.35 1126.36C3150.82 1126.36 3276.73 1058.84 3276.73 994.64C3276.73 930.44 3142.12 884.25 3049.64 884.25C2957.16 884.25 2904.65 941.11 2904.65 1005.3Z" fill="#4A4A4A"/>
<path d="M2906.39 1113.08L2862.8 1194.66L2841.61 1146.29L2778.19 1123.75L2730.36 1092.21L2819.7 976.66C2860.34 922.6 2921.55 864.72 2988.79 857.4C3118.25 845.94 3286.21 894.87 3294 985.4C3291.87 1116.71 3091.27 1148.8 3067.63 1150.83C2998.57 1156.75 2956.87 1148.29 2909.36 1107.56C2885.13 1086.79 2869.88 1057.63 2869.88 1017.71" stroke="#4A4A4A" stroke-width="2" stroke-linecap="round" stroke-linejoin="round"/>
<path d="M3012.52 896.65C2946.33 907.1 2909.36 953.36 2909.36 1004.79C2909.36 1063.3 2949.36 1115.13 3049.44 1115.13C3133.73 1115.13 3248.44 1053.59 3248.44 995.07C3248.44 936.55 3125.75 894.45 3041.44 894.45C3031.73 894.424 3022.03 895.16 3012.44 896.65" fill="#F4F4F4"/>
<path opacity="0.08" d="M2873.64 1049.88L2816.32 1139.88L2841.61 1146.29L2862.8 1194.66L2909.36 1107.53L2889.18 1085.09L2873.64 1049.88Z" fill="#4A4A4A"/>
<path opacity="0.6" d="M3210 943.46C3199.89 973.76 3160.73 1086.35 3160.73 1086.35C3160.73 1086.35 3089.2 1115.13 3062.17 1112.66C3078.93 1068.75 3140.41 912.33 3140.41 912.33C3140.41 912.33 3195.69 929.8 3210 943.46Z" fill="white"/>
<path opacity="0.6" d="M3076.48 900C3056.03 957.23 3020.8 1053.18 2998.19 1107.35C2980.45 1106.99 2944.12 1083.51 2933.81 1069.16C2949.08 1025.16 2980.45 940.91 2993.63 903.25C3012.52 896.65 3053.7 895.09 3076.48 900Z" fill="white"/>
<path opacity="0.08" d="M3013.77 898.71C3023.18 897.249 3032.69 896.527 3042.21 896.55C3048.38 896.55 3054.79 896.81 3061.32 897.26C3053.62 897.433 3045.94 898.101 3038.32 899.26C2973.38 909.51 2937.1 954.91 2937.1 1005.37C2937.1 1059.05 2971.46 1106.99 3056.18 1112.99C3054.09 1113.06 3052.01 1113.13 3049.96 1113.13C2951.8 1113.13 2912.51 1062.28 2912.51 1004.87C2912.54 954.35 2948.83 909 3013.77 898.71Z" fill="#4A4A4A"/>
<path d="M3179.19 926.35C3138.08 907.66 3085.08 896.55 3042.19 896.55C3033.46 896.531 3024.74 897.132 3016.1 898.35" stroke="#4A4A4A" stroke-width="2" stroke-linecap="round" stroke-linejoin="round"/>
<path d="M3016.12 898.35C2949.7 907.87 2912.54 953.75 2912.54 1004.82C2912.54 1062.23 2951.83 1113.08 3049.99 1113.08C3132.7 1113.08 3245.29 1052.69 3245.29 995.28C3245.29 969.68 3221.36 947.28 3187.49 930.28" stroke="#4A4A4A" stroke-width="2" stroke-linecap="round" stroke-linejoin="round"/>
<path d="M834.79 1289.75C834.79 1176.21 974.5 1073.88 1146.79 1073.88H1147.11L1145.62 1026.06C1137.26 1025.62 1122.51 1022.22 1104.49 1015.84C1042.69 993.837 989.262 953.159 951.61 899.44C872 786.33 475.12 113.25 408.39 0H0V165L68 211.39C68 211.39 486.68 545.5 740.15 893.48C795.15 968.96 855.86 1061.04 765.37 1084.05L80.05 1233.39V1417.45H1157.75L1157.03 1394.45H857.34C835.58 1363.16 834.79 1289.75 834.79 1289.75Z" fill="#F7F7F7"/>
<path d="M2606.68 964.991C2628.47 932.791 2634.36 898.713 2619.82 888.876C2605.29 879.038 2575.84 897.166 2554.04 929.366C2532.25 961.565 2526.37 995.643 2540.9 1005.48C2555.44 1015.32 2584.89 997.19 2606.68 964.991Z" fill="#ECECEC"/>
<path d="M834.79 1289.75C834.79 1223.91 881.79 1161.84 954.84 1121.31C924.98 1093.45 864.28 1057.12 765.37 1084.05L0 1251.46V1417.46H1038.08L1033.25 1394.46H857.34C835.58 1363.16 834.79 1289.75 834.79 1289.75Z" fill="#F7F7F7"/>
<path d="M3411.07 211.42C3411.07 211.42 2992.42 545.5 2739 893.48C2684 968.96 2623.28 1061.04 2713.77 1084.05L3399.1 1233.39V1417.45H2321.35L2333.53 1026.07C2341.89 1025.63 2356.64 1022.23 2374.66 1015.85C2436.44 993.838 2489.85 953.156 2527.49 899.44C2607.08 786.33 2992.09 133.26 3058.82 20.0098H3408.73L3411.07 211.42Z" fill="#F7F7F7"/>
<path opacity="0.6" d="M2424.43 993.13C2424.43 993.13 2469.26 988.71 2548.74 891.37L3005.14 144.16L3085.57 0H3070.71L2561.48 847.49L2510.76 921.17L2464.76 966.02L2424.43 993.13Z" fill="white"/>
<path opacity="0.6" d="M1054.68 993.13C1054.68 993.13 1009.84 988.71 930.36 891.37L474 144.16L393.54 0H408.39L917.62 847.49L968.34 921.17L1014.34 966.02L1054.68 993.13Z" fill="white"/>
<path d="M2501.63 1147.82C2501.63 1147.82 2563.76 1043.21 2713.73 1084.05L3479.1 1251.46V1417.46H2441L2493.61 1166.28L2501.63 1147.82Z" fill="#F7F7F7"/>
<path d="M2594.8 1214.46L3267.05 1392.55H2563.9L2594.8 1214.46Z" fill="#ECECEC"/>
<path d="M3047 1291.14H3046.95C3046.11 1290.58 3045.25 1290.03 3044.39 1289.48L3044.05 1289.27L3041.69 1287.81L3041.25 1287.54C3040.46 1287.06 3039.66 1286.54 3038.85 1286.12L3038.47 1285.89C3037.56 1285.36 3036.64 1284.89 3035.71 1284.32H3035.66C3033.73 1283.24 3031.76 1282.19 3029.75 1281.16L3029.29 1280.93C3028.48 1280.51 3027.66 1280.1 3026.84 1279.69L3026.03 1279.3L3023.86 1278.3L3022.86 1277.86L3020.75 1276.86L3019.75 1276.42L3017.55 1275.42L3016.65 1275.03L3013.97 1273.91L3013.52 1273.72C3012.46 1273.28 3011.39 1272.85 3010.31 1272.43L3009.65 1272.18L3007.11 1271.18L3006 1270.77L3003.86 1269.99L3002.6 1269.55L3000.55 1268.84L2999.24 1268.4L2997.16 1267.72L2995.88 1267.31L2993.59 1266.61L2992.49 1266.27L2989.09 1265.27L2985.68 1264.34L2984.56 1264.05L2982.24 1263.46L2980.94 1263.14L2978.8 1262.63L2977.46 1262.33L2975.34 1261.86L2974.04 1261.58C2973.29 1261.42 2972.55 1261.27 2971.8 1261.13L2970.65 1260.9L2967.98 1260.4L2967.28 1260.27C2966.14 1260.07 2965 1259.88 2963.86 1259.7L2963.42 1259.63L2960.51 1259.18L2959.51 1259.05L2957.11 1258.73L2956.05 1258.6L2953.74 1258.32L2952.74 1258.21C2951.94 1258.12 2951.14 1258.04 2950.34 1257.97L2949.45 1257.89C2948.53 1257.8 2947.6 1257.73 2946.68 1257.65H2946.21C2943.95 1257.48 2941.71 1257.35 2939.5 1257.26C2938.44 1257.26 2937.37 1257.19 2936.31 1257.17H2935.88H2933.08H2932.57H2929.79H2929.4C2928.4 1257.17 2927.34 1257.17 2926.33 1257.25C2885.86 1258.6 2854.5 1273.91 2847.28 1299.55C2836.6 1337.55 2882.82 1383.7 2950.51 1402.75C3018.2 1421.8 3081.72 1406.48 3092.4 1368.53C3099.59 1342.81 3080.81 1313.39 3047 1291.14Z" fill="#ECECEC"/>
<path d="M3479.1 165C3452.96 179.24 3411.1 211.39 3411.1 211.39C3411.1 211.39 2992.42 545.5 2739 893.48C2684 968.96 2623.28 1061.04 2713.77 1084.05L3479.14 1251.46L3484.48 1227.04L2726.65 1065.37C2712.21 1061.64 2703.55 1056.02 2700.89 1048.66C2698.69 1042.55 2690.33 1021.84 2706.63 989.5C2719.75 963.5 2739.63 935.05 2759.21 908.2C2888.88 730.2 3063.31 555.63 3186.8 440.56C3318.24 318.1 3421.42 235.19 3426.51 231.11C3429.51 228.81 3467.84 199.65 3491.1 186.99L3479.1 165Z" fill="#ECECEC"/>
<path d="M2759.17 908.2C2888.84 730.2 3063.27 555.63 3186.76 440.56C3318.2 318.1 3421.38 235.19 3426.47 231.11C3429.47 228.81 3467.8 199.65 3491.06 186.99" stroke="#4A4A4A" stroke-width="2" stroke-linecap="round" stroke-linejoin="round"/>
<path d="M3123.2 1150L2726.61 1065.39C2712.17 1061.66 2703.51 1056.04 2700.85 1048.68C2698.65 1042.57 2690.29 1021.86 2706.59 989.52C2717.66 967.52 2733.59 943.9 2749.99 920.92" stroke="#4A4A4A" stroke-width="2" stroke-linecap="round" stroke-linejoin="round"/>
<path d="M3484.44 1227.04L3138.54 1153.25" stroke="#4A4A4A" stroke-width="2" stroke-linecap="round" stroke-linejoin="round"/>
<path d="M2847 377.59C2847 377.59 2885.18 533 3034.87 552.87C3034.87 552.87 3393.4 199.87 3479.1 171.2V0H3070.36C3070.36 0 2997.83 123.37 2847 377.59Z" fill="#F7F7F7"/>
<path d="M3411.07 211.42C3411.07 211.42 2992.42 545.5 2739 893.48C2684 968.96 2623.28 1061.04 2713.77 1084.05L3479.14 1251.46V1283L2707.48 1104.23C2675.83 1096.15 2646.39 1083.91 2637.75 1059.95C2619.43 1009.15 2672.3 932.57 2718.75 868.74C2777.16 788.55 2849.11 702.52 2932.63 613.02C2999.28 541.59 3073.43 467.78 3153.02 393.64C3288.5 267.45 3397.9 182.89 3399 182.05L3479.14 125.05V165.05L3411.14 211.44" fill="#ECECEC"/>
<path d="M2575.85 825.23C2706.69 617.37 3001.24 117.73 3058.85 20.0098L3070.39 0.00976562" stroke="#4A4A4A" stroke-width="2" stroke-linecap="round" stroke-linejoin="round"/>
<path d="M2570.26 834.1L2572.51 830.53" stroke="#4A4A4A" stroke-width="2" stroke-linecap="round" stroke-linejoin="round"/>
<path d="M2411.29 1000.18C2457.69 976.629 2497.6 942.034 2527.49 899.44C2536.49 886.69 2549.31 867.08 2565.15 842.15" stroke="#4A4A4A" stroke-width="2" stroke-linecap="round" stroke-linejoin="round"/>
<path d="M2575.71 1164.77C2575.71 1164.77 2572.5 1060.43 2674.71 1070.55" stroke="#4A4A4A" stroke-width="2" stroke-linecap="round" stroke-linejoin="round"/>
<path opacity="0.6" d="M3479.1 165C3479.1 165 3034 484 2739 893.48C2684 968.96 2623.28 1061.04 2713.77 1084.05L3479.14 1251.46L3479.1 165Z" fill="white"/>
<path d="M2962.76 627.46C3183.76 392.79 3411.07 211.46 3411.07 211.46C3411.07 211.46 3452.96 179.31 3479.07 165.07" stroke="#4A4A4A" stroke-width="2" stroke-linecap="round" stroke-linejoin="round"/>
<path d="M2827.33 1108.9L2713.73 1084.05C2623.24 1061 2684 969 2739 893.48C2803.49 804.93 2878.69 717.29 2955 635.81" stroke="#4A4A4A" stroke-width="2" stroke-linecap="round" stroke-linejoin="round"/>
<path d="M3323.37 1217.4L2842.94 1112.31" stroke="#4A4A4A" stroke-width="2" stroke-linecap="round" stroke-linejoin="round"/>
<path d="M3479.1 1251.46L3341.3 1221.32" stroke="#4A4A4A" stroke-width="2" stroke-linecap="round" stroke-linejoin="round"/>
<path opacity="0.08" d="M3071.19 1362.57C3080.01 1331.23 3041.84 1293.06 2985.92 1277.32C2930 1261.58 2877.52 1274.24 2868.7 1305.58C2859.88 1336.93 2898.05 1375.09 2953.97 1390.83C3009.89 1406.57 3062.37 1393.92 3071.19 1362.57Z" fill="#4A4A4A"/>
<path opacity="0.08" d="M3067.29 1355.12C3069.41 1352.07 3070.48 1348.4 3070.35 1344.69C3070.21 1340.97 3068.87 1337.4 3066.53 1334.51C3051.69 1316.14 3025.37 1299.63 2993.15 1290.51C2963.28 1282.1 2934.4 1281.8 2912.62 1288.12C2909.09 1289.12 2905.69 1290.51 2902.47 1292.27C2860.73 1315.51 2942.33 1351.94 2973.4 1360.69C3005.62 1369.75 3036.69 1369.39 3058.93 1361.45" fill="#4A4A4A"/>
<path d="M3059.92 1341.76C3062.04 1338.71 3063.12 1335.04 3062.98 1331.33C3062.84 1327.61 3061.5 1324.04 3059.16 1321.15C3044.32 1302.78 3018 1286.27 2985.78 1277.15C2955.91 1268.75 2927.03 1268.45 2905.26 1274.77C2901.73 1275.77 2898.32 1277.15 2895.1 1278.91C2853.37 1302.16 2934.97 1338.59 2966.04 1347.33C2998.26 1356.4 3029.33 1356.03 3051.56 1348.1" fill="#F7F7F7"/>
<path d="M3059.92 1341.76C3062.04 1338.71 3063.12 1335.04 3062.98 1331.33C3062.84 1327.61 3061.5 1324.04 3059.16 1321.15C3044.32 1302.78 3018 1286.27 2985.78 1277.15C2955.91 1268.75 2927.03 1268.45 2905.26 1274.77C2901.73 1275.77 2898.32 1277.15 2895.1 1278.91C2853.37 1302.16 2934.97 1338.59 2966.04 1347.33C2998.26 1356.4 3029.33 1356.03 3051.56 1348.1" stroke="#4A4A4A" stroke-width="2" stroke-linecap="round" stroke-linejoin="round"/>
<path opacity="0.6" d="M2937.34 1270.45C2937.34 1270.45 2861.68 1280.36 2907.53 1321.45C2907.53 1321.41 2838.24 1277.57 2937.34 1270.45Z" fill="white"/>
<path d="M2882.36 1265.54C2864.27 1272.72 2851.53 1284.28 2847.25 1299.47C2839.02 1328.74 2864.62 1362.91 2907.82 1385.76" stroke="#4A4A4A" stroke-width="2" stroke-linecap="round" stroke-linejoin="round"/>
<path d="M3082.61 1385.76C3087.18 1380.83 3090.52 1374.91 3092.37 1368.45C3099.59 1342.81 3080.81 1313.39 3047 1291.14H3046.95C3046.11 1290.58 3045.25 1290.03 3044.39 1289.48L3044.05 1289.27L3041.69 1287.81L3041.25 1287.54C3040.46 1287.06 3039.66 1286.54 3038.85 1286.12L3038.47 1285.89C3037.56 1285.36 3036.64 1284.89 3035.71 1284.32H3035.66C3033.73 1283.24 3031.76 1282.19 3029.75 1281.16L3029.29 1280.93C3028.48 1280.51 3027.66 1280.1 3026.84 1279.69L3026.03 1279.3L3023.86 1278.3L3022.86 1277.86L3020.75 1276.86L3019.75 1276.42L3017.55 1275.42L3016.65 1275.03L3013.97 1273.91L3013.52 1273.72C3012.46 1273.28 3011.39 1272.85 3010.31 1272.43L3009.65 1272.18L3007.11 1271.18L3006 1270.77L3003.86 1269.99L3002.6 1269.55L3000.55 1268.84L2999.24 1268.4L2997.16 1267.72L2995.88 1267.31L2993.59 1266.61L2992.49 1266.27L2989.09 1265.27L2985.68 1264.34L2984.56 1264.05L2982.24 1263.46L2980.94 1263.14L2978.8 1262.63L2977.46 1262.33L2975.34 1261.86L2974.04 1261.58C2973.29 1261.42 2972.55 1261.27 2971.8 1261.13L2970.65 1260.9L2967.98 1260.4L2967.28 1260.27C2966.14 1260.07 2965 1259.88 2963.86 1259.7L2963.42 1259.63L2960.51 1259.18L2959.51 1259.05L2957.11 1258.73L2956.05 1258.6L2953.74 1258.32L2952.74 1258.21C2951.94 1258.12 2951.14 1258.04 2950.34 1257.97L2949.45 1257.89C2948.53 1257.8 2947.6 1257.73 2946.68 1257.65H2946.21C2943.95 1257.48 2941.71 1257.35 2939.5 1257.26C2938.44 1257.26 2937.37 1257.19 2936.31 1257.17H2935.88H2933.08H2932.57H2929.79H2929.4C2928.4 1257.17 2927.34 1257.17 2926.33 1257.25C2918.08 1257.49 2909.85 1258.41 2901.75 1260" stroke="#4A4A4A" stroke-width="2" stroke-linecap="round" stroke-linejoin="round"/>
<path opacity="0.08" d="M2958.88 1271.73C2958.88 1271.73 3084.88 1310.73 3024.8 1353.65C3024.8 1353.65 3069.64 1353.54 3062.99 1325.65C3063 1325.65 3023.24 1275.11 2958.88 1271.73Z" fill="#4A4A4A"/>
<path d="M3059.92 1341.76C3062.04 1338.71 3063.12 1335.04 3062.98 1331.33C3062.84 1327.61 3061.5 1324.04 3059.16 1321.15C3044.32 1302.78 3018 1286.27 2985.78 1277.15C2955.91 1268.75 2927.03 1268.45 2905.26 1274.77C2901.73 1275.77 2898.32 1277.15 2895.1 1278.91C2853.37 1302.16 2934.97 1338.59 2966.04 1347.33C2998.26 1356.4 3029.33 1356.03 3051.56 1348.1" stroke="#4A4A4A" stroke-width="2" stroke-linecap="round" stroke-linejoin="round"/>
<path opacity="0.08" d="M2957.19 1258.71C2957.19 1258.71 3156.46 1313.79 3060.39 1401.08L3082.39 1393.34C3082.39 1393.34 3146.73 1299.55 2957.19 1258.71Z" fill="#4A4A4A"/>
<path d="M842.36 1244.03L252.08 1392.55H856.1L842.36 1244.03Z" fill="#ECECEC"/>
<path d="M432.11 1291.14C432.96 1290.58 433.81 1290.03 434.68 1289.48L435.01 1289.27L437.37 1287.81L437.81 1287.54L440.21 1286.12L440.6 1285.89C441.51 1285.36 442.42 1284.89 443.35 1284.32H443.4C445.333 1283.24 447.303 1282.19 449.31 1281.16L449.77 1280.93C450.58 1280.51 451.4 1280.1 452.23 1279.69L453.03 1279.3L455.2 1278.3L456.15 1277.86L458.26 1276.86L459.26 1276.42L461.47 1275.42L462.36 1275.03L465.04 1273.91L465.49 1273.72L468.7 1272.43L469.36 1272.18L471.9 1271.18L473.01 1270.77L475.15 1269.99L476.41 1269.55L478.46 1268.84L479.77 1268.4L481.85 1267.72L483.13 1267.31L485.42 1266.61L486.52 1266.27L489.92 1265.27L493.34 1264.34L494.45 1264.05L496.77 1263.46L498.07 1263.14L500.21 1262.63L501.55 1262.33L503.67 1261.86L504.97 1261.58L507.21 1261.13L508.36 1260.9L511.04 1260.4L511.74 1260.27C512.88 1260.07 514.01 1259.88 515.15 1259.7L515.59 1259.63L518.51 1259.18L519.51 1259.05L521.91 1258.73L522.97 1258.6L525.29 1258.32L526.29 1258.21L528.7 1257.97L529.58 1257.89L532.35 1257.65H532.83C535.08 1257.48 537.32 1257.35 539.53 1257.26L542.72 1257.17H543.16H545.96H546.46H549.24H549.64C550.64 1257.17 551.64 1257.17 552.71 1257.25C593.17 1258.6 624.53 1273.91 631.71 1299.55C642.39 1337.55 596.17 1383.7 528.49 1402.75C460.81 1421.8 397.27 1406.48 386.59 1368.53C379.52 1342.81 398.29 1313.39 432.11 1291.14Z" fill="#ECECEC"/>
<path d="M0.000292778 165C26.1403 179.24 68.0003 211.39 68.0003 211.39C68.0003 211.39 486.68 545.5 740.15 893.48C795.15 968.96 855.86 1061.04 765.37 1084.05L0.000292778 1251.46L-5.33971 1227L752.49 1065.33C766.93 1061.6 775.59 1055.98 778.25 1048.62C780.45 1042.51 788.81 1021.8 772.51 989.46C759.39 963.46 739.51 935.01 719.94 908.16C590.26 730.16 415.83 555.59 292.34 440.52C160.9 318.1 57.7303 235.19 52.6303 231.11C49.6303 228.81 11.3103 199.65 -11.9497 186.99L0.000292778 165Z" fill="#ECECEC"/>
<path d="M199.36 356C115.08 281.28 56.4403 234.16 52.6303 231.11C49.6303 228.81 11.3103 199.65 -11.9497 186.99" stroke="#4A4A4A" stroke-width="2" stroke-linecap="round" stroke-linejoin="round"/>
<path d="M214.28 369.33L208.61 364.26" stroke="#4A4A4A" stroke-width="2" stroke-linecap="round" stroke-linejoin="round"/>
<path d="M-5.33984 1227L752.49 1065.33C766.93 1061.6 775.59 1055.98 778.25 1048.62C780.45 1042.51 788.81 1021.8 772.51 989.46C759.39 963.46 739.51 935.01 719.94 908.16C590.26 730.16 415.83 555.59 292.34 440.52C267.93 417.78 244.49 396.4 222.48 376.64" stroke="#4A4A4A" stroke-width="2" stroke-linecap="round" stroke-linejoin="round"/>
<path d="M68 211.42C68 211.42 486.68 545.5 740.15 893.48C795.15 968.96 855.86 1061.04 765.37 1084.05L0 1251.46V1283L771.66 1104.23C803.32 1096.15 832.75 1083.91 841.39 1059.95C859.71 1009.15 806.85 932.57 760.39 868.74C702 788.57 630 702.54 546.48 613C479.82 541.57 405.67 467.76 326.08 393.62C190.61 267.45 81.2 182.89 80.14 182.05L0 125V165L68 211.39" fill="#ECECEC"/>
<path d="M975 928.9C966.621 919.546 958.798 909.709 951.57 899.44C872 786.33 487 133.26 420.28 20L408.75 0" stroke="#4A4A4A" stroke-width="2" stroke-linecap="round" stroke-linejoin="round"/>
<path d="M1067.82 1000.18C1034.41 983.26 1004.28 960.537 978.82 933.07" stroke="#4A4A4A" stroke-width="2" stroke-linecap="round" stroke-linejoin="round"/>
<path d="M891.33 1083.79C859.33 1073.26 817.68 1069.79 765.33 1084.05" stroke="#4A4A4A" stroke-width="2" stroke-linecap="round" stroke-linejoin="round"/>
<path opacity="0.6" d="M0 165C0 165 445.15 484 740.15 893.48C795.15 968.96 855.86 1061.04 765.37 1084.05L0 1251.46V165Z" fill="white"/>
<path d="M417.21 525.85C232.23 342.44 68 211.42 68 211.42C68 211.42 26.14 179.27 0 165" stroke="#4A4A4A" stroke-width="2" stroke-linecap="round" stroke-linejoin="round"/>
<path d="M702.83 1097.73L765.37 1084.05C855.86 1061.05 795.12 968.96 740.15 893.48C649.15 768.59 536.94 645.48 430.41 538.99" stroke="#4A4A4A" stroke-width="2" stroke-linecap="round" stroke-linejoin="round"/>
<path d="M0 1251.46L693.57 1099.76" stroke="#4A4A4A" stroke-width="2" stroke-linecap="round" stroke-linejoin="round"/>
<path opacity="0.08" d="M525.324 1390.67C581.241 1374.93 619.418 1336.76 610.596 1305.41C601.773 1274.07 549.292 1261.42 493.375 1277.16C437.459 1292.89 399.281 1331.06 408.104 1362.41C416.926 1393.75 469.408 1406.4 525.324 1390.67Z" fill="#4A4A4A"/>
<path opacity="0.08" d="M411.82 1355.12C409.698 1352.07 408.623 1348.41 408.758 1344.69C408.894 1340.97 410.231 1337.4 412.57 1334.51C427.41 1316.14 453.73 1299.63 485.95 1290.51C515.82 1282.1 544.71 1281.8 566.48 1288.12C570.011 1289.12 573.419 1290.51 576.64 1292.27C618.37 1315.51 536.77 1351.94 505.7 1360.69C473.48 1369.75 442.41 1369.39 420.17 1361.45" fill="#4A4A4A"/>
<path d="M419.18 1341.76C417.059 1338.71 415.986 1335.04 416.123 1331.33C416.261 1327.61 417.6 1324.04 419.94 1321.15C434.78 1302.78 461.1 1286.27 493.32 1277.15C523.19 1268.75 552.07 1268.45 573.85 1274.77C577.382 1275.79 580.787 1277.21 584 1279C625.74 1302.25 544.14 1338.68 513.07 1347.42C480.85 1356.49 449.78 1356.12 427.54 1348.19" fill="#F7F7F7"/>
<path opacity="0.6" d="M541.76 1270.45C541.76 1270.45 617.42 1280.36 571.58 1321.45C571.58 1321.41 640.87 1277.57 541.76 1270.45Z" fill="white"/>
<path d="M571.28 1385.76C614.48 1362.91 640.09 1328.76 631.85 1299.47C627.58 1284.28 614.85 1272.72 596.74 1265.54C596.74 1265.54 582.23 1258.71 552.81 1257.17C551.81 1257.17 550.81 1257.11 549.74 1257.09H549.34H546.56H546H543.2H542.76L539.57 1257.18C537.36 1257.27 535.12 1257.4 532.87 1257.57H532.39L529.62 1257.81L528.74 1257.89L526.33 1258.13L525.33 1258.24L523.01 1258.52L521.95 1258.65L519.55 1258.97L518.55 1259.1L515.63 1259.55L515.19 1259.62C514.05 1259.8 512.92 1259.99 511.78 1260.19L511.08 1260.32L508.4 1260.82L507.25 1261.05L505.01 1261.5L503.71 1261.78L501.59 1262.25L500.25 1262.55L498.11 1263.06L496.81 1263.38L494.49 1263.97L493.38 1264.26L489.96 1265.19L486.56 1266.19L485.46 1266.53L483.17 1267.23L481.89 1267.64L479.81 1268.32L478.5 1268.76L476.45 1269.47L475.19 1269.91L473.05 1270.69L471.94 1271.1L469.4 1272.1L468.74 1272.35L465.53 1273.64L465.08 1273.83L462.4 1274.95L461.51 1275.34L459.3 1276.34L458.3 1276.78L456.19 1277.78L455.24 1278.22L453.07 1279.22L452.27 1279.61C451.44 1280.02 450.62 1280.43 449.81 1280.85L449.35 1281.08C447.35 1282.11 445.38 1283.17 443.44 1284.24H443.39C442.46 1284.76 441.55 1285.24 440.64 1285.81L440.25 1286.04L437.85 1287.46L437.41 1287.73L435.05 1289.19L434.72 1289.4C433.85 1289.95 433 1290.5 432.15 1291.06C398.33 1313.31 379.56 1342.73 386.77 1368.37C388.625 1374.83 391.972 1380.76 396.54 1385.68" stroke="#4A4A4A" stroke-width="2" stroke-linecap="round" stroke-linejoin="round"/>
<path opacity="0.08" d="M520.22 1271.73C520.22 1271.73 394.22 1310.73 454.3 1353.65C454.3 1353.65 409.46 1353.54 416.11 1325.65C416.11 1325.65 455.86 1275.11 520.22 1271.73Z" fill="#4A4A4A"/>
<path d="M564.49 1325.65C590.18 1311.12 608.72 1292.73 584 1278.96C580.783 1277.2 577.378 1275.81 573.85 1274.82C552.07 1268.5 523.19 1268.82 493.32 1277.2C461.1 1286.27 434.78 1302.78 419.94 1321.2C414.88 1327.46 413.43 1342.63 426.85 1347.37C449.19 1355.17 480.85 1356.5 513.07 1347.43C528.467 1342.8 543.401 1336.76 557.68 1329.37" stroke="#4A4A4A" stroke-width="2" stroke-linecap="round" stroke-linejoin="round"/>
<path opacity="0.08" d="M521.91 1258.71C521.91 1258.71 322.65 1313.79 418.71 1401.08L396.77 1393.34C396.77 1393.34 332.37 1299.55 521.91 1258.71Z" fill="#4A4A4A"/>
<path opacity="0.04" d="M2869.67 1120.38L3056.55 528C3056.55 528 3201.55 381.27 3349.03 262.86L3097.93 1168.12L2869.67 1120.38Z" fill="#4A4A4A"/>
<path opacity="0.04" d="M3267.59 1206.56L3481 530.09C3481 530.09 3599.45 467.42 3747 349.01L3495.91 1254.27L3267.59 1206.56Z" fill="#4A4A4A"/>
<path opacity="0.04" d="M709.71 1098.59L570.71 687.78C570.71 687.78 396.41 485.21 248.9 366.78L481.46 1146.28L709.71 1098.59Z" fill="#4A4A4A"/>
<path opacity="0.04" d="M311.79 1184.77L20.8501 177.75C20.8501 177.75 -176.15 65.4101 -167.57 327.23L83.5301 1232.48L311.79 1184.77Z" fill="#4A4A4A"/>
<path d="M2629.98 938.881C2657.91 897.625 2665.44 853.96 2646.81 841.352C2628.18 828.744 2590.44 851.967 2562.52 893.223C2534.6 934.479 2527.07 978.144 2545.7 990.752C2564.33 1003.36 2602.06 980.136 2629.98 938.881Z" fill="#ECECEC"/>
<path d="M933.324 990.877C951.953 978.269 944.42 934.604 916.498 893.348C888.577 852.093 850.84 828.869 832.211 841.477C813.582 854.085 821.115 897.75 849.037 939.006C876.958 980.262 914.695 1003.49 933.324 990.877Z" fill="#ECECEC"/>
<g opacity="0.05">
<path opacity="0.05" d="M2661.38 1190.8C2661.38 1190.8 2656.51 1164.43 2652.82 1156.36C2650.95 1152.28 2642.45 1141.68 2642.45 1141.68C2642.45 1141.68 2637.65 1132 2636.84 1128.52C2635.28 1121.82 2637.03 1107.73 2635.38 1101.06C2633.93 1095.25 2624.07 1079.97 2624.07 1079.97C2605.97 1058.79 2581.61 1043.91 2554.51 1037.47L2535.81 1033.02L2439.18 1011.2C2439.18 1011.2 2175.35 990.4 1963.58 991.55C1968.35 1049.31 1975.83 1089.17 1982.16 1131.35C1985.61 1139.45 1982.47 1256.93 1838.69 1276.61L1827.34 1279.3C1800.04 1282.42 1772.56 1283.75 1745.09 1283.3L1737.31 1407.3L2564.11 1408.81C2564.11 1408.81 2620.01 1409.73 2634.52 1408.02C2663.14 1343.45 2652.52 1236.88 2652.52 1236.88C2652.52 1236.88 2661.81 1228.73 2663.13 1224.97C2666 1216.84 2661.38 1190.8 2661.38 1190.8Z" fill="#4A4A4A"/>
</g>
<path d="M1541.86 970.86C1464.31 967.68 1060.17 999.28 1060.17 999.28L963.54 1021.1L1053.34 1000.82C1053.34 1000.82 1464.31 967.68 1541.86 970.86Z" fill="#F7F7F7"/>
<path d="M1754.26 1271.36C1726.79 1271.81 1699.31 1270.47 1672.01 1267.36L1660.67 1264.67C1516.89 1244.98 1500.5 1210.5 1506 1119.41C1512.33 1077.23 1505.06 1021.08 1512.5 970.84L1343.07 977.6L1125.07 997.3L1045 1004L963.54 1021.1L944.84 1025.54C917.738 1031.98 893.382 1046.87 875.28 1068.04L864 1089.13L862.53 1116.59L856.92 1129.75L846.55 1144.44L838 1178.87L836.24 1212.97L843.43 1223.43L846.85 1224.89L847.47 1230.8C885.47 1143.08 1005.14 1073.88 1146.77 1073.88C1234.97 1073.88 1314.64 1100.68 1371.39 1142.1C1371.39 1142.1 1449.05 1212.8 1389.56 1256.04H840L804.4 1426.53L929.24 1438.47L1762 1395.3L1754.26 1271.36Z" fill="#F7F7F7"/>
<path d="M1724.78 1267.57H1684.74V1403.17H1724.78V1267.57Z" fill="white"/>
<path d="M2636.52 1178.87L2627.96 1144.44L2617.6 1129.75L2611.98 1116.59L2610.52 1089.13L2599.21 1068C2581.11 1046.82 2556.75 1031.94 2529.65 1025.5L2511 1021.1L2414.37 999.28C2414.37 999.28 2150.53 978.48 1938.76 979.63C1943.54 1037.38 1951.01 1077.25 1957.35 1119.43C1960.79 1127.53 1957.65 1223.51 1813.87 1243.19L1802.53 1246.02C1802.53 1246.02 1767.17 1252.5 1720.28 1251.84L1712.5 1395.3L2539.3 1396.82C2539.3 1396.82 2595.19 1397.73 2609.71 1396.02C2638.32 1331.46 2627.71 1224.89 2627.71 1224.89L2631.13 1223.43L2638.32 1212.97L2636.52 1178.87Z" fill="#F7F7F7"/>
<path d="M1956.77 1107.41C2124.77 1083.87 2286.19 1105.41 2286.19 1105.41C2601.27 1132.51 2588.88 1052.41 2588.88 1052.41C2588.88 1052.41 2614.21 1074.35 2612.13 1097.41C2612.13 1097.41 2609.58 1111.67 2614.92 1120.17C2614.92 1120.17 2581.92 1149.05 2359.84 1140.48C2359.84 1140.48 2149.53 1133.58 2084.63 1137.72C2084.63 1137.72 1961.77 1139 1952.63 1160.59L1956.77 1107.41Z" fill="#ECECEC"/>
<path d="M2555.5 1032.19C2555.5 1032.19 2351.5 974.97 1914.16 987.55L1921.1 975C1921.1 975 2165.36 978.35 2329.24 991.08C2329.24 991.05 2493.54 1002.65 2555.5 1032.19Z" fill="white"/>
<path d="M924.49 1035.15C924.49 1035.15 1070.48 978.75 1508 979.58V969.5C1508 969.5 1313.04 976.47 1149.56 993.59C1149.56 993.59 985.63 1004 924.49 1035.15Z" fill="white"/>
<path d="M1478.88 1228C1478.88 1228 1665.21 1362 1907.15 1275.41C1927.55 1268.11 1951.24 1259.41 1971.6 1254.05L1955.5 1393.62L1473.17 1397.71L1478.88 1228Z" fill="#F7F7F7"/>
<path opacity="0.05" d="M2629.91 1254.78C2629.91 1254.78 2630.08 1354.05 2617.2 1374.01C2629.77 1269.01 2604.66 1265.32 2599.91 1266.56C2570 1274.37 2512.91 1282.67 2408.34 1279.67C2403.66 1279.17 2356.52 1279.29 2351.81 1279.17C2311.9 1278.09 2120.99 1273.12 2035.09 1273.97C2017.8 1274.12 2000.61 1276.67 1984.02 1281.52C1933.09 1296.46 1681.75 1369.42 1525.54 1271.52L1989.88 1234.18H2329.24L2552.13 1229.74L2627.67 1224.92L2629.91 1254.78Z" fill="#4A4A4A"/>
<path d="M1928.86 1170.79C1928.86 1170.79 1954.75 1133.7 2136.34 1137.23C2136.34 1137.23 2225.02 1137.81 2322.09 1139.67C2406.55 1141.28 2497.85 1144.67 2536.31 1139.1C2536.31 1139.1 2606.41 1132.15 2612.31 1117.32C2616.42 1121.66 2620.07 1126.42 2623.2 1131.51C2636.9 1145.71 2644.8 1174 2639.02 1209.51C2639.02 1209.51 2628.96 1226.66 2593.63 1234.16C2593.63 1234.16 2548.16 1245.7 2480.09 1249.85C2408.51 1254.22 2311.97 1251.14 2218.51 1248.12C2218.51 1248.12 2029.36 1236.24 1959.8 1256.22C1954.23 1257.7 1948.86 1259.84 1943.8 1262.59C1888.19 1286.33 1788.8 1310.22 1746.04 1308.59C1746.04 1308.59 1566.18 1330.2 1453.69 1226.01C1449.58 1211.21 1505.61 1185.95 1505.61 1185.95L1523.5 1209L1543 1222.5L1651 1251L1782 1242.5L1914 1220L1928.86 1170.79Z" fill="white"/>
<path d="M2448.77 1143.25C2448.77 1143.25 2471.77 1192.47 2460.77 1251.84C2500.53 1246.6 2575.71 1248.05 2623.35 1224.16C2648.08 1206.5 2644.21 1172.52 2634 1148.41C2630.16 1139.33 2623.36 1132.41 2619 1127.11C2615.63 1123 2614.48 1119.76 2612.37 1117.32C2582.93 1146.71 2448.77 1143.25 2448.77 1143.25Z" fill="#E6E6E6"/>
<path d="M2612.88 1154.41C2587.57 1164.96 2538.97 1174.41 2478.94 1172.57" stroke="#F7F7F7" stroke-width="2" stroke-linecap="round" stroke-linejoin="round"/>
<path d="M2506.38 1194.43C2497.38 1194.87 2488.21 1195.08 2478.94 1195.05" stroke="#F7F7F7" stroke-width="2" stroke-linecap="round" stroke-linejoin="round"/>
<path d="M2516.09 1193.87L2512.7 1194.09" stroke="#F7F7F7" stroke-width="2" stroke-linecap="round" stroke-linejoin="round"/>
<path d="M2612.19 1176.42C2592.44 1183.88 2559.99 1190.42 2522.86 1193.42" stroke="#F7F7F7" stroke-width="2" stroke-linecap="round" stroke-linejoin="round"/>
<path d="M2592.42 1207.62C2555.82 1214.7 2515.6 1217.25 2479.42 1217.98" stroke="#F7F7F7" stroke-width="2" stroke-linecap="round" stroke-linejoin="round"/>
<path d="M2620.66 1201.24C2615.15 1202.75 2609.51 1204.12 2603.72 1205.34" stroke="#F7F7F7" stroke-width="2" stroke-linecap="round" stroke-linejoin="round"/>
<path d="M2448.77 1142.25C2465.15 1141.47 2479.49 1140.58 2491.87 1139.67" stroke="#F7F7F7" stroke-width="2" stroke-linecap="round" stroke-linejoin="round"/>
<path d="M1099.5 997.5C1187.03 988.38 1355.78 974.81 1522.43 968.98" stroke="#4A4A4A" stroke-width="2" stroke-linecap="round" stroke-linejoin="round"/>
<path d="M2555.5 1136.82C2428.34 1155.65 2059.5 1117.32 1955.81 1155.56" stroke="#4A4A4A" stroke-width="2" stroke-linecap="round" stroke-linejoin="round"/>
<path d="M2562.55 1135.71L2560.85 1135.99" stroke="#4A4A4A" stroke-width="2" stroke-linecap="round" stroke-linejoin="round"/>
<path d="M2604.72 1124.77C2593.9 1129.06 2580.93 1132.44 2566.19 1135.08" stroke="#4A4A4A" stroke-width="2" stroke-linecap="round" stroke-linejoin="round"/>
<path d="M883.88 1164.17C876.748 1162.08 869.801 1159.4 863.11 1156.17C855.7 1152.47 850.7 1142.78 851.95 1134.6C854.75 1116.2 863.14 1097.07 866.73 1088.9C868.79 1084.21 871.173 1079.66 873.86 1075.3C881.165 1063.46 891.176 1053.52 903.07 1046.3C969.07 1005.95 1062.06 1001.2 1099.5 997.5" stroke="#4A4A4A" stroke-width="2" stroke-linecap="round" stroke-linejoin="round"/>
<path d="M2240.36 1248.1C2383.43 1252.98 2532 1258.51 2618.73 1226.29C2624.16 1224.3 2628.96 1220.91 2632.66 1216.47C2636.36 1212.03 2638.82 1206.7 2639.8 1201C2643.96 1175.93 2635.66 1142.51 2623.39 1131.69C2621.76 1130.33 2620.28 1128.8 2618.97 1127.13C2614.53 1121.24 2612.13 1114.07 2612.13 1106.69V1097.42C2612.16 1091.09 2610.86 1084.82 2608.33 1079.02C2602.14 1065.01 2591.91 1053.17 2578.94 1045.02C2578.27 1044.6 2577.6 1044.19 2576.94 1043.79C2513.94 993.79 2201.2 977.24 1945.22 975.02" stroke="#4A4A4A" stroke-width="2" stroke-linecap="round" stroke-linejoin="round"/>
<path d="M2226.63 1247.38C2149.21 1244.81 2074.4 1243 2013.06 1248.12C1997.71 1249.76 1982.52 1252.65 1967.65 1256.77C1946.85 1262.47 1908.23 1280.02 1857.18 1293.42L1846.48 1296.13C1816.8 1303.3 1590.04 1342.23 1478.39 1242.48" stroke="#4A4A4A" stroke-width="2" stroke-linecap="round" stroke-linejoin="round"/>
<path d="M2628.44 1227.48C2628.44 1227.48 2638.28 1325.65 2609.67 1396.02" stroke="#4A4A4A" stroke-width="2" stroke-linecap="round" stroke-linejoin="round"/>
<path d="M1964.68 1259.87C1960.46 1278.34 1949.68 1334.98 1960.42 1393.98" stroke="#4A4A4A" stroke-width="2" stroke-linecap="round" stroke-linejoin="round"/>
<path opacity="0.6" d="M2676.51 1303.51C2676.51 1303.51 2775.9 1306.94 2879.51 1393.76L2862.23 1393.7C2862.23 1393.7 2774 1323.9 2676.51 1303.51Z" fill="white"/>
<path d="M2858.57 1393.69C2823.45 1368.48 2776.22 1338.87 2724.63 1318.34C2686.02 1302.98 2644.32 1296.48 2602.98 1300.72C2574.03 1303.72 2546.19 1311.6 2538.54 1329.72C2537.22 1333 2536.46 1336.48 2536.28 1340.01L2535.96 1393.8L2858.57 1393.69Z" fill="#DEDEDE"/>
<path d="M2560.06 1341C2560.1 1340.32 2560.23 1339.65 2560.44 1339C2561.58 1336.3 2572.29 1327.83 2605.44 1324.44C2613.18 1323.64 2620.95 1323.26 2628.73 1323.29C2658.6 1323.49 2688.17 1329.33 2715.87 1340.5C2736.93 1348.99 2757.41 1358.84 2777.19 1369.99H2559.91L2560.06 1341Z" fill="#DEDEDE"/>
<path d="M2582.33 1393.67C2562.44 1384.74 2534.85 1360.9 2536.33 1339.96C2536.5 1336.43 2537.27 1332.95 2538.59 1329.67C2546.24 1311.6 2574.08 1303.67 2603.03 1300.67C2644.37 1296.43 2686.03 1302.93 2724.68 1318.29C2776.27 1338.82 2823.5 1368.43 2858.62 1393.64" fill="#ECECEC"/>
<path d="M2629.2 1299.45C2661.9 1299.74 2694.25 1306.14 2724.6 1318.33C2776.2 1338.85 2823.44 1368.48 2858.6 1393.69" stroke="#4A4A4A" stroke-width="2" stroke-linecap="round" stroke-linejoin="round"/>
<path d="M2536 1393.75L2536.31 1342.07C2536.3 1340.04 2536.46 1338.01 2536.78 1336.01C2537.13 1333.83 2537.74 1331.71 2538.58 1329.67C2546.23 1311.6 2574.07 1303.67 2603.02 1300.67C2607.69 1300.19 2612.35 1299.86 2617.02 1299.67" stroke="#4A4A4A" stroke-width="2" stroke-linecap="round" stroke-linejoin="round"/>
<path opacity="0.05" d="M2728.26 1354.56C2748.26 1361.65 2759.44 1375.25 2755.48 1381.24C2751.52 1387.23 2732.06 1386.34 2712.02 1379.24C2691.98 1372.14 2678.95 1361.55 2682.91 1355.56C2686.87 1349.57 2708.22 1347.47 2728.26 1354.56Z" fill="#4A4A4A"/>
<path d="M2717.5 1352C2733.11 1355.7 2741.66 1365.52 2738.5 1370.72C2735.34 1375.92 2720.07 1377.15 2704.5 1373.45C2688.93 1369.75 2678.81 1362.53 2682 1357.32C2685.19 1352.11 2701.88 1348.28 2717.5 1352Z" fill="#DEDEDE"/>
<path d="M2717.5 1352C2733.11 1355.7 2741.66 1365.52 2738.5 1370.72C2735.34 1375.92 2720.07 1377.15 2704.5 1373.45C2688.93 1369.75 2678.81 1362.53 2682 1357.32C2685.19 1352.11 2701.88 1348.28 2717.5 1352Z" fill="#DEDEDE"/>
<path d="M2717.5 1352C2703.74 1348.75 2689.09 1351.32 2683.62 1355.54C2684.09 1360.38 2693.35 1366.08 2706.62 1369.24C2720.41 1372.51 2733.9 1371.93 2739.06 1368.16C2739 1362.74 2730.83 1355.14 2717.5 1352Z" fill="#F7F7F7"/>
<path d="M2717.5 1352C2703.74 1348.75 2689.09 1351.32 2683.62 1355.54C2684.09 1360.38 2693.35 1366.08 2706.62 1369.24C2720.41 1372.51 2733.9 1371.93 2739.06 1368.16C2739 1362.74 2730.83 1355.14 2717.5 1352Z" fill="#F7F7F7"/>
<path d="M2717.5 1352C2733.11 1355.7 2741.66 1365.52 2738.5 1370.72C2735.34 1375.92 2720.07 1377.15 2704.5 1373.45C2688.93 1369.75 2678.81 1362.53 2682 1357.32C2683.59 1354.72 2688.58 1352.47 2695.13 1351.32" stroke="#4A4A4A" stroke-width="2" stroke-linecap="round" stroke-linejoin="round"/>
<path d="M2703 1350.53C2707.87 1350.39 2712.74 1350.88 2717.49 1351.98C2733.1 1355.68 2741.65 1365.5 2738.49 1370.7C2735.33 1375.9 2720.06 1377.13 2704.49 1373.43C2688.92 1369.73 2678.8 1362.51 2681.99 1357.3C2683.41 1354.99 2687.53 1352.94 2692.99 1351.72" stroke="#4A4A4A" stroke-width="2" stroke-linecap="round" stroke-linejoin="round"/>
<path opacity="0.05" d="M2717.1 1346C2717.1 1346 2743.51 1364.61 2726.02 1376.31C2726 1376.28 2760.75 1360.89 2717.1 1346Z" fill="#4A4A4A"/>
<path d="M878.8 1181.67C933.28 1118.58 1032.91 1073.88 1146.74 1073.88C1234.94 1073.88 1314.61 1100.68 1371.36 1142.1" stroke="#4A4A4A" stroke-width="2" stroke-linecap="round" stroke-linejoin="round"/>
<path d="M1896 1391C1838.26 1442 1599 1443.38 1547.67 1388.58C1541.33 1381.81 1545.03 1366.03 1552.35 1353.52C1558.19 1343.52 1572.06 1337.89 1585.94 1339.61C1672.62 1350.37 1773.74 1350.39 1864.57 1339.68C1881.28 1337.68 1897.19 1346.24 1900.32 1359.18C1903.27 1371.59 1902.42 1385.31 1896 1391Z" fill="#E6E6E6"/>
<path d="M1865.5 1391.81C1807.76 1442.81 1598.94 1443.4 1547.66 1388.6C1541.31 1381.83 1545.01 1366.05 1552.33 1353.54C1558.18 1343.54 1572.04 1337.91 1585.93 1339.63C1672.6 1350.39 1743.24 1351.19 1834.08 1340.48C1850.78 1338.48 1866.69 1347.05 1869.82 1359.99C1872.82 1372.38 1872 1386.1 1865.5 1391.81Z" fill="#ECECEC"/>
<path d="M1713.05 1347.67C1763.66 1348.15 1814.24 1345.48 1864.52 1339.67C1881.23 1337.67 1897.14 1346.23 1900.27 1359.17C1903.27 1371.56 1902.42 1385.28 1895.95 1390.99C1838.21 1441.99 1598.95 1443.37 1547.62 1388.57C1541.28 1381.8 1544.98 1366.02 1552.3 1353.51C1558.14 1343.51 1572.01 1337.88 1585.89 1339.6C1616.57 1343.41 1649.06 1345.87 1682.26 1346.99" stroke="#4A4A4A" stroke-width="2" stroke-linecap="round" stroke-linejoin="round"/>
<path d="M1695.58 1347.4L1702.07 1347.53" stroke="#4A4A4A" stroke-width="2" stroke-linecap="round" stroke-linejoin="round"/>
<path d="M1792.85 1364.75C1808.18 1363.31 1824.38 1361.41 1841.44 1359.05" stroke="#F7F7F7" stroke-width="2" stroke-linecap="round" stroke-linejoin="round"/>
<path d="M1600.4 1359.13C1600.4 1359.13 1652.72 1372.58 1750.75 1367.77" stroke="#F7F7F7" stroke-width="2" stroke-linecap="round" stroke-linejoin="round"/>
<path d="M1686.18 1388.71C1725.38 1389.95 1777.64 1388.35 1842 1379.32" stroke="#F7F7F7" stroke-width="2" stroke-linecap="round" stroke-linejoin="round"/>
<path d="M1601 1379.41C1601 1379.41 1621.08 1384.57 1659.66 1387.35" stroke="#F7F7F7" stroke-width="2" stroke-linecap="round" stroke-linejoin="round"/>
<path opacity="0.07" d="M864.87 1190.85C903.37 1132.09 965.87 1100.68 1033.26 1078.21C1069.34 1071.12 1110.26 1060.12 1151.8 1060.12C1266.45 1060.12 1344.43 1103.64 1439.12 1181.42C1476.56 1220.98 1396.18 1250.17 1389.53 1256.04C1358.91 1149 1269.31 1070.89 1125 1078.93C980.69 1086.97 868.92 1190.85 868.92 1190.85H864.87Z" fill="#4A4A4A"/>
<path opacity="0.05" d="M1246.46 1095.17L1166.46 1257.66L1294.39 1259.48L1337.08 1125.18C1277.19 1095.17 1246.46 1095.17 1246.46 1095.17Z" fill="#4A4A4A"/>
<path opacity="0.05" d="M1056.54 1095.05L974.54 1254.72L1100.66 1245.65L1182.93 1085.65C1182.93 1085.65 1121.47 1080.1 1056.54 1095.05Z" fill="#4A4A4A"/>
<path d="M2022.57 1333C2052.01 1345.13 2144.12 1344.43 2169.22 1336.22C2186.22 1330.68 2198.78 1305.67 2179.99 1296.58C2150.43 1282.28 2048.45 1283.58 2023.38 1293.32C2007.34 1299.52 2002.59 1324.72 2022.57 1333Z" fill="#E6E6E6"/>
<path d="M2009.39 1315.3C2008.98 1306.3 2014.47 1296.75 2023.39 1293.3C2048.46 1283.54 2150.39 1282.3 2180 1296.56C2188.81 1300.82 2190.69 1308.71 2188.44 1316.38C2188.44 1316.38 2177.69 1318.95 2147.55 1319.79" fill="#F7F7F7"/>
<path d="M2022.57 1333C2052.01 1345.13 2144.12 1344.43 2169.22 1336.22C2186.22 1330.68 2198.78 1305.67 2179.99 1296.58C2150.43 1282.28 2048.45 1283.58 2023.38 1293.32C2007.34 1299.52 2002.59 1324.72 2022.57 1333Z" stroke="#4A4A4A" stroke-width="2" stroke-linecap="round" stroke-linejoin="round"/>
<path d="M2183.39 1317.06C2170.14 1318.59 2129.1 1321.71 2037.25 1316.71" stroke="#4A4A4A" stroke-width="2" stroke-linecap="round" stroke-linejoin="round"/>
<path opacity="0.08" d="M2040.71 1316.83C2040.71 1316.83 2086.36 1328.6 2163.34 1324.15C2167.34 1323.92 2169.25 1327.38 2166.09 1328.96C2155.72 1334.15 2130.09 1341.08 2066.01 1340.89C2066.01 1340.89 2184.37 1352.73 2188.43 1316.36C2188.43 1316.36 2118.89 1325.32 2040.71 1316.83Z" fill="#4A4A4A"/>
<path opacity="0.08" d="M2066.24 1286.77C2066.24 1286.77 2148.24 1291.59 2170.98 1302.32C2176.48 1304.92 2174.98 1310.78 2168.59 1311.73C2153.23 1314.04 2113.92 1319.24 2074.27 1318.73C2074.27 1318.73 2167.27 1321.53 2188.43 1316.41C2188.43 1316.41 2197.63 1296.71 2161.56 1291.07C2161.56 1291 2116.26 1282.05 2066.24 1286.77Z" fill="#4A4A4A"/>
<path opacity="0.08" d="M2136.34 1137.23C2136.34 1137.23 2285.34 1144.89 2424.43 1152.5C2424.43 1152.5 2528.96 1158.75 2589.53 1142.26C2594.53 1140.88 2599.83 1141.12 2604.68 1142.94C2609.53 1144.76 2613.68 1148.08 2616.53 1152.41C2626.18 1167.17 2636.04 1189.9 2621.39 1207.49C2618.3 1211.18 2614.19 1213.88 2609.57 1215.24L2506.38 1246C2506.38 1246 2641.26 1242.51 2639.8 1201C2639.8 1201 2642.06 1138.59 2623.39 1131.69L2614.92 1120.18C2614.92 1120.18 2583.54 1145.62 2433.75 1142.62L2136.34 1137.23Z" fill="#4A4A4A"/>
<path d="M2448.77 1143.25C2449.66 1145.08 2471.4 1193.43 2460.94 1243.95" stroke="#4A4A4A" stroke-width="2" stroke-linecap="round" stroke-linejoin="round"/>
<path opacity="0.08" d="M2459.13 1176.42C2459.13 1176.42 2483.13 1250.42 2333.66 1250.98L2460.76 1251.84C2460.76 1251.84 2469.48 1209.59 2459.13 1176.42Z" fill="#4A4A4A"/>
<path d="M842.36 1244.03L845.11 1303.51L818.64 1306.63L842.36 1244.03Z" fill="#ECECEC"/>
<path opacity="0.6" d="M802.59 1303.51C802.59 1303.51 703.2 1306.94 599.59 1393.76L616.87 1393.7C616.87 1393.7 705.14 1323.9 802.59 1303.51Z" fill="white"/>
<path d="M620.53 1393.69C655.65 1368.48 702.88 1338.87 754.47 1318.34C793.09 1302.98 834.78 1296.48 876.12 1300.72C905.12 1303.72 932.92 1311.6 940.56 1329.72C941.881 1333 942.645 1336.48 942.82 1340.01L943.14 1393.8L620.53 1393.69Z" fill="#DEDEDE"/>
<path d="M919.05 1341C919.006 1340.32 918.875 1339.65 918.66 1339C917.52 1336.3 906.81 1327.83 873.66 1324.44C865.922 1323.65 858.148 1323.26 850.37 1323.29C820.495 1323.49 790.926 1329.32 763.22 1340.5C742.165 1349 721.682 1358.85 701.9 1369.99H919.18L919.05 1341Z" fill="#DEDEDE"/>
<path d="M896.77 1393.67C916.66 1384.74 944.26 1360.9 942.82 1339.96C942.645 1336.43 941.881 1332.95 940.56 1329.67C932.92 1311.6 905.08 1303.67 876.12 1300.67C834.78 1296.43 793.12 1302.93 754.47 1318.29C702.88 1338.82 655.65 1368.43 620.53 1393.64" fill="#ECECEC"/>
<path d="M849.9 1299.45C817.204 1299.74 784.851 1306.14 754.51 1318.33C702.91 1338.85 655.66 1368.48 620.51 1393.69" stroke="#4A4A4A" stroke-width="2" stroke-linecap="round" stroke-linejoin="round"/>
<path d="M943.14 1393.75L942.83 1342.07C942.838 1340.04 942.681 1338.01 942.36 1336.01C942.011 1333.83 941.407 1331.71 940.56 1329.67C932.92 1311.6 905.07 1303.67 876.12 1300.67C871.453 1300.19 866.786 1299.86 862.12 1299.67" stroke="#4A4A4A" stroke-width="2" stroke-linecap="round" stroke-linejoin="round"/>
<path opacity="0.05" d="M750.85 1354.56C730.85 1361.65 719.67 1375.25 723.62 1381.24C727.57 1387.23 747.04 1386.34 767.08 1379.24C787.12 1372.14 800.16 1361.55 796.2 1355.56C792.24 1349.57 770.89 1347.47 750.85 1354.56Z" fill="#4A4A4A"/>
<path d="M761.61 1352C745.99 1355.7 737.44 1365.52 740.61 1370.72C743.78 1375.92 759.04 1377.15 774.61 1373.45C790.18 1369.75 800.3 1362.53 797.11 1357.32C793.92 1352.11 777.22 1348.28 761.61 1352Z" fill="#DEDEDE"/>
<path d="M761.61 1352C745.99 1355.7 737.44 1365.52 740.61 1370.72C743.78 1375.92 759.04 1377.15 774.61 1373.45C790.18 1369.75 800.3 1362.53 797.11 1357.32C793.92 1352.11 777.22 1348.28 761.61 1352Z" fill="#DEDEDE"/>
<path d="M761.61 1352C775.36 1348.75 790.01 1351.32 795.49 1355.54C795.01 1360.38 785.76 1366.08 772.49 1369.24C758.69 1372.51 745.2 1371.93 740.04 1368.16C740.13 1362.74 748.28 1355.14 761.61 1352Z" fill="#F7F7F7"/>
<path d="M761.61 1352C775.36 1348.75 790.01 1351.32 795.49 1355.54C795.01 1360.38 785.76 1366.08 772.49 1369.24C758.69 1372.51 745.2 1371.93 740.04 1368.16C740.13 1362.74 748.28 1355.14 761.61 1352Z" fill="#F7F7F7"/>
<path d="M761.61 1352C745.99 1355.7 737.44 1365.52 740.61 1370.72C743.78 1375.92 759.04 1377.15 774.61 1373.45C790.18 1369.75 800.3 1362.53 797.11 1357.32C795.52 1354.72 790.53 1352.47 783.98 1351.32" stroke="#4A4A4A" stroke-width="2" stroke-linecap="round" stroke-linejoin="round"/>
<path d="M776.09 1350.53C771.221 1350.39 766.355 1350.88 761.61 1351.98C745.99 1355.68 737.44 1365.5 740.61 1370.7C743.78 1375.9 759.04 1377.13 774.61 1373.43C790.18 1369.73 800.3 1362.51 797.11 1357.3C795.69 1354.99 791.57 1352.94 786.11 1351.72" stroke="#4A4A4A" stroke-width="2" stroke-linecap="round" stroke-linejoin="round"/>
<path opacity="0.05" d="M762 1346C762 1346 735.6 1364.61 753.08 1376.31C753.08 1376.28 718.35 1360.89 762 1346Z" fill="#4A4A4A"/>
<path opacity="0.05" d="M2169.77 1023.3C2169.77 1023.3 2180.45 1003.51 2226.29 1000.49L2225.24 983.812C2225.24 983.812 2160.42 992.952 2155.85 1007.25L2169.77 1023.3Z" fill="#4A4A4A"/>
<path opacity="0.05" d="M2496.36 967.513C2496.36 967.513 2519.02 985.451 2505.69 1015.13C2505.69 1015.13 2519.62 1051.95 2422.8 1057.1C2416.41 1057.83 2409.96 1057.76 2403.59 1056.87C2398.83 1056.17 2393.96 1056.99 2389.7 1059.22C2379.08 1064.74 2366.59 1072.45 2342.83 1073.03C2341.04 1073.07 2339.3 1073.61 2337.81 1074.6C2336.32 1075.58 2335.13 1076.97 2334.39 1078.59C2332.36 1083.07 2328.23 1087.19 2318.01 1087.54C2307.08 1086.5 2278.26 1076.74 2263.18 1072.35C2261.23 1071.78 2276.67 1066.91 2274.63 1066.83C2261.34 1066.14 2213.89 1067.32 2192.82 1054.28C2168.47 1039.19 2162.36 1028.97 2162.36 1028.97C2162.36 1028.97 2260.26 1063.72 2300.53 1048.87C2340.8 1034.03 2496.36 967.513 2496.36 967.513Z" fill="#4A4A4A"/>
<path d="M2336.31 961.88C2336.31 961.88 2332.73 939.275 2366.14 942.34C2366.14 942.34 2405.34 924.568 2439.77 916.036C2444.48 914.852 2449.38 914.589 2454.19 915.262C2463.34 916.601 2471.91 920.588 2478.82 926.734C2485.74 932.88 2490.71 940.916 2493.11 949.85C2502.94 986.39 2498.98 1041.2 2413.31 1045.91L2390.13 1046.21" fill="#ECECEC"/>
<path opacity="0.08" d="M2425.86 963.003C2425.86 963.003 2438.97 1001.43 2431.3 1025.46C2431.06 1026.23 2431.02 1027.06 2431.18 1027.85C2431.35 1028.65 2431.72 1029.38 2432.26 1029.99C2432.79 1030.6 2433.48 1031.06 2434.24 1031.33C2435.01 1031.6 2435.83 1031.67 2436.63 1031.53C2451.23 1028.96 2483.8 1017.55 2485.52 980.407C2488.68 924.641 2444.29 915.824 2422.87 920.785L2448 914.894C2448 914.894 2471.35 914.443 2485.67 934.324C2485.67 934.324 2503.47 956.367 2493.13 1000.49C2493.13 1000.49 2486.08 1043.4 2411.85 1046.08C2408.05 1046.2 2404.28 1045.4 2400.87 1043.73C2397.46 1042.06 2394.5 1039.58 2392.27 1036.51L2385.18 1026.82L2413.66 967.329L2425.86 963.003Z" fill="#4A4A4A"/>
<path d="M2336.31 961.88C2336.31 961.88 2332.73 939.275 2366.14 942.34C2366.14 942.34 2405.34 924.568 2439.77 916.036C2444.48 914.852 2449.38 914.589 2454.19 915.262C2463.34 916.601 2471.91 920.588 2478.82 926.734C2485.74 932.88 2490.71 940.916 2493.11 949.85C2502.94 986.39 2498.98 1041.2 2413.31 1045.91" stroke="#4A4A4A" stroke-width="2" stroke-linecap="round" stroke-linejoin="round"/>
<path d="M2156.44 1014.45C2156.44 1014.45 2175.61 991.553 2247.69 987.678L2154.89 945.856C2154.89 945.856 2144.13 963.656 2156.44 1014.45Z" fill="#DEDEDE"/>
<path opacity="0.08" d="M2155.29 1000.49C2157.25 996.311 2173.37 990.366 2183.03 988.313C2184 988.112 2184.89 987.638 2185.59 986.947C2186.3 986.255 2186.79 985.376 2187.01 984.414C2187.22 983.452 2187.16 982.447 2186.82 981.519C2186.49 980.592 2185.89 979.781 2185.11 979.183C2165.78 964.77 2150.63 968.718 2150.63 968.718C2150.63 968.718 2152.29 950.108 2154.86 945.856C2157.43 941.604 2206.71 952.299 2214.25 991.755C2214.25 991.755 2169.77 1000.49 2161.23 1010.6L2155.29 1000.49Z" fill="#4A4A4A"/>
<path d="M2169.77 1004.37C2181.74 999.33 2206.15 990.9 2233.35 991.829" stroke="#4A4A4A" stroke-width="2" stroke-linecap="round" stroke-linejoin="round"/>
<path d="M2153.74 1009.5C2153.74 1009.5 2121.47 885.377 2267.01 854.305C2273.52 853.459 2280.08 852.977 2286.64 852.86C2353.6 851.222 2412.88 897.296 2425.86 963.002C2431.91 993.633 2427.32 1025.21 2399.31 1046.14C2399.31 1046.14 2321.87 1086.75 2227.19 1057.43C2227.19 1057.43 2232.93 988.405 2173.89 959.781C2173.89 959.781 2159.91 950.734 2152.88 958.456C2150.62 964.981 2147.3 979.597 2153.74 1009.5Z" fill="#DEDEDE"/>
<path opacity="0.6" d="M2154.46 947.973C2154.46 947.973 2173.17 872.363 2274.75 856.855L2273.23 853.698C2273.23 853.698 2242.29 851.517 2192.24 887.863C2192.25 887.881 2161.16 914.149 2154.46 947.973Z" fill="white"/>
<path opacity="0.3" d="M2379.1 941.452C2383.52 940.035 2385.51 933.955 2383.56 927.871C2381.61 921.787 2376.45 918.003 2372.03 919.42C2367.62 920.836 2365.62 926.916 2367.58 933C2369.53 939.084 2374.69 942.868 2379.1 941.452Z" fill="white"/>
<path opacity="0.3" d="M2268.5 943.527C2269.32 936.966 2265.98 931.141 2261.03 930.518C2256.07 929.895 2251.39 934.709 2250.56 941.271C2249.74 947.832 2253.08 953.656 2258.04 954.279C2262.99 954.902 2267.67 950.088 2268.5 943.527Z" fill="white"/>
<path opacity="0.08" d="M2274.75 856.874C2272.71 866.86 2306.84 874.932 2315.49 855.456L2302.08 852.815C2302.08 852.815 2276.09 850.109 2274.75 856.874Z" fill="#4A4A4A"/>
<path d="M2216.09 897.444C2199.71 914.245 2188.62 935.489 2184.19 958.539" stroke="#4A4A4A" stroke-width="2" stroke-linecap="round" stroke-linejoin="round"/>
<path d="M2224.17 889.704C2223.08 890.667 2222 891.652 2220.93 892.658" stroke="#4A4A4A" stroke-width="2" stroke-linecap="round" stroke-linejoin="round"/>
<path d="M2267.14 861.714C2255.97 867.174 2245.27 873.565 2235.17 880.822" stroke="#4A4A4A" stroke-width="2" stroke-linecap="round" stroke-linejoin="round"/>
<path d="M2343.4 995.999C2344.95 1015.34 2345.08 1034.76 2343.78 1054.12" stroke="#4A4A4A" stroke-width="2" stroke-linecap="round" stroke-linejoin="round"/>
<path d="M2300.53 869.916C2309.74 887.743 2334.19 919.349 2342.13 983.813" stroke="#4A4A4A" stroke-width="2" stroke-linecap="round" stroke-linejoin="round"/>
<path d="M2265.8 943.187C2266.37 938.603 2264.04 934.534 2260.58 934.099C2257.12 933.663 2253.84 937.027 2253.27 941.611C2252.69 946.196 2255.03 950.265 2258.49 950.7C2261.95 951.135 2265.22 947.772 2265.8 943.187Z" fill="#ECECEC" stroke="#4A4A4A" stroke-width="2" stroke-linecap="round" stroke-linejoin="round"/>
<path d="M2378.12 938.402C2380.95 937.495 2382.1 933.193 2380.69 928.794C2379.27 924.394 2375.84 921.563 2373.01 922.47C2370.19 923.377 2369.04 927.678 2370.45 932.078C2371.86 936.478 2375.3 939.309 2378.12 938.402Z" fill="#ECECEC" stroke="#4A4A4A" stroke-width="2" stroke-linecap="round" stroke-linejoin="round"/>
<path opacity="0.08" d="M2336.2 860.168C2348.53 879.736 2481.78 974.158 2369.83 1056.44C2369.83 1056.44 2440.48 1048.37 2425.86 963.003C2425.86 963.003 2411.47 883.675 2336.2 860.168Z" fill="#4A4A4A"/>
<path opacity="0.08" d="M2306.05 879.736C2306.05 879.736 2358.7 930.854 2350.93 1025.06C2350.78 1026.85 2350.41 1028.62 2349.85 1030.33L2348.57 1034.3C2348.29 1035.13 2347.76 1035.86 2347.03 1036.36C2346.31 1036.86 2345.45 1037.11 2344.57 1037.08C2343.69 1037.04 2342.85 1036.72 2342.17 1036.17C2341.48 1035.61 2341 1034.85 2340.8 1033.99L2340.01 1030.68C2339.14 1027.09 2338.58 1023.44 2338.33 1019.76C2336.84 998.116 2329.89 915.64 2306.05 879.736Z" fill="#4A4A4A"/>
<path opacity="0.08" d="M2256.42 867.347C2256.42 867.347 2194.98 883.445 2181.75 947.42C2181.56 948.302 2181.56 949.216 2181.76 950.097C2181.95 950.979 2182.34 951.806 2182.9 952.519C2184.04 953.928 2185.91 954.857 2188.81 952.74C2190.79 951.248 2192.25 949.185 2193.01 946.831C2196.88 935.456 2214.97 888.59 2256.42 867.347Z" fill="#4A4A4A"/>
<path opacity="0.08" d="M2373.02 922.506C2373.02 922.506 2381.55 928.949 2378.13 938.438C2378.13 938.438 2387.87 928.534 2373.02 922.506Z" fill="#4A4A4A"/>
<path opacity="0.08" d="M2260.45 934.001C2260.45 934.001 2268.49 943.012 2258.37 950.568C2258.32 950.596 2274.59 945.009 2260.45 934.001Z" fill="#4A4A4A"/>
<path opacity="0.3" d="M2189.46 918.705C2192.8 913.463 2192.73 907.443 2189.31 905.26C2185.88 903.076 2180.4 905.556 2177.05 910.798C2173.71 916.04 2173.78 922.059 2177.2 924.242C2180.63 926.426 2186.11 923.946 2189.46 918.705Z" fill="white"/>
<path d="M2187.36 917.368C2189.84 913.472 2190.02 909.142 2187.75 907.696C2185.49 906.251 2181.63 908.237 2179.15 912.133C2176.67 916.03 2176.49 920.36 2178.76 921.805C2181.03 923.251 2184.88 921.264 2187.36 917.368Z" fill="#ECECEC" stroke="#4A4A4A" stroke-width="2" stroke-linecap="round" stroke-linejoin="round"/>
<path opacity="0.08" d="M2187.86 907.844C2187.86 907.844 2186.94 919.165 2178.86 921.945C2178.86 921.945 2193.71 920.352 2187.86 907.844Z" fill="#4A4A4A"/>
<path d="M2150.63 981.641C2149.06 939.956 2171.72 873.459 2267.01 854.306C2267.01 854.306 2280.4 851.949 2300.25 853.118C2365.3 856.947 2419.03 906.501 2426.05 971.295C2427.52 983.783 2426.87 996.43 2424.12 1008.7C2421.78 1018.5 2417.02 1027.55 2410.26 1035.02C2403.51 1042.49 2394.98 1048.14 2385.46 1051.45C2353.31 1062.74 2292.04 1077.52 2227.16 1057.43C2227.16 1057.43 2232.89 988.405 2173.85 959.781C2173.85 959.781 2166.15 955.612 2158.97 956.275" stroke="#4A4A4A" stroke-width="2" stroke-linecap="round" stroke-linejoin="round"/>
<path d="M2222.61 1034.5C2220.83 1039.55 2218.01 1051.69 2219.47 1066.57C2219.55 1067.33 2219.85 1068.05 2220.34 1068.63C2220.84 1069.21 2221.5 1069.63 2222.23 1069.82C2226.9 1071.07 2237.88 1075.23 2258.88 1076.42C2261.64 1076.47 2262.63 1073.87 2263.19 1072.34C2266.58 1062.69 2267.76 1052.4 2266.64 1042.24C2266.56 1041.39 2266.17 1040.59 2265.56 1039.99C2264.96 1039.39 2264.15 1039.02 2263.3 1038.94C2245.44 1037.2 2232.5 1033.42 2226.94 1032.13C2226.05 1031.92 2225.12 1032.05 2224.32 1032.48C2223.52 1032.92 2222.91 1033.64 2222.61 1034.5Z" stroke="#4A4A4A" stroke-width="2" stroke-linecap="round" stroke-linejoin="round"/>
<path opacity="0.08" d="M2235.38 1034.19C2235.38 1034.19 2248.32 1040.11 2256.32 1042.13C2257.73 1042.49 2258.98 1043.3 2259.9 1044.44C2260.81 1045.57 2261.34 1046.97 2261.41 1048.42C2261.66 1053.56 2261.67 1061.18 2260.13 1066.79C2259.72 1068.26 2258.84 1069.55 2257.61 1070.46C2256.39 1071.37 2254.9 1071.84 2253.37 1071.8L2226.87 1071.18L2258.87 1076.42L2262.56 1073.8C2262.56 1073.8 2271.16 1043.64 2265.38 1039.89C2265.41 1039.89 2243.83 1036.26 2235.38 1034.19Z" stroke="#4A4A4A" stroke-width="2" stroke-linecap="round" stroke-linejoin="round"/>
<path d="M2298.68 861.19C2296.46 861.548 2294.22 861.727 2291.97 861.724C2281.62 861.724 2273.23 858.134 2273.23 853.716C2273.23 849.299 2281.62 842 2291.97 842C2302.33 842 2310.71 849.299 2310.71 853.716C2310.71 855.677 2309.06 857.472 2306.32 858.861" fill="white"/>
<path d="M2298.68 861.19C2296.46 861.548 2294.22 861.727 2291.97 861.724C2281.62 861.724 2273.23 858.134 2273.23 853.716C2273.23 849.299 2281.62 842 2291.97 842C2302.33 842 2310.71 849.299 2310.71 853.716C2310.71 855.677 2309.06 857.472 2306.32 858.861" stroke="#4A4A4A" stroke-width="2" stroke-linecap="round" stroke-linejoin="round"/>
<path opacity="0.08" d="M2287.91 842.377C2287.91 842.377 2307.02 847.614 2304.48 853.836C2304.48 853.836 2300.27 862.809 2283.12 860.785C2283.12 860.785 2307.47 864.567 2310.67 853.716C2310.71 853.716 2308.42 841.18 2287.91 842.377Z" fill="#4A4A4A"/>
<path d="M2274.25 1042.34C2289.9 1044.55 2308.43 1047.94 2318.86 1052.6C2320.91 1053.52 2322.75 1054.86 2324.27 1056.52C2325.78 1058.19 2326.93 1060.15 2327.65 1062.28C2327.65 1062.41 2327.73 1062.55 2327.77 1062.69C2331.69 1074.79 2320.55 1086.42 2308.22 1083.29C2290.31 1078.75 2261.76 1070.4 2239.31 1069.31C2196.05 1066.78 2143.98 1049.44 2138.49 1020C2138.49 1020 2130.61 995.842 2150.77 983.803C2157.37 1015.51 2165.12 1029.35 2246.49 1041.12C2251.89 1040.25 2257.39 1040.17 2262.82 1040.87" fill="#ECECEC"/>
<path opacity="0.08" d="M2167.42 1052.54C2167.42 1052.54 2250.25 1064.21 2300.53 1076.42C2300.53 1076.42 2316.18 1083.09 2321.52 1068.06C2321.52 1068.06 2322.68 1051.92 2292.98 1045.43C2292.98 1045.43 2337.16 1046.54 2326.81 1074.79C2326.81 1074.79 2320.59 1086.5 2308.18 1083.29C2308.18 1083.29 2229.95 1065.24 2200.14 1063.28C2200.14 1063.28 2176.69 1060.32 2167.42 1052.54Z" fill="#4A4A4A"/>
<path opacity="0.6" d="M2147.61 1037.08C2147.61 1037.08 2135.02 1013.61 2145.97 998.069C2145.97 998.069 2154.32 1011.18 2167.42 1017.57C2167.42 1017.57 2150.85 998.888 2150.73 983.803C2150.73 983.803 2122.8 999.22 2147.61 1037.08Z" fill="white"/>
<path d="M2146.65 985.754C2133.43 999.026 2133.77 1023.3 2149.56 1039.19C2165.95 1055.31 2182.08 1061.01 2224.11 1066.8" stroke="#4A4A4A" stroke-width="2" stroke-linecap="round" stroke-linejoin="round"/>
<path d="M2262.82 1040.87C2253.38 1039.73 2246.74 1039.19 2246.74 1039.19" stroke="#4A4A4A" stroke-width="2" stroke-linecap="round" stroke-linejoin="round"/>
<path d="M2274.25 1042.34C2289.9 1044.55 2308.43 1047.94 2318.86 1052.6C2320.91 1053.52 2322.75 1054.86 2324.27 1056.52C2325.78 1058.19 2326.93 1060.15 2327.65 1062.28C2327.65 1062.41 2327.73 1062.55 2327.77 1062.69C2331.69 1074.79 2320.55 1086.42 2308.22 1083.29C2290.31 1078.75 2262.3 1070.51 2239.38 1071.32" stroke="#4A4A4A" stroke-width="2" stroke-linecap="round" stroke-linejoin="round"/>
<path d="M2222.61 1034.5C2220.83 1039.55 2218.01 1051.69 2219.47 1066.57C2219.55 1067.33 2219.85 1068.05 2220.34 1068.63C2220.84 1069.21 2221.5 1069.63 2222.23 1069.82C2226.9 1071.07 2237.88 1075.23 2258.88 1076.42C2261.64 1076.47 2262.63 1073.87 2263.19 1072.34C2266.58 1062.69 2267.76 1052.4 2266.64 1042.24C2266.56 1041.39 2266.17 1040.59 2265.56 1039.99C2264.96 1039.39 2264.15 1039.02 2263.3 1038.94C2245.44 1037.2 2232.5 1033.42 2226.94 1032.13C2226.05 1031.92 2225.12 1032.05 2224.32 1032.48C2223.52 1032.92 2222.91 1033.64 2222.61 1034.5Z" fill="white" stroke="#4A4A4A" stroke-width="2" stroke-linecap="round" stroke-linejoin="round"/>
<path opacity="0.08" d="M2235.38 1034.19C2235.38 1034.19 2248.32 1040.11 2256.32 1042.13C2257.73 1042.49 2258.98 1043.3 2259.9 1044.44C2260.81 1045.57 2261.34 1046.97 2261.41 1048.42C2261.66 1053.56 2261.67 1061.18 2260.13 1066.79C2259.72 1068.26 2258.84 1069.55 2257.61 1070.46C2256.39 1071.37 2254.9 1071.84 2253.37 1071.8L2226.87 1071.18L2258.87 1076.42L2262.56 1073.8C2262.56 1073.8 2271.16 1043.64 2265.38 1039.89C2265.41 1039.89 2243.83 1036.26 2235.38 1034.19Z" fill="#4A4A4A"/>
<path d="M2150.63 981.64C2150.87 986.196 2150.55 1029.44 2219.56 1035.78" stroke="#4A4A4A" stroke-width="2" stroke-linecap="round" stroke-linejoin="round"/>
</g>
<defs>
<clipPath id="clip0">
<rect width="3479.1" height="1392.55" fill="white"/>
</clipPath>
</defs>
</svg>
