       <svg viewBox="0 0 1083 304" version="1.1" xmlns="http://www.w3.org/2000/svg" xlink="http://www.w3.org/1999/xlink">
           <g id="Page-1" stroke="none" stroke-width="1" fill="none" fill-rule="evenodd">
               <g id="FOOTER" transform="translate(0.992728, 0.475373)">
                        <path d="M99.5209444,215.690642 C114.151153,244.859913 131.92459,258.490773 152.841257,256.58322 C172.946168,254.749699 236.099786,276.673504 278.87599,303.524135 L0.185272495,303.524135 L0.185272495,60.358045 C20.3232197,56.1305578 53.4350069,107.90809 99.5209444,215.690642 Z" id="Path" fill="#A1C95B"></path>
                        <path d="M48.1444795,79.9428396 C50.5663545,80.4115896 50.7387178,82.0033865 48.6615694,84.7182302 L49.1958187,85.1706876 C51.4251555,87.0879388 52.5398239,88.441026 52.5398239,89.229949 L52.537521,89.6579195 C52.5170803,91.1562901 52.3156851,94.0867093 50.3361299,94.9281912 L49.8717413,95.1186902 C48.6937578,95.5826016 47.9988632,95.6938252 47.7870577,95.4523611 L47.22549,98.9787126 C46.1989112,105.246562 45.4584474,108.691211 45.0040987,109.31266 L43.3574105,109.31266 L43.9667452,98.4530935 L43.2856623,98.3949529 C40.7588907,98.1684268 39.1986462,97.8998839 38.6049287,97.589324 C37.9595837,97.2517589 37.6234021,98.9430024 37.5963838,102.663054 L36.9550264,104.347625 L34.1749971,103.758513 L35.6837862,101.95822 L35.6837862,95.8598318 L36.3180385,95.5312516 C39.0939453,94.1054483 40.8137616,93.3925466 41.4774873,93.3925466 C41.7014189,93.3925466 41.8317633,93.2105758 41.8685208,92.8466342 L25.8344451,86.3279043 L26.2110364,85.4015248 L41.7960908,91.7379593 C41.6490527,90.8239394 41.3072558,89.5312302 40.7707002,87.8598318 C42.7335909,85.2048839 44.1447237,83.8774099 45.0040987,83.8774099 C44.6758109,80.785613 45.7226045,79.4740896 48.1444795,79.9428396 Z" id="Path" fill="#A1C95C"></path>
                        <path d="M504.765085,44.4103689 C507.81196,52.3205251 505.786081,64.9120779 500.306101,69.4084158 C499.348744,70.1939292 498.416617,70.47522 497.509718,70.252288 L490.812707,76.8204482 C491.464553,77.1744174 491.790476,77.6222783 491.790476,78.164031 L491.784,78.3973616 C491.681928,80.3892147 490.358748,86.1034841 486.791452,86.1034841 C484.312055,86.1034841 482.663943,85.1860037 481.847116,83.3510427 L481.31215,83.9409662 C479.769627,85.6745639 478.788467,87.0826076 478.368671,88.1650972 L478.303903,88.3424978 C477.678415,90.1735525 476.142358,90.1326213 477.075632,87.7528982 C478.008906,85.3731751 479.420847,83.6977224 480.563425,82.5810232 C480.231719,81.9755544 479.65042,81.8241872 478.819528,82.1269216 C477.795928,84.7779633 476.430287,86.1034841 474.722605,86.1034841 C473.96642,85.6682628 474.37446,85.2551768 475.946726,84.8642263 C477.081491,82.4306326 478.039092,80.8812348 478.819528,80.216033 C479.599965,79.5508311 481.181589,79.745574 483.564401,80.8002615 L483.575418,80.7476431 L478.386908,66.5652887 L478.247995,66.3703298 L478.247995,66.3703298 C471.03809,51.0871267 469.740171,41.0186046 474.354238,36.1647634 C481.275339,28.8840017 501.71821,36.5002126 504.765085,44.4103689 Z M480.201317,68.6138726 L483.720418,78.2336431 L483.474746,69.0058876 C482.524632,69.7856786 481.433489,69.6550069 480.201317,68.6138726 Z M490.448313,56.3732595 C486.97926,59.9037095 484.970047,63.4503464 484.420673,67.0131703 L484.692319,77.1310755 C484.87129,76.7727399 485.04854,76.5286795 485.224069,76.3988943 C485.097116,74.0797211 485.619577,72.9201345 486.791452,72.9201345 C487.963327,72.9201345 488.155059,73.9405609 487.366647,75.9814138 L487.70512,76.0187891 L487.70512,76.0187891 L494.610138,67.6887932 C493.148514,65.4028844 491.761238,61.6310398 490.448313,56.3732595 Z M495.20727,68.5347528 L488.858945,76.1943679 C489.20098,76.2600061 489.513086,76.3342666 489.795261,76.4171493 L496.532841,69.8106973 C496.084563,69.5137063 495.642706,69.0883915 495.20727,68.5347528 Z" id="Shape" fill="#6FCD6D"></path>
                        <path d="M94.6945966,18.1712022 C96.5061881,22.8743724 95.3016539,30.3609776 92.0434021,33.0343815 C91.4741831,33.5014271 90.9199647,33.6686751 90.3807467,33.5361257 L86.3988804,37.4413805 C86.7864508,37.6518412 86.980236,37.9181275 86.980236,38.2402394 L86.9763857,38.3789716 C86.9156966,39.5632749 86.1289684,42.9608288 84.0079486,42.9608288 C82.5337645,42.9608288 81.5538406,42.4153191 81.0681768,41.3242997 L80.7501003,41.6750527 C79.8329564,42.7058042 79.2495847,43.5429898 78.9999853,44.1866096 L78.9614759,44.2920873 C78.5895771,45.3807841 77.6762779,45.3564475 78.2311781,43.9415269 C78.7860783,42.5266063 79.625581,41.5304263 80.3049278,40.8664664 C80.1077043,40.5064707 79.7620793,40.4164717 79.2680529,40.5964696 C78.6594472,42.1727091 77.8474729,42.9608288 76.8321301,42.9608288 C76.3825225,42.7020577 76.6251325,42.4564476 77.5599602,42.2239988 C78.2346619,40.7770481 78.8040261,39.8558171 79.2680529,39.4603056 C79.7320797,39.0647942 80.6724718,39.1805831 82.0892293,39.8076725 L82.0957792,39.776387 L79.010828,31.3439331 L78.9282344,31.2280157 L78.9282344,31.2280157 C74.6414147,22.1410263 73.8697063,16.1545486 76.613109,13.2685827 C80.7282131,8.93963377 92.883005,13.4680319 94.6945966,18.1712022 Z M80.0896282,32.5619671 L82.1819924,38.2816289 L82.0359226,32.7950489 C81.47101,33.258692 80.8222452,33.1809981 80.0896282,32.5619671 Z M86.1822213,25.2840214 C84.119614,27.3831338 82.9249889,29.4918706 82.598346,31.6102317 L82.7598593,37.6260713 C82.8662708,37.4130144 82.971659,37.2679025 83.0760241,37.1907356 C83.0005411,35.8118164 83.3111826,35.1223568 84.0079486,35.1223568 C84.7047145,35.1223568 84.8187132,35.7290755 84.3499445,36.9425128 L84.5511916,36.9647351 L84.5511916,36.9647351 L88.6567331,32.0119393 C87.7876896,30.6527982 86.9628523,28.4101589 86.1822213,25.2840214 Z M89.011772,32.5149246 L85.2372253,37.0691296 C85.4405905,37.1081564 85.6261601,37.1523097 85.7939339,37.2015896 L89.7999214,33.2735675 C89.5333873,33.0969845 89.2706708,32.8441035 89.011772,32.5149246 Z" id="Shape" fill="#6FCD6D"></path>
                        <path d="M1048.71439,0 L1049.69029,0.218198715 L1046.63591,13.88 L1046.65477,13.8952207 C1047.48791,14.5957419 1047.18698,14.8178005 1046.41684,14.8603292 L1046.07506,16.3875102 L1045.09915,16.1693115 L1045.39473,14.8485471 L1044.01633,14.7711575 C1043.00786,14.7217303 1042.0511,14.7221724 1041.6645,15.0055837 C1040.50288,15.8571462 1036.15357,17.0021658 1035.35346,18.3898611 C1038.73432,19.9357595 1040.1754,21.7227061 1039.67671,23.7507009 C1039.17801,25.7786957 1038.45763,26.8906749 1037.51557,27.0866384 C1037.32357,31.5226064 1036.51927,35.0831576 1035.10268,37.7682921 C1048.3845,28.8227986 1063.41493,22.443546 1080.19333,18.6298071 L1081.00713,18.3898611 L1081.00713,185.762908 L866.688913,203.790252 C866.688913,191.759002 871.599069,172.706267 881.419382,146.632049 C936.300892,138.06434 973.851674,116.632049 994.071726,82.3351736 C1002.9338,67.3034835 1013.49491,54.765472 1025.75504,44.721139 L1027.36691,39.6084775 C1029.42954,33.1349696 1030.72181,29.3931579 1031.24385,28.3830192 L1031.2768,28.3210134 C1032.2729,26.5036306 1031.25388,20.771697 1029.77094,21.7384939 C1028.78232,22.3830251 1026.79339,25.3898611 1023.80415,30.7590017 L1023.60791,30.658 L1019.62426,45.7559842 L1018.65737,45.5007887 L1022.69791,30.189 L1021.95307,29.8053884 C1024.11559,27.2226926 1025.46776,25.261533 1026.00956,23.9219096 L1026.07563,23.7507009 C1026.81337,21.7384939 1029.18012,17.1974783 1032.54926,15.8571462 L1033.34602,15.5471612 C1036.69601,14.2721622 1042.80968,12.2933714 1045.72887,13.3578459 L1048.71439,0 Z M1035.35346,28.3210134 L1034.68476,29.481803 C1031.52093,35.0167235 1029.34661,39.4559916 1028.16179,42.7996071 C1029.68519,41.6118212 1031.2349,40.461692 1032.80996,39.3487642 L1033.25147,37.9030647 C1034.65305,33.2318302 1035.35346,30.0381953 1035.35346,28.3210134 Z" id="Shape" fill="#005783"></path>
                        <path d="M1032.28437,16.7336111 C1031.61884,13.7687673 1030.48188,12.7804861 1028.87348,13.7687673 C1027.26508,14.7570486 1027.83357,16.5536794 1030.57893,19.1586599 L1032.28437,16.7336111 Z" id="Path-8" fill="#005783"></path>
                        <path d="M0.185582881,138.217986 C318.733376,162.091684 530.765085,196.760955 636.28071,242.225799 C487.882272,190.268767 217.643991,271.581267 132.976022,279.815642 C77.0951631,285.25033 33.1537179,282.614506 1.15168685,271.908172 L0.185582881,271.581267 L0.185582881,138.217986 Z" id="Path" fill="#005B88"></path>
                        <path d="M720.862741,217.585174 C832.063718,200.44322 950.919689,195.126276 1077.43066,201.63434 L1081.00713,201.820985 L1081.00713,276.60908 C1074.90311,280.714445 1065.99776,280.72302 1054.29109,276.634805 L1053.7143,276.430877 C1040.93436,279.928273 1029.58344,279.928273 1019.66157,276.430877 C1009.60037,279.89572 999.171986,279.89572 988.376413,276.430877 C979.860788,280.399627 969.595814,280.399627 957.581491,276.430877 C951.487741,279.391814 941.722116,279.391814 928.284616,276.430877 C922.268991,280.584523 911.29959,280.584523 895.376413,276.430877 C883.905059,280.036345 873.753366,280.036345 864.921335,276.430877 C857.108835,281.196502 847.03071,282.274627 834.68696,279.665252 C821.483835,284.23947 811.110788,284.23947 803.567819,279.665252 C756.51183,291.111866 728.94347,270.418507 720.862741,217.585174 Z" id="Path" fill="#A1C95B"></path>
                        <path d="M287.729561,107.932936 C289.311137,96.0556313 296.289856,91.3027794 308.66572,93.6743802 C328.371381,97.4505986 330.898142,109.592742 331.240671,112.034392 C331.5832,114.476043 327.341989,120.336883 325.74531,121.82614 C324.680856,122.818979 323.479359,123.022104 322.140817,122.435515 C321.573016,122.043904 320.987876,121.659644 320.385399,121.282735 L291.013637,133.721591 C291.757182,133.711361 292.613583,133.542032 293.583014,133.213735 L293.904489,133.100554 C298.608642,131.382832 302.875801,131.759877 306.705966,134.23169 L307.030272,134.446775 L307.590486,134.214459 C314.540368,131.369034 315.936458,132.218664 311.778757,136.763348 C303.238718,146.098261 290.662546,147.171599 290.662546,145.296599 C290.662546,144.046599 292.293568,142.484099 295.555612,140.609099 C295.555612,139.593474 294.469838,138.796437 292.298288,138.217986 C290.638132,139.602752 289.17752,140.156463 287.916452,139.879119 C282.901153,135.974496 281.560007,131.824269 283.893015,127.428435 C284.114363,127.351093 284.328067,127.283337 284.534127,127.225168 C283.03593,124.954004 283.193833,123.535975 285.00654,122.970916 C286.937059,122.369132 287.766673,123.509244 287.49538,126.391252 L287.469431,126.642547 C287.448018,126.836505 287.429441,127.026479 287.413697,127.212467 C288.221129,127.611512 288.64824,128.487117 288.695695,129.838841 L288.700144,130.097869 C288.700144,130.749655 288.802175,131.3672 289.006239,131.950503 L289.527958,110.569283 L289.303671,110.527351 C288.315771,110.345504 287.624493,109.462988 287.667458,108.475285 L287.680407,108.318545 L287.729561,107.932936 Z M294.257512,136.563409 C294.419621,136.631636 294.586644,136.698097 294.757272,136.763348 C296.396595,136.763348 297.34972,137.468768 297.616647,138.879607 L298.91106,138.230948 L300.152593,137.617471 C301.367687,137.021584 302.503462,136.47847 303.559917,135.988129 L304.336311,135.629878 C300.141667,133.427124 296.782068,133.738301 294.257512,136.563409 Z M290.524391,110.756961 L289.978058,133.072815 L319.332201,120.641794 C312.082339,116.349322 302.479736,113.054377 290.524391,110.756961 Z" id="Shape" fill="#00ABB5"></path>
                        <path d="M422.235637,155.995904 L422.211862,156.317886 L422.430831,156.293379 C425.032007,156.029223 427.785912,156.463861 431.251413,159.14865 C431.351022,158.15451 432.06489,157.657439 433.393015,157.657439 C435.385202,157.657439 436.097605,161.934783 434.101511,162.930877 C432.770782,163.594939 430.357104,163.25184 426.860478,161.90158 L427.065888,162.826175 C428.479531,169.341289 428.636099,173.466684 427.535593,175.202361 C426.3839,177.018767 423.384226,179.655486 418.536569,183.112517 L421.590336,189.537356 L422.150281,189.562715 L422.668524,189.595022 C430.886559,190.182994 427.021428,193.724619 411.073132,200.219898 C525.641507,208.111012 605.210514,222.489258 649.78071,243.354705 L649.78071,303.524627 L0.00727249482,303.524627 L0.00727249482,228.467986 C129.037552,201.110199 257.647578,191.160726 385.837351,198.619567 L387.097202,198.693186 C386.70948,194.058725 394.017268,191.159901 409.020565,189.996715 L411.813913,183.769363 C409.319121,180.911095 409.660756,178.496183 412.838815,176.524627 L414.459209,175.517804 L414.955547,175.202703 L415.657408,174.742586 C418.586048,172.773426 420.034167,171.063445 419.430124,167.207244 C419.403116,167.034823 419.374224,166.869312 419.343449,166.710713 L412.311272,170.279606 L411.813913,171.046111 C410.885384,171.548019 410.171175,171.739805 409.671288,171.621469 L389.892374,181.663167 C385.111789,187.813213 381.761742,189.545842 379.842233,186.861052 C377.904947,184.151398 381.121342,182.112398 389.49142,180.744052 L408.923775,170.880403 C408.839141,170.628871 408.796823,170.316106 408.796823,169.942107 C408.796823,167.207244 414.640085,157.892302 418.536569,157.028045 C415.34972,153.579552 415.34972,151.046286 418.536569,149.428247 C421.408683,147.970007 422.641705,150.159226 422.235637,155.995904 Z M414.62153,187.379607 L413.266641,189.724406 L415.132656,189.636525 L416.089747,189.598016 L414.62153,187.379607 Z M415.816843,164.895232 L413.400272,168.606606 L419.097388,165.713793 C418.473013,163.719391 417.379498,163.446538 415.816843,164.895232 Z" id="Shape" fill="#0091AF"></path>
                        <path d="M784.547303,109.025052 C786.417097,109.781808 788.932821,112.693928 788.130509,113.628145 C787.321398,114.562363 786.369503,113.144039 786.219919,114.607238 C786.067763,116.030891 783.019095,118.567448 781.263681,118.258865 L781.12048,118.226479 C779.400269,117.743053 780.399759,120.160867 780.161785,122.395781 C780.052997,123.429947 778.190002,125.520037 776.218219,127.466663 L776.282219,127.782877 C776.494502,128.715181 776.984388,129.915432 778.12201,130.334588 C780.080194,131.054628 782.895085,133.575111 781.997584,134.422978 C781.691617,134.712626 781.317658,134.895526 780.909703,134.977117 C780.270574,135.748832 779.917012,136.31589 779.917012,136.31589 L788.246096,143.253846 C789.639943,141.621346 791.509737,140.363484 793.733093,139.727754 C799.798026,137.996665 806.182523,141.503039 807.991124,147.558453 C809.140198,151.391871 808.181503,155.328638 805.781367,158.136049 C810.275673,157.478562 815.150737,157.116162 820.48135,157.116162 C859.273599,157.116162 872.303029,173.722051 931.849741,174.054169 L933.6685,174.059218 C1011.39755,174.059218 987.688558,187.427227 1070.88421,187.397311 C1073.29502,187.396447 1064.65318,209.867295 1044.95866,254.809855 C990.421857,254.809855 740.644532,247.960289 637.101442,247.960289 C522.445654,247.960289 676.475231,198.572561 699.067106,198.572561 C731.132379,198.572561 747.321398,186.693588 764.197142,175.659082 C759.825223,175.40683 755.868058,172.446435 754.542204,168.016043 C752.855989,162.39986 756.044838,156.548424 761.661021,154.94516 C763.347235,154.464453 765.053847,154.428417 766.672069,154.754781 C766.794456,154.448135 766.930441,154.142169 767.066426,153.834843 C767.270404,153.380653 767.657961,152.636814 768.086314,151.844701 L762.000983,145.759371 L761.813463,145.833181 L761.509538,145.937307 L761.166533,146.044141 C760.725595,146.176333 760.078069,146.353194 759.152097,146.571882 C756.915143,147.100183 756.609176,145.910994 757.867038,145.209311 L758.549296,144.82298 L758.952287,144.58035 L759.274839,144.372659 C759.65569,144.120702 760.129675,143.785344 760.879485,143.238856 L762.266154,142.22104 C765.173168,140.078996 764.496337,141.726662 763.449813,142.674481 L763.320038,142.786738 C762.198161,143.705317 762.170964,144.846231 762.170964,144.846231 L768.57586,150.962838 L769.064354,150.110486 L769.457219,149.447818 L769.786962,148.914623 L769.949309,148.668771 L770.079708,147.890838 L770.158291,147.394422 C770.40785,145.774329 770.528605,144.520547 770.370862,144.234979 L769.909526,143.360588 C769.419472,142.442754 768.581505,140.998344 766.766414,138.625083 L765.900198,137.504718 C763.403856,134.217119 762.996897,132.515368 764.760519,129.183436 L766.624097,125.754543 L767.332,124.480774 L767.867949,123.538568 C769.67787,120.394439 771.695893,117.294904 773.138158,116.610977 C775.477101,115.499299 778.502768,115.624406 779.237087,114.869689 C779.971406,114.115652 778.686348,112.203702 778.325987,110.367224 C777.972426,108.531426 782.677509,108.268295 784.547303,109.025052 Z M762.21176,156.793877 C757.642663,158.100693 755.045348,162.883287 756.418797,167.478222 C757.799045,172.072476 762.619715,174.738463 767.195612,173.432327 C767.589968,173.318779 767.970727,173.179395 768.331087,173.006014 L770.255275,171.815465 C772.750601,169.76549 773.933671,166.366544 773.049768,163.028111 C772.872987,163.030151 772.689407,163.021992 772.492229,163.000234 C770.044498,163.965048 767.644362,164.833993 765.958148,165.39969 C765.876557,165.936831 765.489,166.40462 764.917862,166.567122 C764.129149,166.791497 763.30644,166.348186 763.075265,165.577831 C762.864488,164.85983 763.245246,164.117352 763.931971,163.836542 L764.054721,163.211492 C764.413542,161.465534 765.02665,159.10517 765.951349,156.5831 C764.741082,156.385922 763.469622,156.436236 762.21176,156.793877 Z M782.167565,139.900455 L781.421347,144.309855 L781.047405,146.457472 L780.710748,148.34872 C780.59561,148.988087 780.477951,149.633478 780.358964,150.276114 C780.311369,150.930202 780.270574,151.58361 780.263774,152.230219 C780.236577,156.572221 783.609006,156.03576 783.609006,156.03576 L783.7684,156.094433 C783.986546,156.180243 784.379414,156.355168 784.628894,156.58582 C784.642493,156.592619 784.656091,156.593979 784.66289,156.601458 C785.417607,157.288863 784.642493,158.187044 784.322928,158.428417 C784.025056,158.658297 782.937792,159.225518 781.072884,159.787658 L777.931631,160.687809 C776.972936,161.137239 775.912253,161.601628 774.810774,162.060578 C774.831172,162.111572 774.85157,162.159167 774.865168,162.210841 C775.592688,164.634095 775.409108,167.101543 774.518406,169.249427 C779.998603,166.101373 785.859559,163.276284 792.590818,161.157637 C789.537954,159.848101 787.063026,157.243988 786.036339,153.828043 C785.03005,150.462414 785.655581,147.020632 787.436985,144.327448 L782.167565,139.900455 Z M766.787657,156.761241 C765.774568,159.416349 765.346215,161.712456 764.897465,163.776029 C765.285022,163.883457 765.624985,164.139789 765.815364,164.502189 L767.049638,164.060053 L768.229518,163.627587 C769.188968,163.272011 770.08756,162.929447 770.914803,162.607238 C769.167395,161.904875 767.957128,159.478902 768.174704,157.271185 C767.725953,157.067207 767.270404,156.887707 766.787657,156.761241 Z M771.173174,154.928842 L770.942251,155.469282 L770.740037,155.960163 L770.568041,156.396801 C772.267854,157.541795 773.661701,159.166136 774.491209,161.158997 L775.629688,160.674707 L776.524186,160.281893 L776.48339,160.234979 L771.173174,154.928842 Z M794.331427,141.721975 C792.516027,142.239398 790.992994,143.266085 789.864318,144.599418 L795.596088,149.375213 C795.779668,149.184154 796.004043,149.034571 796.276013,148.957059 C797.057927,148.732684 797.887436,149.175315 798.11861,149.94635 C798.342986,150.716706 797.894235,151.523777 797.112321,151.748152 C796.405199,151.95009 795.670879,151.610127 795.358114,150.979837 L789.068806,145.698178 C787.722554,147.865779 787.273803,150.58344 788.069316,153.247387 C789.245586,157.168516 792.747201,159.786228 796.609176,159.998365 C798.240997,159.570012 799.920412,159.183814 801.654221,158.844532 C805.346215,156.799316 807.229608,152.393401 805.958148,148.139109 C804.475911,143.184494 799.267684,140.31113 794.331427,141.721975 Z M776.333807,142.975757 C775.823863,143.49386 775.334317,144.002444 774.871967,144.502189 L774.912763,144.669451 C775.218729,145.966068 773.110961,150.557603 771.628724,153.886517 L775.637441,157.753068 C775.930561,158.04035 776.157715,158.265849 776.3037,158.415226 L777.061327,159.197413 L778.162805,153.185514 C777.986025,150.615397 777.006933,145.205232 776.945739,144.088795 C776.925342,143.736593 776.680568,143.350396 776.333807,142.975757 Z M768.793436,152.551144 C768.317488,153.388812 767.902734,154.195203 767.542374,154.972357 C767.902734,155.076386 768.249496,155.202172 768.589458,155.341557 L768.735355,154.713219 L768.970851,153.654361 L769.133399,152.889067 L768.793436,152.551144 Z M773.838481,141.080806 L774.054383,141.701304 L774.250585,142.304044 L774.399856,142.788243 C774.425517,142.8736 774.45148,142.961119 774.477611,143.050549 C774.776778,142.723505 775.069146,142.40598 775.361514,142.097974 L775.07548,141.885408 L774.817328,141.703261 L774.355296,141.396502 C774.0465,141.199058 773.838481,141.080806 773.838481,141.080806 Z M780.807714,138.794897 C780.297771,139.238888 779.815024,139.67472 779.339076,140.106473 C779.740232,140.649733 780.039399,141.229709 780.250176,141.839602 L780.807714,138.794897 Z M773.430526,130.092534 L772.518685,130.907059 L771.499538,131.793707 L772.653498,132.907968 L773.412454,133.655335 L774.125075,134.367087 C775.490223,135.740286 777.139431,137.456801 778.434775,138.981196 L779.304209,138.14936 L779.672239,137.804926 L777.646062,136.098994 L779.182693,134.696988 C778.917522,134.558963 778.645552,134.386942 778.387181,134.155767 C777.39449,133.275264 774.5728,131.368754 773.430526,130.092534 Z" id="Shape" fill="#CF514D"></path>
                        <path d="M696.157026,160.067717 C696.462992,160.177185 696.768959,160.454594 697.03413,160.737443 L699.706236,161.000574 L697.659661,161.662142 L697.646062,161.67778 L697.703478,161.778963 C697.712544,161.79586 697.720854,161.813765 697.727653,161.834163 C698.414378,163.669281 697.958828,163.205572 697.843241,163.95145 C697.734453,164.695968 698.054017,165.593469 696.884546,165.724695 C696.639773,165.751892 696.435795,165.941591 696.238617,166.174805 C696.562941,166.487503 696.777118,166.869043 696.767143,167.287703 L696.753346,167.497637 C696.752338,167.510103 696.750827,167.521737 696.748561,167.530576 L698.910723,169.804246 C699.223489,169.562193 699.57705,169.598229 699.842221,170.104773 C700.338566,171.057348 699.583849,172.974737 697.945229,174.045619 C697.598467,174.272714 697.285702,174.416179 697.000133,174.512048 L697.051128,175.072986 C697.06246,175.184721 697.073792,175.286181 697.085124,175.374042 L697.102122,175.49522 C697.312899,176.853031 697.367293,179.304161 698.169605,181.113442 C698.822333,182.590239 700.161785,183.85898 700.970896,186.136049 C701.229268,186.607238 701.528435,187.245007 701.807205,188.116672 C702.425936,190.061258 702.827092,196.789118 702.827092,196.789118 L702.951104,196.856048 C703.152901,196.958017 703.588609,197.151518 704.166545,197.256906 L706.55952,196.86684 C733.760326,192.500259 763.725079,189.998724 799.458063,191.756311 C909.202432,197.152854 965.004462,227.472725 1081.00727,235.030601 L1081.00727,303.525176 L304.194406,303.525176 C363.455193,264.961794 477.478376,225.492924 504.48135,226.820734 C579.988405,230.534486 629.276863,211.430627 690.221279,199.752232 C690.226718,199.459592 690.354,199.060775 690.585719,198.523754 L690.778818,198.094574 C692.356244,194.665031 693.151757,192.045279 694.504808,189.990545 C694.742782,189.631545 693.804485,187.884137 693.158556,186.76974 C691.805505,184.954339 691.105182,182.597039 691.200371,180.245177 C690.39126,182.381502 685.373412,183.079786 684.441915,181.04205 C679.93537,171.161377 684.673089,159.333398 688.004723,160.690528 C689.724934,161.389492 690.48645,162.594319 690.799215,166.442016 C691.519936,165.914394 692.091073,165.662142 692.709805,165.529556 L693.151757,164.097634 L693.104162,163.968448 C692.886586,163.486381 692.682608,162.820054 692.913783,162.187724 C692.709805,161.697498 692.635013,161.118881 693.158556,160.758521 C694.21244,160.035081 695.415908,159.799826 696.157026,160.067717 Z M698.135608,189.142679 C698.230798,189.722655 698.230798,190.324389 698.054017,190.924083 C697.258505,193.608427 693.498518,198.216281 693.498518,198.216281 L694.376977,198.540905 C694.658641,198.642137 694.962057,198.747982 695.21193,198.827533 L698.203601,198.274074 L700.243377,197.921193 L699.447864,193.799486 C699.175894,192.350566 698.591158,190.090494 698.176404,189.22019 L698.135608,189.142679 L698.135608,189.142679 Z M698.550363,170.210161 L696.714565,168.200982 L696.712707,168.699578 C696.717587,169.592374 696.761026,170.772799 696.823353,171.920173 C697.454712,171.851986 697.980544,171.671237 698.193982,171.107366 L698.237597,170.970318 C698.319188,170.67931 698.427976,170.420938 698.550363,170.210161 Z" id="Shape" fill="#E16351"></path>
                        <path d="M923.775588,51.5067787 C968.513021,51.5067787 997.376965,140.285446 1081.00727,143.913306 L1081.00727,303.524627 L673.2442,303.524627 L675.407314,302.300071 C710.779932,282.423216 748.01126,266.926802 759.648442,266.926802 C807.365593,266.926802 827.246606,178.165966 857.319698,114.603838 C856.833352,114.386262 856.54576,113.934999 856.910409,113.118537 L856.986535,112.961139 C857.76165,111.470981 857.444498,109.743347 858.565088,107.57129 L858.857534,107.038681 C859.314492,106.1735 859.390501,105.34221 857.557466,104.506732 L857.353694,104.417199 C854.042459,103.009753 853.342136,101.609107 851.832702,100.964538 C850.0309,100.193503 849.364573,99.1715755 849.792926,97.0005743 C850.21448,94.8295732 851.812304,90.8785278 852.906984,88.8924662 C854.001663,86.9050449 857.408088,85.5009993 858.611556,85.0502089 C859.808224,84.5987385 860.970896,82.0809755 862.990274,82.9322419 C864.411318,83.5346556 864.866868,84.5525036 864.900864,85.5479141 L865.426964,85.6603853 C865.88745,85.7521553 866.406413,85.836591 867.008632,85.8953559 C869.728333,86.1612067 871.910893,86.0272614 873.250346,85.5261565 L873.420327,85.3894916 C886.923642,65.0678869 902.949479,51.5067787 923.775588,51.5067787 Z M860.889305,95.5067787 C859.794626,96.4831513 858.108411,97.6886587 857.081724,97.9259526 C855.781125,98.2277422 856.262761,98.8185591 856.877145,99.2138994 L857.020531,99.3014413 C858.285192,100.031001 860.787317,102.047659 862.065576,104.245857 C862.147167,104.378443 862.201561,104.519867 862.235557,104.670131 L863.126259,102.955359 C863.221449,102.371983 863.418627,101.651943 863.595408,100.879548 C863.860579,99.7025971 863.092263,97.5628725 862.963077,96.3063707 C862.065576,96.113272 861.358454,95.822264 860.889305,95.5067787 Z M866.655071,96.4722725 L865.764369,96.5300661 C865.580789,97.3772529 865.424407,98.1707256 865.329217,98.8540505 L866.240317,97.1916333 L866.655071,96.4722725 Z M871.93809,87.6896785 C869.653541,87.9895256 866.457893,87.8562602 864.329727,87.9154137 C864.064556,88.4552743 863.717794,88.8183544 863.139858,89.003974 C862.221959,89.3011013 860.644532,88.8380722 860.501748,89.2820634 L860.248161,89.9487175 C860.06584,90.4748788 859.978206,91.0301511 860.712525,90.8084955 L860.971347,90.7246218 C862.192125,90.3113522 864.626466,89.3141656 865.30202,90.2176405 C865.954748,91.085905 866.383101,92.6844091 866.138328,94.5474042 C866.723064,94.5229269 867.301,94.4753321 867.84494,94.4114192 C869.177594,92.1044329 870.544243,89.8613597 871.93809,87.6896785 Z M862.181163,94.1635575 C862.494717,94.2922556 862.831788,94.4010361 863.208053,94.4799403 C863.255086,94.0969103 863.29428,93.7675045 863.22373,93.5675629 C863.074792,93.1707438 862.706366,93.5162369 862.181163,94.1635575 Z" id="Shape" fill="#F39955"></path>
                        <path d="M911.128979,141.610467 C911.57093,141.843682 912.128469,142.609277 912.128469,143.236168 L912.12985,143.679618 C912.128894,144.098824 912.109771,144.454254 911.972086,144.826513 L911.890297,145.054374 C911.713437,145.534441 911.449515,146.124976 910.965797,146.185004 C910.653031,146.22512 910.958998,147.535336 911.373752,148.049359 L911.781428,148.130249 C912.717242,148.305383 913.524866,148.409719 913.780687,148.957059 C914.113851,149.67234 914.950159,152.441676 915.732073,153.473122 C916.507188,154.504569 917.642663,153.95247 918.852929,153.473122 L918.900524,153.464963 L918.900524,153.464963 L918.975316,153.112082 L919.444464,152.931222 L919.566851,153.232429 L919.505658,153.49216 C920.0292,153.822604 919.927211,155.017233 919.505658,155.21917 C919.403669,155.266765 919.254085,155.303481 919.077305,155.336117 L914.542204,175.018592 C914.743462,175.064827 914.936016,175.07625 915.119868,175.053905 L915.256125,175.030831 C916.11963,174.843172 916.201221,175.395951 916.010842,176.083355 C987.178614,172.803396 1039.73003,186.416179 1078.40418,201.874958 C1079.27978,202.224928 1080.14812,202.577006 1081.00953,202.931095 L1081.00953,283.193886 L1033.50782,284.575999 C818.105922,290.810358 544.125749,298.332548 544.125749,298.332548 C569.102122,270.514768 598.387861,248.331528 632.516027,233.738973 C675.93741,215.173615 703.921772,218.896206 750.143088,214.021142 C813.38973,207.349716 844.135948,181.878358 905.009652,176.766 C904.567701,176.40564 904.268534,175.708037 903.867378,175.211691 C903.282642,174.49573 904.445314,173.526836 905.050448,172.562023 L905.202516,172.04233 C905.734917,170.259362 907.032078,166.203878 908.001323,164.251977 C906.893045,162.297192 905.866358,159.193333 906.328707,157.666901 C906.729863,156.338327 907.287402,155.100183 906.947439,152.978137 C906.600677,150.85745 905.21363,152.461394 904.282132,154.255716 L903.988899,154.829317 C903.163947,156.470208 902.416632,158.215064 902.453133,159.31436 C902.493929,160.542305 903.289441,161.454084 902.867888,161.602308 C902.439535,161.751212 902.643513,161.006694 902.276353,161.361615 C901.909193,161.715856 902.357944,162.114292 902.39194,162.686109 C902.419137,163.100863 901.562431,163.251807 901.052488,163.081145 L894.069656,175.332038 L893.954068,175.271525 L900.75332,162.876488 L900.697919,162.793739 C900.689861,162.778957 900.683061,162.763394 900.678529,162.746622 C900.583339,162.156447 901.249666,159.085225 901.569231,157.146758 C901.852209,155.391677 903.237221,152.654227 904.178293,150.960291 L904.691416,150.049738 C905.412157,148.755296 905.641983,148.252039 906.933841,147.933092 C907.328197,147.836542 907.708955,147.773309 908.076115,147.729794 C908.674449,147.22597 908.898824,146.479412 908.885226,145.885837 C908.864828,145.018932 907.872137,142.809855 908.953218,141.76957 C909.524356,141.22495 910.000303,141.015533 911.128979,141.610467 Z M909.29998,167.443546 C909.041609,168.4036 907.035829,171.540095 906.403499,172.923063 C905.771168,174.306711 906.437495,174.760901 906.879447,175.934452 C906.988235,176.235658 907.02903,176.450515 907.001833,176.604178 L909.748731,176.409039 L912.040079,176.275094 C911.910893,175.68016 911.679719,175.026751 911.30576,174.308071 L910.920919,173.567523 C910.266847,172.276663 909.687757,170.83317 909.29998,167.443546 Z M913.012372,152.389322 C911.679719,154.545364 912.230458,155.807986 912.618015,158.229879 C912.808394,159.398671 912.318848,161.485361 911.183373,164.13163 C912.067276,166.013663 911.774908,168.715686 912.366443,171.658402 C912.783464,173.737642 913.562663,174.664155 914.333015,174.955582 L914.433416,174.990036 L918.499368,155.412949 C917.690257,155.483661 916.629574,155.481621 915.84766,155.460544 C914.630594,155.427227 914.141048,154.317589 913.012372,152.389322 Z" id="Shape" fill="#F1CD61"></path>
                        <path d="M991.448544,149.432291 C993.046368,149.425528 994.453813,151.323879 993.739892,153.22359 L993.58165,153.662286 C993.207221,154.750471 993.012772,155.76383 993.474721,156.462754 C994.875367,156.94482 996.711165,156.324729 997.649462,157.877678 C998.594558,159.439466 1001.22587,161.519357 1000.59354,162.542645 C999.961208,163.565932 1000.07679,164.670131 999.328877,164.610977 C998.580959,164.552504 997.248306,163.94465 997.703856,163.161377 C998.166205,162.378103 998.975316,161.973547 998.975316,161.973547 L996.384801,160.240418 L996.259245,160.588819 C995.998744,161.354002 995.427861,163.270669 995.4805,165.239908 C995.548493,167.784188 997.948629,170.696308 997.166715,172.560663 C996.840351,173.338497 996.099232,174.607238 995.337716,175.925613 L995.470813,176.324282 C995.977649,177.78934 996.672069,179.24835 996.915143,179.31504 C998.231725,179.669219 999.59888,180.349875 1000.77141,181.098012 L1001.11708,181.324219 C1002.28175,182.109412 1003.11517,182.161021 1003.87241,181.926862 L1004.01356,181.879718 C1006.10514,181.127267 1005.47085,183.918445 1005.62889,185.456992 L1005.65898,185.67778 C1005.92415,187.149138 1004.97906,188.166306 1004.40112,188.03984 C1003.24525,187.786228 1003.91157,186.13061 1003.41523,185.702257 C1002.91208,185.273904 1002.63331,184.305691 1002.10297,183.661802 C1001.57943,183.017912 995.772868,181.834843 994.365423,181.103923 C994.052658,180.942101 993.658301,180.507629 993.236747,179.916774 C993.148357,180.157467 993.093963,180.366204 993.073565,180.530746 C992.910383,181.957229 993.365933,185.255546 992.502428,187.288523 C991.638923,189.320819 991.543733,190.337987 991.57773,191.114462 C991.591328,191.348356 991.679719,191.58973 991.740912,191.817504 L993.371408,191.573951 C1009.78232,189.16205 1029.39473,187.467189 1054.26683,187.197413 C1063.57384,187.09643 1072.41157,187.260066 1081.00772,187.599961 L1080.99621,299.009952 L1073.27588,299.54784 C1052.73977,300.970673 1032.62526,302.300724 1013.1781,303.525891 L761.638307,303.527548 C705.076925,281.655206 611.754808,225.575533 685.726973,224.772799 C764.76148,223.915414 791.944889,213.784528 877.193912,212.85983 C921.926191,212.374363 942.425936,199.8617 987.477781,192.479752 C987.063026,192.263535 986.933841,191.934452 987.402989,191.453744 L987.836323,191.005989 C989.036917,189.736778 990.171499,188.219413 990.238277,185.551314 C990.29947,182.801696 989.966307,180.645653 991.339756,176.633415 L991.135777,176.232164 C990.04123,174.131686 988.379403,171.587113 989.075605,167.657722 C989.408768,165.798807 989.320378,164.844192 988.708445,163.552334 L988.64911,163.858557 C988.201943,165.952325 987.099495,166.9663 986.151927,164.754441 C985.968347,164.328808 985.913953,163.750872 985.723574,163.638684 C983.853779,162.545364 985.098043,161.339857 985.798365,161.528876 C986.498688,161.718575 987.097023,162.982556 987.097023,162.982556 L987.023718,162.496983 C986.900694,161.602096 986.699266,159.708037 987.056227,158.873768 C987.511777,157.801526 989.218389,157.789968 990.428656,157.148118 C990.543843,156.577301 990.520505,155.550553 990.007188,155.347839 L989.905114,155.319799 C989.075605,155.182454 988.409278,153.458164 988.586059,152.105113 C988.769639,150.752742 989.857519,149.439126 991.448544,149.432291 Z" id="Path" fill="#CDCD5B"></path>
                        <path d="M128.464352,59.2171305 L127.906134,54.922043 L127.906134,54.922043 L134.425528,65.1758699 C150.473939,90.4883867 190.599317,154.239806 190.642833,158.941081 C190.66799,161.593469 185.356414,164.545024 178.506848,166.885327 L180.053527,167.108586 C188.03341,168.286011 194.442295,169.63198 197.03141,170.58684 C196.467752,173.561513 194.884886,175.638684 192.318168,177.048169 C220.205301,178.546044 247.03447,180.702767 273.234028,183.58157 L276.981107,184.001125 C302.130567,186.869095 330.596938,191.13669 358.675038,195.657354 L387.4104,200.321208 C447.29234,210.072714 500.391444,219.191633 499.911573,226.725545 C499.561412,232.22138 470.877407,232.798637 470.613596,238.282233 C470.257315,245.67302 521.930271,253.750532 540.775758,256.772799 C591.368993,264.884987 643.03311,276.772799 695.749071,292.212541 L0.007513197,281.66398 L0.007513197,281.66398 L0.007513197,177.509311 C36.2321211,177.962633 68.6881559,174.335325 106.93928,174.590919 L113.320378,174.661632 L112.570943,174.397209 C104.67414,171.529817 103.929251,168.601458 103.929251,168.601458 L104.89135,168.583633 C108.131158,168.504061 119.241233,168.077538 133.447524,165.840282 C128.822673,163.386432 124.369163,160.263535 120.535744,156.281213 C108.973616,144.271695 99.5450933,125.069247 103.6634,102.013663 C108.953898,72.3927212 126.422537,60.5151077 128.464352,59.2171305 Z M128.516706,59.6101273 L128.343742,60.2484518 C126.732589,66.3562092 119.999202,96.1995953 132.350125,128.737443 C135.526055,137.105283 139.800745,144.372323 144.314769,150.518167 C137.164675,122.669791 130.517046,74.6922283 128.516706,59.6101273 Z" id="Shape" fill="#00C593"></path>
                        <path d="M16.3814013,163.519697 C19.893215,167.227329 26.0220609,177.1318 26.0220609,177.1318 L30.9766759,181.966748 L30.9766759,181.966748 C31.6735992,181.40513 32.2930111,181.239228 32.8070345,181.683219 C33.7283332,182.479412 33.4169274,183.143699 32.8240327,183.778749 L35.026622,185.945469 C38.8335894,189.696704 43.2357274,194.068057 46.9617175,197.85864 C47.330237,197.706337 47.6334836,197.626106 47.893215,197.752572 L48.173552,197.893942 C49.1548699,198.407516 51.0469901,199.589696 49.1062016,200.054798 L50.2305004,201.219617 C51.3145137,202.348569 52.2719334,203.364504 53.0511277,204.21866 L54.5115204,204.101347 C67.0792634,203.123997 77.2518567,203.186609 78.6877076,205.575111 C77.0076125,208.082675 69.5107571,210.516808 59.6334836,212.338327 C104.324968,217.235149 136.597618,229.197073 226.516366,229.197073 L235.468114,229.198537 C256.942119,229.245926 271.988735,229.919923 275.513137,237.940231 C281.233095,250.957266 253.482635,276.720237 217.490004,303.525655 L48.401514,303.525655 L38.8233744,300.987673 C25.9973368,297.584899 12.9721781,294.112176 0.00731614158,290.632325 L0.00731614158,210.956491 C1.92135607,210.846146 3.80364387,210.748341 5.65014178,210.663671 L6.92618264,210.4193 C10.7776858,209.695033 16.0324825,208.817815 21.9595077,207.935132 C21.1911923,205.059728 21.2061506,199.735913 21.7745681,197.470403 C21.8446004,195.67948 23.7402319,191.989526 25.775248,188.963858 L27.4589832,186.430421 C28.3725198,185.062278 29.2434615,183.806116 30.0410988,182.894166 L28.7974355,181.696111 C27.1486205,180.118074 25.9072843,178.977405 25.3224178,178.533126 L24.8588557,178.276189 C20.9262964,176.052344 13.5322347,170.83144 12.6091763,168.378443 C11.648442,165.825324 12.8689077,159.812745 16.3814013,163.519697 Z M35.0917847,204.774784 L35.2581649,204.781638 C36.3236077,204.783678 37.6739392,205.160357 38.993674,205.653303 C43.2160095,205.153558 47.4458243,204.706847 51.4913792,204.351926 L47.402309,200.206422 L47.402309,200.206422 C43.7687887,200.213901 36.6431725,199.118541 35.3547143,198.650753 C33.8920839,198.12004 32.1830136,204.535526 35.0917847,204.774784 L35.0917847,204.774784 Z M31.8809764,184.687809 C31.7177943,184.847591 31.5648112,185.008054 31.4397049,185.171915 L31.3057945,185.351483 C30.977111,185.801732 30.4054027,186.640418 29.7371722,187.686959 C31.8857359,187.502019 33.5542723,189.666901 33.3632133,191.40139 C33.2564651,192.369604 32.8743471,193.485361 32.2923311,194.417538 C32.7424416,194.440656 33.1626354,194.472612 33.5100772,194.518847 C36.529625,194.920683 40.7220439,197.918473 43.2404868,198.504569 C44.1978215,198.727584 44.9770158,198.612677 45.6229448,198.40802 L41.6234878,194.379547 C38.3067919,191.047392 34.812014,187.559813 31.8809764,184.687809 Z M26.8291321,192.67557 C26.4374952,193.432327 26.0812144,194.177525 25.7902064,194.872408 C26.221279,194.783338 26.6727493,194.712626 27.129659,194.649393 C26.9263614,194.062618 26.8318518,193.379293 26.8291321,192.67557 Z" id="Shape" fill="#0075A1"></path>
                        <path d="M639.533535,33.1528776 L639.2675,34.7819288 C637.629288,44.4215024 628.052114,95.6202582 600.329727,155.638004 L602.325625,156.210486 C606.307044,157.369396 613.273916,159.493973 618.888966,161.711096 C618.944719,158.095934 621.717454,154.669111 625.516197,154.485531 C630.094813,154.263875 630.904604,162.179565 628.982455,166.527006 C630.313069,169.241948 631.409788,172.260136 632.021721,174.635115 C634.147167,182.881247 627.94353,188.392721 616.538464,195.465303 C606.253915,201.843002 595.549173,202.700387 585.222469,209.941591 C591.279923,211.412949 597.089883,213.241948 601.113001,215.453744 C602.853609,216.410399 603.954408,217.31266 604.48475,218.146928 C605.326497,218.211521 606.166885,218.272034 607.004553,218.327788 L608.950951,218.452142 C640.851405,220.404057 677.939749,218.506078 695.728673,217.247387 C772.829775,211.793654 944.462365,227.183572 1081.01379,247.569296 L1081.01379,303.5247 L183.708915,303.5247 C172.378035,293.74374 160.544909,288.253384 148.409278,288.812915 C134.580821,289.450588 125.165916,297.691296 117.831965,303.5247 L0,303.5247 L0,258.942343 L4.57824015,258.314214 C54.5949297,251.540034 126.364107,244.607311 217.76165,235.778749 C298.373966,227.991797 371.874617,229.582816 445.622331,217.845657 L449.665125,217.194601 C465.560508,214.686421 504.154775,209.97913 536.288932,211.170896 C540.752641,211.336797 545.174194,211.625086 549.554952,211.995645 C551.632124,209.58463 555.893215,207.250447 557.979906,205.269825 L560.301513,205.541334 C562.778585,205.847077 567.020929,206.413263 571.959848,207.251127 L571.65811,206.184767 C568.810554,195.871621 556.178566,143.427391 578.643513,95.1783748 C604.285532,40.1078325 639.533535,33.1528776 639.533535,33.1528776 Z M592.930101,170.983236 C586.899844,182.958079 580.144107,195.164776 572.585379,207.357875 C573.610026,207.534656 574.66595,207.724355 575.736152,207.924253 C580.329047,206.997515 585.474721,204.886347 587.356754,200.729964 L587.680662,199.999243 C590.003071,194.655778 589.515557,193.731471 602.342006,191.655578 L603.207171,191.516978 C615.054187,189.637664 615.4839,184.546384 617.204111,173.779769 L616.439473,173.772874 C610.785777,173.704307 601.464643,173.203932 592.930101,170.983236 Z M597.737852,161.163076 C596.791396,163.149818 595.827942,165.144039 594.840691,167.147098 L596.856597,167.166258 C602.511287,167.240987 612.009957,167.541265 618.085294,168.671491 C618.193402,168.103073 618.313749,167.511538 618.435455,166.920003 L617.658081,166.585273 C612.715238,164.483848 605.069573,161.743628 597.737852,161.163076 Z" id="Shape" fill="#00C1B3"></path>
                        <path d="M1081.00833,252.746981 L1081.00833,303.524627 L0.00727249482,303.524627 L0.00727249482,259.167109 C18.1237204,259.543248 36.3094023,259.679233 54.5795995,259.576131 C92.6455115,259.361574 163.315069,256.13538 206.324466,254.890362 L227.259706,254.316356 C269.025313,253.202411 315.347657,252.178837 342.187963,252.776879 C420.75468,254.527006 486.623795,264.642934 565.203431,263.655682 L567.979073,263.6129 C613.28811,262.789096 679.571831,255.598546 740.772748,248.244881 L744.665694,247.778834 C779.85662,243.628062 936.40224,227.388599 1081.00833,252.746981 Z" id="Path" fill="#39335D"></path>
                </g>
            </g>
		</svg>        
