<?xml version="1.0" encoding="utf-8"?>
<!-- Generator: Adobe Illustrator 19.0.0, SVG Export Plug-In . SVG Version: 6.00 Build 0)  -->
<svg version="1.1" id="Layer_1" xmlns="http://www.w3.org/2000/svg" xmlns:xlink="http://www.w3.org/1999/xlink" x="0px" y="0px"
	 viewBox="-142 133 98 91" style="enable-background:new -142 133 98 91;" xml:space="preserve">
<style type="text/css">
	.st0{fill:#FFFFFF;}
</style>
<g id="XMLID_745_">
	<path id="XMLID_747_" class="st0" d="M-135.3,143.8c0,0,6.8-0.7,7.6-9.7l20.5,22.4l13.7,15.5l21.6,23.4l3.1-3.7l2.1,7.6v0.3
		l10.8,11.7l5.1,0.6l-8.5,11l-1.5-6.6l-11-10.4l-7.5-1.1l3.1-3.8L-135.3,143.8z"/>
	<path id="XMLID_746_" class="st0" d="M-58.4,134c0,0,0.9,7.6,7,9.9L-68.6,161l-41.3,39.4l2.8,4.2l-7.5,1.5l-11.3,10.6l-1.3,6.2
		l-8.1-10.6l4.5-0.6l12-12.6l1.1-7.5l3.1,3.4l43.9-48.3L-58.4,134z"/>
</g>
</svg>
