<?xml version="1.0" encoding="utf-8"?>
<!-- Generator: Adobe Illustrator 19.0.0, SVG Export Plug-In . SVG Version: 6.00 Build 0)  -->
<svg version="1.1" id="Layer_1" xmlns="http://www.w3.org/2000/svg" xmlns:xlink="http://www.w3.org/1999/xlink" x="0px" y="0px"
	 viewBox="-256 351 98 91" style="enable-background:new -256 351 98 91;" xml:space="preserve">
<style type="text/css">
	.st0{fill:none;stroke:#34363E;stroke-miterlimit:10;}
	.st1{fill:#34363E;}
</style>
<g id="XMLID_745_">
	<path id="XMLID_747_" class="st0" d="M-248.3,361.1c0,0,6.8-0.7,7.6-9.7l20.5,22.4l13.7,15.5l21.6,23.4l3.1-3.7l2.1,7.6v0.3
		l10.8,11.7l5.1,0.6l-8.5,11l-1.5-6.6l-11-10.4l-7.5-1.1l3.1-3.8L-248.3,361.1z"/>
	<path id="XMLID_746_" class="st0" d="M-171.5,351.4c0,0,0.9,7.6,7,9.9l-17.1,17.1l-41.3,39.4l2.8,4.2l-7.5,1.5l-11.3,10.6l-1.3,6.2
		l-8.1-10.6l4.5-0.6l12-12.6l1.1-7.5l3.1,3.4l43.9-48.3L-171.5,351.4z"/>
</g>
<g id="XMLID_1_">
	<path id="XMLID_3_" class="st1" d="M-243.3,364.2c0,0,6.3-0.7,6.9-8.8l18.8,20.5l12.5,14.2l19.8,21.4l2.8-3.4l1.9,6.9v0.3l9.9,10.8
		l4.7,0.6l-7.8,10.1l-1.3-6l-10-9.6l-6.9-1l2.8-3.4L-243.3,364.2z"/>
	<path id="XMLID_2_" class="st1" d="M-173,355.3c0,0,0.8,6.9,6.4,9.1l-15.7,15.7l-37.9,36.1l2.6,3.8l-6.8,1.3l-10.3,9.7l-1.2,5.7
		l-7.4-9.7l4.1-0.6l11-11.5l1-6.8l2.8,3.1l40.2-44.2L-173,355.3z"/>
</g>
</svg>
