<?xml version="1.0" encoding="utf-8"?>
<!-- Generator: Adobe Illustrator 19.0.0, SVG Export Plug-In . SVG Version: 6.00 Build 0)  -->
<svg version="1.1" id="Layer_1" xmlns="http://www.w3.org/2000/svg" xmlns:xlink="http://www.w3.org/1999/xlink" x="0px" y="0px"
	 viewBox="0 0 864 576" style="enable-background:new 0 0 864 576;" xml:space="preserve">
<style type="text/css">
	.st0{fill:#FFFFFF;}
</style>
<g>
	<g>
		<path class="st0" d="M704,250.9l3-6l-3.9-9.3c0,0,0.9-1.5,1.7-0.2c0.8,1.3,16.9,29.1,16.9,29.1s0.9,3.9,0.9,5c0,0,0.2,2.1,3.1-2.8
			c0,0,4-5.6,4.1-8.3c0.1-2.8,0.5-4.1,0.2-6.3c-0.3-2.3,0.9-5.2-1.3-6.8c0,0-4.2-4-4.6-6.1c0,0-0.6-1.6-2.3,1.8c0,0-2.4,3.4-1.8,4.6
			c0.6,1.1,2.4,4,3.6,5.6c0,0,2.6,2.2,0.6,6.8c0,0-4.3-7.8-7-13.1l-11.4-21.1l1.3-1.6c0,0-1-1.6-1.8-1.7c-0.8-0.2-7,9.7-7,10.5
			c0,0.8-0.5,3.1,0.3,4.7l0.6,0.8c0,0-1-0.1-1.3,1.3C697.4,239.1,701.5,247.2,704,250.9z"/>
		<g>
			<path class="st0" d="M689.1,263.9c3.9-0.7,4.1,7.4,5.7,9.6c2.6,4.2,5.1,8.5,6.8,13c1.3,3.2-0.2,8.6,2.8,11.1
				c4.8,3.6,9.6-5.8,10.1-8.9c0.5-3.6,0-7.8-0.3-11.1c-0.1-2.6-3.2-11.3-6.6-8c-2.7,2.6-0.8,9.1,0.3,11.8c0.2,0.8,2.8,4.3,1.9,5.1
				c-1.9,1.5-3.2-4-3.6-4.8c-2.9-5.9-6.5-11.7-9.2-17.5c-1.2-2.6-2.3-5.1-3.1-7.9c-1-2.4-3.4-5-3.7-7.4c-4.8,0.7-7.3,13.5-7.6,16.9
				c-0.4,5.7,3.2,12.1,8.4,15.5c2.4-4.1,2.6-4.7,0.4-8.9c-1.4-2.7-1.1-5.6-2.3-8.2"/>
		</g>
		<g>
			<path class="st0" d="M717.4,208.5c0.2,1.8,2,3.2,2.3,5.1c0.2,1.6,1.1,4,0.9,5.5c-0.1,2.1-2.2,5.2-4.4,3c-1.4-1.4-1.3-4.5-1.9-6.1
				c-1.6-3.2-4-6.4-3-10c0.5-1.9,2.3-3.6,2.8-5.4c0.4-1-0.1-4.4,0.9-4.9c5.2-3.2,11.5,14.8,12.5,17.2c1.4,3.1,3.3,6.1,5.3,9
				c0.8,1.4,2,2.5,2.6,4c0.4,1.1,0.3,2.4,0.9,3.4c2.9-2.3,6.4-8.5,7.5-11.8c0.4-1.3-0.7-4.7,1-5.4c2.9-1.2,2.8,2.7,2.6,4
				c-0.3,3.9-2.7,7.8-4.6,11.2c-0.7,1.8-1.9,3.3-2.2,4.9c-0.5,2.4,0.3,4.4-3.4,4.1c-4.5-0.4-4.2-3.2-5.2-5.7c-1.2-2.7-3.2-5.1-4.3-8
				c-0.6-1.6-8.8-16.3-10.7-14"/>
		</g>
		<g>
			<path class="st0" d="M740.6,185.9c-3.1-5.6-9.4-10.7-11.3-16.6c-2.9,1.8-2.5,7.3-3.7,9.6c-1.3,2.8-1,7.1,0.1,10.2
				c1,3.2,4.9,9.9,7.1,4.1c1.1-2.9-1.5-6.6-2-9.8c0-0.3-0.6-1-0.8-1.4c4.3,1.4,4.1,8,6.5,10.7c1.3-2,1.8-4.4,3.5-6.5"/>
		</g>
		<path class="st0" d="M739.9,183.9l8.4-16c0,0,6.7,4.4,7,14.1c0,0-0.7,1.3-0.5,3.2c0.2,1.9,0.2,1.9,0.2,1.9s-2.6,4.9-4.3,7.7
			c0,0-3.3,0.4-3.4-3.7c-0.1-4-0.2-6.5,3.1-7.8c3.3-1.4-0.2-0.6-0.2-0.6s0.7-2.6-0.3-3.2c-1-0.6-4.5,6.1-4.8,9.1
			c-0.3,3.1-0.3,3.1-0.3,3.1L739.9,183.9z"/>
		<path class="st0" d="M733.8,217.3l14,22.9l16.1-33.2c0,0,2.5-1.2,2.9,0.6c0.4,1.8-2.2,6.2-3.5,8.3l2.7,7.2c0,0,3.6-5.6,4.3-7.8
			c0.7-2.3-0.1-4.5-0.3-5.8c-0.2-1.3,2.4-6.5-5.3-15.8c0,0-1-1.1-1.6-0.5c-0.6,0.7-5.1,13.3-7.3,18.9c-2.2,5.5-8.1,17.4-8.1,17.4
			l-10.6-18.2C737.1,211.2,733.5,215.5,733.8,217.3z"/>
		<path class="st0" d="M762,238.3c0,0,4.4,5.1,3.7,6.6c-0.7,1.5-4.3,6.2-3.3,9.3s1.1,3.1,1.1,3.1s9.4-21.2,11.1-25.9
			c1.6-4.7,4.2-10.6,4.2-10.6s4.3,2.4,6.3,10.1c0,0,3.1,5.9,1.4,10c-1.7,4.1-6,9.6-6,9.6s-4.5-7-2.9-7.9c1.5-0.8,1.5-0.8,1.5-0.8
			s1.9-4.1,2-6.2c0.1-2.1,0.3-4.8-0.9-3.5c-1.1,1.3-3.8,11.2-4.8,12.4c-0.9,1.1-10.2,22.8-12.5,24.5c0,0-1.9,1.2-2.2-0.8
			c-0.2-1.9-4.7-9.1-4.6-11.2c0.1-2.1,0.1-5.8,0.1-5.8S758,243.4,762,238.3z"/>
		<path class="st0" d="M775.5,267.3c0,0,5.7,5.1,4.4,6.4c-1.3,1.3-4.5,8.4-3.4,10.5l0.7,1c0,0,3.4-7.9,5.2-11.6
			c1.7-3.7,11.2-25,11.2-25s6.1,4.6,6.1,6.9c0.1,2.3,0.4,5,0.6,7.5c0.2,2.6,0.6,6.8-0.9,9.4c-1.5,2.6-3.1,7.3-3.9,7.2
			c-0.8-0.1-2.7-3.1-3.1-5.5c-0.4-2.4-0.1-3.4-0.1-3.4s3.3-4.6,3.5-6.5c0.2-2-0.9-3.4-0.9-3.4s-2.7,6.8-3.9,9.4
			c-1.2,2.6-14,28.6-14,28.6s-4.9-8.5-6-13.3c-1.2-4.7-0.9-5.4-0.3-8.5C771.3,273.8,775.5,267.3,775.5,267.3z"/>
		<path class="st0" d="M791.1,296.9c0,0,4.2,6.4,3.9,6.7c-0.2,0.3-5.9,8.5-4.8,10.3c0,0,0.4,1.4,1.1,0.5c0.6-0.9,18-38.5,18-38.5
			s15.1,23.5,14,26.7c-1.1,3.2-1.5,5.7-2.3,5.1c-0.8-0.6-8-14.8-9.5-16.6c-1.5-1.8-19.3,38.2-19.3,38.2s-2.4-3.5-5-8.7
			c-2.6-5.2-2.6-4.7-2.6-6.5c0-1.8-0.7-3.8,0.6-6.9C786.4,303.9,791.1,296.9,791.1,296.9z"/>
		<path class="st0" d="M809.6,328.3c0,0,4.6,2.8,4.2,5.9c-0.4,3-3.4,10.4-3.2,11.7c0.2,1.3,1.9,2.2,1.9,2.2l6.2-13.9l2.8,9
			l-6.7,16.5c0,0,0.3,2.6-3.1-0.2c0,0-6.9-7.6-7.1-8c-0.1-0.3-0.1-4.9,0.6-5.3c0.8-0.4-1.4-2.9-1.4-2.9S808.6,329.5,809.6,328.3z"/>
		<path class="st0" d="M685,308.6c0,0,8.1,21.4,9,21.5c0.9,0.1,6.2-5.3,6.6-8.2c0.3-2.9-0.6-4.5-0.6-4.5s0.9-10.4,1-11.9
			c0.1-1.5-5.5-7.7-5.5-7.7l-3.6,5.4c0,0,4.2,7.9,4.4,10.3s-0.6,4-1.2,2.7c-0.7-1.3-17.3-30.3-19-36.4c0,0-0.7-2.6-2.1-0.4
			l-13.5,22.1l3.1,8.1c0,0,9.5-16.6,10.1-17.3C674.2,291.7,685,308.6,685,308.6z"/>
		<path class="st0" d="M667.1,335.5c-0.1,0.3,10.5,23.5,11.6,24.3c1.2,0.7,3.5-3.6,5.8-7.8c2.2-4.1,5.8-7.3-1-18.6l-3.9-6.2
			l-3.5,7.2c0,0,1.7,3.6,3,6.1c1.4,2.5,1.6,5.5,1.1,6.1c-0.5,0.7-0.4,1.1-0.4,1.1s-3.6-4.1-5.7-10.4
			C672.1,331.1,667.1,335.5,667.1,335.5z"/>
		<g>
			<path class="st0" d="M664.6,331.1l4.2,7.8c0,0-10.4,21.2-11.2,21.2c-0.8,0-4.2-2.6-4.3-3.9c0-1.3,0.4-4.3-0.5-4.9
				c-0.9-0.6-3-0.7-3-1.6s-0.9-8.2,0.6-10.8c1.5-2.6,6-11.5,6.3-12c0.4-0.4,3.4,2,3.8,4.9c0.3,2.9-3.2,7.3-3.6,10.5
				c-0.4,3.2,1,4.9,1,4.9s2.5-7.6,3.9-10.2C663.2,334.5,664.6,331.1,664.6,331.1z"/>
		</g>
		<path class="st0" d="M674.2,337.3c-2-0.5-4-1-6-1.4c-1.6-0.4-3.3-0.8-4.9-1.2c0.1-0.1,0.1-0.3,0.2-0.4c0.2-0.3,0.3-0.5,0.4-0.8
			c1.1-2.5,2.5-4.9,3.7-7.4c0.1-0.2,0-0.3,0.1-0.5c2.9-5.4,5.5-10.6,8.2-16.1c0.1-0.2,0-0.3,0.1-0.5c2-3.8,4-7.5,5.8-11.4
			c1.5-3.3,3.3-6.3,4.7-9.7c0.6-1.3,1.4-2.5,2-3.7c0.1-0.2,0-0.3,0.1-0.5c1-1.9,2-3.7,3-5.7c7.3-14.9,14.6-29.3,21.9-44.2
			c1.4-2.7,2.7-5.3,4.1-7.9c0.1-0.2,0-0.3,0.1-0.5c2.2-4.2,4.2-8.4,6.5-12.6c0.1-0.2,0-0.3,0.1-0.5c2.9-5.3,5.3-10.8,8.2-16.1
			c0.1-0.2,0-0.3,0.1-0.5c2.2-4.2,4.2-8.5,6.4-12.7c0.1,0.1,0,0.1,0,0c3.4,6,6.8,12,10.2,18.1c10.5,18.8,20.8,37.2,31.4,55.9
			c5.3,9.6,10.6,18.9,16,28.5c0.1,0.2,0,0.3,0.1,0.5c11.5,20.3,22.6,40.2,34,60.3c-2.3,0,0-0.1,0,0c-2.8,0-5.7,0.1-8.6,0.1
			c-1.4-2.5-2.7-4.8-4.2-7.3c-0.1-0.2,0-0.3-0.1-0.5c-7.5-12.7-14.1-25.1-21.6-37.8c-0.1-0.2,0-0.3-0.1-0.5c-1.8-3-3.4-5.9-5.2-8.9
			c-4.4-8-8.8-15.7-13.3-23.7c-7.1-12.3-13.7-24.3-20.9-36.6c-0.1-0.2,0-0.3-0.1-0.5c-2.2-3.4-3.8-6.8-6-10.2
			c-0.1-0.2,0-0.3-0.1-0.5c-2.6-4.1-4.6-8.1-6.9-12.2c-1.1-1.8-2.2-3.6-3.2-5.5L674.2,337.3z"/>
		<path class="st0" d="M822.6,331.7l9.6,16.9c0,0,2.4,0.8,2.5-3.1c0.1-3.9-5.3-11.4-5.3-11.4l1.9-5.6c0,0,11.6,10.3,10.2,14.3
			c-1.9,5.3-5,14.6-6.3,17.2c-1.3,2.7-1.3,2.7-1.3,2.7s-11-14.3-13.8-20.3C817.2,336.5,822.6,331.7,822.6,331.7z"/>
	</g>
	<g>
		<g>
			<path class="st0" d="M74.4,237.3l3-6l-3.9-9.3c0,0,0.9-1.5,1.8-0.2c0.8,1.3,16.9,29.1,16.9,29.1s0.9,3.9,0.9,5
				c0,0,0.2,2.1,3.1-2.8c0,0,4-5.6,4.1-8.3c0.1-2.8,0.5-4.1,0.2-6.3c-0.3-2.3,0.8-5.2-1.3-6.8c0,0-4.2-4-4.6-6.1
				c0,0-0.6-1.6-2.3,1.8c0,0-2.4,3.4-1.8,4.6c0.6,1.1,2.4,4,3.6,5.6c0,0,2.6,2.2,0.6,6.8c0,0-4.3-7.9-6.9-13.1l-11.4-21.1l1.3-1.6
				c0,0-1-1.6-1.8-1.7c-0.8-0.1-7,9.7-7,10.5c0,0.8-0.5,3.1,0.3,4.7l0.6,0.8c0,0-1-0.1-1.3,1.3C67.9,225.5,72,233.7,74.4,237.3z"/>
			<g>
				<path class="st0" d="M59.5,250.4c3.9-0.7,4.1,7.4,5.7,9.6c2.6,4.2,5.1,8.5,6.8,13c1.2,3.2-0.2,8.6,2.8,11.1
					c4.8,3.6,9.6-5.8,10.1-8.9c0.5-3.6,0-7.8-0.3-11.1c-0.1-2.6-3.2-11.3-6.6-8c-2.7,2.6-0.7,9.1,0.3,11.8c0.2,0.8,2.8,4.3,1.9,5.1
					c-1.9,1.5-3.2-4-3.6-4.8c-2.9-5.9-6.5-11.7-9.2-17.5c-1.2-2.6-2.3-5.1-3.1-7.9c-1-2.4-3.4-5-3.7-7.4c-4.9,0.7-7.3,13.5-7.6,16.9
					c-0.4,5.7,3.2,12.1,8.4,15.5c2.4-4.1,2.6-4.7,0.4-8.9c-1.4-2.7-1.1-5.6-2.3-8.2"/>
			</g>
			<g>
				<path class="st0" d="M87.8,194.9c0.2,1.8,2,3.2,2.3,5.1c0.2,1.6,1.1,4,0.9,5.5c-0.1,2.1-2.2,5.2-4.4,3c-1.4-1.4-1.3-4.5-1.9-6.1
					c-1.6-3.2-4.1-6.4-3-10c0.5-1.9,2.3-3.6,2.8-5.4c0.4-1-0.1-4.4,0.9-4.9c5.2-3.2,11.5,14.8,12.5,17.2c1.4,3,3.3,6.1,5.3,9
					c0.8,1.4,2,2.6,2.6,4c0.4,1.1,0.3,2.4,0.9,3.4c2.9-2.3,6.4-8.5,7.5-11.8c0.4-1.3-0.7-4.7,1-5.4c2.9-1.2,2.8,2.7,2.6,4
					c-0.3,3.9-2.7,7.8-4.6,11.2c-0.7,1.8-1.9,3.3-2.2,4.9c-0.5,2.4,0.3,4.4-3.4,4.1c-4.5-0.4-4.2-3.2-5.2-5.7
					c-1.2-2.7-3.2-5.1-4.3-8c-0.6-1.6-8.8-16.3-10.7-14"/>
			</g>
			<g>
				<path class="st0" d="M111,172.4c-3.1-5.6-9.4-10.7-11.3-16.6c-2.9,1.8-2.5,7.3-3.7,9.6c-1.3,2.8-1,7.1,0.1,10.2
					c1.1,3.2,4.9,9.9,7.1,4.1c1.1-2.9-1.5-6.6-2-9.8c0-0.3-0.6-1-0.8-1.4c4.3,1.4,4.1,8,6.5,10.7c1.3-2,1.8-4.4,3.5-6.5"/>
			</g>
			<path class="st0" d="M110.4,170.3l8.4-16c0,0,6.7,4.4,7,14.1c0,0-0.7,1.3-0.5,3.2c0.2,1.9,0.2,1.9,0.2,1.9s-2.6,4.9-4.3,7.7
				c0,0-3.3,0.4-3.4-3.7c-0.1-4-0.2-6.5,3.1-7.8c3.3-1.4-0.2-0.6-0.2-0.6s0.7-2.6-0.3-3.2c-1-0.6-4.5,6.1-4.8,9.1
				c-0.3,3.1-0.3,3.1-0.3,3.1L110.4,170.3z"/>
			<path class="st0" d="M104.2,203.7l14,22.9l16.1-33.3c0,0,2.5-1.2,2.9,0.6c0.4,1.8-2.2,6.2-3.5,8.3l2.7,7.2c0,0,3.6-5.6,4.3-7.8
				c0.7-2.3-0.1-4.5-0.3-5.8c-0.2-1.3,2.4-6.5-5.3-15.8c0,0-1-1.1-1.6-0.5c-0.6,0.7-5.1,13.3-7.3,18.9c-2.2,5.5-8.1,17.4-8.1,17.4
				l-10.6-18.2C107.5,197.7,103.9,201.9,104.2,203.7z"/>
			<path class="st0" d="M132.4,224.7c0,0,4.4,5.1,3.7,6.6c-0.7,1.5-4.3,6.2-3.3,9.3c1.1,3.1,1.1,3.1,1.1,3.1s9.4-21.2,11.1-25.9
				c1.6-4.7,4.2-10.6,4.2-10.6s4.3,2.4,6.3,10.1c0,0,3.1,5.9,1.4,10c-1.7,4.1-6,9.6-6,9.6s-4.5-7-2.9-7.9c1.5-0.8,1.5-0.8,1.5-0.8
				s1.9-4.1,2-6.2c0.1-2.1,0.3-4.9-0.9-3.5c-1.1,1.3-3.8,11.2-4.8,12.4c-0.9,1.1-10.2,22.8-12.5,24.5c0,0-1.9,1.2-2.2-0.8
				c-0.2-1.9-4.7-9.1-4.6-11.2c0.1-2.1,0.1-5.8,0.1-5.8S128.4,229.8,132.4,224.7z"/>
			<path class="st0" d="M145.9,253.7c0,0,5.7,5.1,4.4,6.4c-1.3,1.3-4.5,8.4-3.4,10.5l0.7,1c0,0,3.4-7.9,5.2-11.6
				c1.7-3.7,11.2-25,11.2-25s6.1,4.6,6.2,6.9c0.1,2.3,0.4,4.9,0.6,7.5c0.2,2.6,0.6,6.8-0.9,9.4c-1.5,2.6-3.1,7.3-3.9,7.2
				c-0.8-0.1-2.7-3.1-3.1-5.4c-0.4-2.4-0.1-3.4-0.1-3.4s3.3-4.6,3.5-6.5c0.2-2-0.9-3.4-0.9-3.4s-2.7,6.8-3.9,9.4
				c-1.2,2.6-14,28.6-14,28.6s-4.9-8.5-6-13.3c-1.2-4.7-0.9-5.4-0.3-8.5C141.7,260.2,145.9,253.7,145.9,253.7z"/>
			<path class="st0" d="M161.5,283.3c0,0,4.2,6.4,3.9,6.7c-0.3,0.3-5.9,8.5-4.8,10.3c0,0,0.4,1.4,1.1,0.5c0.6-0.9,18-38.5,18-38.5
				s15.1,23.5,14,26.7c-1.1,3.3-1.6,5.7-2.3,5.1c-0.8-0.6-8-14.8-9.5-16.6c-1.5-1.8-19.3,38.2-19.3,38.2s-2.4-3.5-5-8.8
				c-2.6-5.2-2.6-4.7-2.6-6.5c0-1.8-0.7-3.8,0.6-6.9C156.8,290.4,161.5,283.3,161.5,283.3z"/>
			<path class="st0" d="M180.1,314.8c0,0,4.6,2.8,4.2,5.9c-0.4,3-3.4,10.4-3.2,11.7c0.2,1.3,1.9,2.2,1.9,2.2l6.2-13.9l2.8,9
				l-6.7,16.5c0,0,0.3,2.6-3.1-0.2c0,0-7-7.6-7.1-8c-0.1-0.3-0.1-4.9,0.7-5.3c0.8-0.4-1.4-2.9-1.4-2.9S179.1,316,180.1,314.8z"/>
			<path class="st0" d="M55.5,295c0,0,8.1,21.4,9,21.5c0.9,0.1,6.2-5.3,6.6-8.2c0.3-2.9-0.6-4.5-0.6-4.5s0.9-10.4,1-11.9
				c0.1-1.5-5.5-7.7-5.5-7.7l-3.6,5.4c0,0,4.2,7.9,4.4,10.3c0.2,2.4-0.6,4-1.2,2.7c-0.7-1.3-17.2-30.3-19-36.4c0,0-0.7-2.6-2.1-0.4
				L30.9,288l3.1,8.1c0,0,9.5-16.6,10.1-17.3C44.7,278.1,55.5,295,55.5,295z"/>
			<path class="st0" d="M37.5,321.9c-0.1,0.3,10.5,23.5,11.6,24.3c1.2,0.7,3.6-3.6,5.8-7.8c2.2-4.1,5.8-7.3-1-18.6l-3.9-6.2
				l-3.5,7.2c0,0,1.6,3.6,3,6.1c1.4,2.5,1.6,5.5,1.1,6.1c-0.5,0.7-0.4,1.1-0.4,1.1s-3.6-4.1-5.7-10.4
				C42.5,317.5,37.5,321.9,37.5,321.9z"/>
			<g>
				<path class="st0" d="M35,317.5l4.2,7.8c0,0-10.4,21.2-11.2,21.2c-0.8,0-4.2-2.6-4.3-3.9s0.4-4.3-0.5-5c-0.9-0.6-3-0.7-3-1.6
					c0-0.9-0.9-8.2,0.6-10.8c1.5-2.6,6-11.5,6.3-12c0.4-0.4,3.4,2,3.8,4.9c0.3,2.9-3.2,7.3-3.6,10.5c-0.4,3.2,1,4.9,1,4.9
					s2.5-7.6,3.9-10.2C33.6,320.9,35,317.5,35,317.5z"/>
			</g>
			<path class="st0" d="M44.6,323.7c-2-0.5-4-1-6-1.4c-1.6-0.4-3.2-0.8-4.9-1.2c0.1-0.1,0.1-0.3,0.2-0.4c0.2-0.3,0.3-0.5,0.4-0.8
				c1.1-2.5,2.5-4.9,3.7-7.4c0.1-0.2,0-0.3,0.1-0.5c2.9-5.4,5.5-10.7,8.2-16.1c0.1-0.2,0-0.3,0.1-0.5c2-3.8,4-7.5,5.8-11.4
				c1.5-3.3,3.4-6.3,4.7-9.7c0.6-1.3,1.4-2.5,2-3.7c0.1-0.2,0-0.3,0.1-0.5c1-1.8,2-3.7,3-5.7c7.3-14.9,14.6-29.3,21.9-44.2
				c1.4-2.7,2.7-5.3,4.1-7.9c0.1-0.2,0-0.3,0.1-0.5c2.2-4.2,4.2-8.4,6.4-12.6c0.1-0.2,0-0.3,0.1-0.5c2.9-5.3,5.3-10.8,8.2-16.1
				c0.1-0.2,0-0.3,0.1-0.5c2.2-4.2,4.2-8.5,6.4-12.7c0.1,0.1,0,0.1,0,0c3.4,6,6.8,12,10.2,18c10.5,18.8,20.8,37.2,31.4,55.9
				c5.3,9.6,10.6,18.9,16,28.5c0.1,0.2,0,0.3,0.1,0.5c11.5,20.3,22.6,40.2,34,60.3c-2.3,0,0-0.1,0,0c-2.8,0-5.7,0.1-8.6,0.1
				c-1.4-2.5-2.7-4.8-4.2-7.3c-0.1-0.2,0-0.3-0.1-0.5c-7.5-12.7-14.1-25.1-21.6-37.8c-0.1-0.2,0-0.3-0.1-0.5c-1.8-3-3.4-5.9-5.2-8.9
				c-4.4-8-8.8-15.7-13.3-23.7c-7.1-12.3-13.7-24.3-20.9-36.6c-0.1-0.2,0-0.3-0.1-0.5c-2.2-3.4-3.8-6.8-6-10.2
				c-0.1-0.2,0-0.3-0.1-0.5c-2.6-4.1-4.6-8.1-6.9-12.2c-1.1-1.8-2.2-3.6-3.2-5.5L44.6,323.7z"/>
			<path class="st0" d="M193,318.1l9.6,16.9c0,0,2.4,0.8,2.5-3.1c0.1-3.9-5.3-11.4-5.3-11.4l1.9-5.6c0,0,11.6,10.3,10.2,14.3
				c-1.9,5.3-5,14.6-6.3,17.2c-1.3,2.7-1.3,2.7-1.3,2.7s-11-14.3-13.8-20.3C187.6,323,193,318.1,193,318.1z"/>
		</g>
		<path class="st0" d="M231.4,236l3-6l-3.9-9.3c0,0,0.9-1.5,1.8-0.2c0.8,1.3,16.9,29.1,16.9,29.1s0.9,3.9,0.9,5c0,0,0.2,2.1,3-2.8
			c0,0,4-5.6,4.1-8.3c0.1-2.8,0.5-4.1,0.2-6.3c-0.2-2.3,0.8-5.2-1.3-6.8c0,0-4.2-4-4.6-6.1c0,0-0.6-1.6-2.3,1.8c0,0-2.4,3.4-1.8,4.6
			c0.6,1.1,2.4,4,3.6,5.6c0,0,2.6,2.2,0.6,6.8c0,0-4.3-7.9-7-13.1L233,208.8l1.3-1.6c0,0-1-1.6-1.8-1.8c-0.8-0.1-7,9.7-6.9,10.5
			c0,0.8-0.5,3.1,0.3,4.7l0.6,0.8c0,0-1-0.1-1.3,1.3C224.8,224.1,228.9,232.3,231.4,236z"/>
		<g>
			<path class="st0" d="M216.5,249c3.9-0.7,4.1,7.4,5.7,9.6c2.6,4.1,5.1,8.5,6.8,13c1.3,3.2-0.2,8.6,2.8,11.1
				c4.8,3.6,9.6-5.8,10.1-8.9c0.5-3.6,0-7.8-0.3-11.2c-0.1-2.6-3.2-11.3-6.6-8c-2.7,2.6-0.7,9.1,0.3,11.8c0.2,0.8,2.8,4.3,1.9,5.1
				c-1.9,1.5-3.2-4-3.6-4.8c-2.9-5.9-6.5-11.7-9.2-17.5c-1.2-2.6-2.3-5.1-3.1-7.9c-1-2.4-3.4-5-3.7-7.4c-4.9,0.7-7.3,13.5-7.6,16.9
				c-0.5,5.7,3.2,12.1,8.4,15.5c2.4-4.1,2.6-4.7,0.4-8.9c-1.4-2.7-1.1-5.6-2.3-8.2"/>
		</g>
		<g>
			<path class="st0" d="M244.7,193.5c0.2,1.8,2,3.2,2.3,5.1c0.2,1.6,1.1,4,0.9,5.5c-0.1,2.1-2.2,5.2-4.4,3c-1.4-1.4-1.3-4.5-1.9-6.1
				c-1.6-3.2-4.1-6.4-3-10c0.5-1.9,2.3-3.6,2.8-5.4c0.4-1-0.1-4.4,0.9-4.9c5.2-3.2,11.5,14.8,12.5,17.2c1.4,3,3.3,6.1,5.3,9
				c0.8,1.4,2,2.5,2.6,4c0.4,1.1,0.3,2.4,0.9,3.4c2.9-2.3,6.4-8.5,7.5-11.8c0.4-1.3-0.7-4.7,1-5.4c2.9-1.2,2.8,2.7,2.6,4
				c-0.3,3.9-2.7,7.8-4.6,11.2c-0.7,1.8-1.9,3.3-2.2,4.9c-0.5,2.4,0.3,4.4-3.4,4.1c-4.5-0.4-4.2-3.2-5.2-5.7c-1.2-2.7-3.2-5.1-4.3-8
				c-0.6-1.6-8.8-16.3-10.7-14.1"/>
		</g>
		<g>
			<path class="st0" d="M268,171c-3.1-5.6-9.4-10.7-11.3-16.6c-2.9,1.8-2.6,7.3-3.7,9.6c-1.3,2.8-1,7.1,0.1,10.2
				c1.1,3.2,4.9,9.9,7.1,4.1c1.1-2.9-1.5-6.6-2-9.8c0-0.3-0.6-1-0.8-1.4c4.3,1.4,4.1,8,6.5,10.7c1.3-2,1.8-4.4,3.5-6.5"/>
		</g>
		<path class="st0" d="M267.3,168.9l8.4-16c0,0,6.7,4.4,7,14.1c0,0-0.7,1.3-0.5,3.2c0.2,1.9,0.2,1.9,0.2,1.9s-2.6,4.9-4.3,7.7
			c0,0-3.3,0.4-3.4-3.7c-0.1-4-0.2-6.5,3.1-7.8c3.3-1.3-0.2-0.6-0.2-0.6s0.7-2.6-0.3-3.2c-1-0.6-4.5,6.1-4.8,9.1
			c-0.3,3.1-0.3,3.1-0.3,3.1L267.3,168.9z"/>
		<path class="st0" d="M261.1,202.3l14,22.9l16.1-33.3c0,0,2.5-1.2,2.9,0.6c0.4,1.8-2.2,6.2-3.5,8.3l2.7,7.2c0,0,3.6-5.6,4.3-7.8
			c0.7-2.3-0.1-4.5-0.3-5.8c-0.2-1.3,2.4-6.5-5.3-15.8c0,0-1-1.1-1.6-0.5c-0.6,0.7-5.1,13.3-7.3,18.9c-2.2,5.5-8.2,17.4-8.2,17.4
			l-10.6-18.2C264.5,196.3,260.9,200.5,261.1,202.3z"/>
		<path class="st0" d="M289.3,223.3c0,0,4.4,5.1,3.7,6.6c-0.7,1.5-4.3,6.2-3.3,9.3c1,3.1,1,3.1,1,3.1s9.4-21.2,11.1-25.9
			c1.6-4.7,4.2-10.6,4.2-10.6s4.3,2.3,6.3,10.1c0,0,3.1,5.9,1.4,10c-1.7,4.1-6,9.6-6,9.6s-4.5-7-2.9-7.9c1.5-0.8,1.5-0.8,1.5-0.8
			s1.9-4.1,2-6.2c0.1-2.1,0.3-4.9-0.9-3.5c-1.1,1.3-3.8,11.2-4.8,12.4c-0.9,1.2-10.2,22.8-12.5,24.5c0,0-1.9,1.2-2.2-0.8
			c-0.2-1.9-4.7-9.1-4.6-11.2c0.1-2.1,0-5.8,0-5.8S285.4,228.4,289.3,223.3z"/>
		<path class="st0" d="M302.9,252.3c0,0,5.7,5.1,4.4,6.4c-1.3,1.3-4.5,8.4-3.4,10.5l0.7,1c0,0,3.4-7.9,5.2-11.6
			c1.7-3.7,11.2-25,11.2-25s6.1,4.6,6.1,6.9c0.1,2.3,0.4,5,0.6,7.5c0.2,2.6,0.6,6.8-0.9,9.4c-1.5,2.6-3.1,7.3-3.9,7.2
			c-0.8-0.1-2.7-3.1-3.1-5.4c-0.4-2.4-0.1-3.5-0.1-3.5s3.3-4.6,3.5-6.5c0.2-1.9-0.9-3.4-0.9-3.4s-2.7,6.8-3.9,9.4
			c-1.2,2.6-14,28.6-14,28.6s-4.9-8.5-6-13.3c-1.2-4.7-0.9-5.4-0.3-8.5C298.6,258.9,302.9,252.3,302.9,252.3z"/>
		<path class="st0" d="M318.4,281.9c0,0,4.2,6.4,3.9,6.7c-0.2,0.3-5.9,8.5-4.8,10.3c0,0,0.4,1.4,1.1,0.5c0.6-0.9,18-38.5,18-38.5
			s15.1,23.5,14,26.7c-1.1,3.3-1.5,5.7-2.3,5.1c-0.8-0.6-8-14.8-9.5-16.7c-1.5-1.8-19.3,38.2-19.3,38.2s-2.4-3.5-5-8.8
			c-2.6-5.2-2.6-4.7-2.6-6.5c0-1.8-0.7-3.8,0.6-6.9C313.8,289,318.4,281.9,318.4,281.9z"/>
		<path class="st0" d="M212.4,293.6c0,0,8.1,21.4,9,21.5c0.9,0.1,6.2-5.3,6.6-8.2c0.3-2.9-0.6-4.5-0.6-4.5s0.9-10.4,1-11.9
			c0.1-1.5-5.5-7.7-5.5-7.7l-3.6,5.4c0,0,4.2,7.9,4.4,10.3c0.2,2.4-0.6,4-1.2,2.7c-0.7-1.3-17.3-30.3-19-36.4c0,0-0.7-2.6-2.1-0.4
			l-13.5,22.1l3.1,8.1c0,0,9.5-16.7,10.1-17.3C201.6,276.8,212.4,293.6,212.4,293.6z"/>
		<path class="st0" d="M201.6,322.4c-2-0.5-4-1-6-1.4c-1.6-0.4-3.3-0.8-4.9-1.2c0.1-0.1,0.1-0.3,0.2-0.4c0.2-0.2,0.3-0.5,0.4-0.8
			c1.1-2.5,2.5-4.9,3.7-7.4c0.1-0.2,0-0.3,0.1-0.5c2.8-5.4,5.5-10.7,8.2-16.1c0.1-0.2,0-0.3,0.1-0.5c2-3.8,4-7.5,5.8-11.4
			c1.5-3.3,3.4-6.3,4.7-9.7c0.6-1.3,1.4-2.5,2-3.7c0.1-0.2,0-0.3,0.1-0.5c1-1.9,2-3.7,3-5.7c7.3-14.9,14.6-29.3,21.9-44.2
			c1.4-2.7,2.7-5.3,4.1-7.9c0.1-0.2,0-0.3,0.1-0.5c2.2-4.2,4.2-8.4,6.4-12.6c0.1-0.2,0-0.3,0.1-0.5c2.9-5.3,5.3-10.8,8.2-16.1
			c0.1-0.2,0-0.3,0.1-0.5c2.2-4.2,4.2-8.5,6.4-12.7c0.1,0.1,0,0.1,0,0c3.4,6,6.8,12,10.2,18c10.5,18.8,20.8,37.2,31.4,55.9
			c5.3,9.6,10.6,18.9,16,28.5c0.1,0.2,0,0.3,0.1,0.5c11.5,20.3,22.6,40.3,34,60.3c-2.3,0,0-0.1,0,0c-2.8,0-5.7,0.1-8.6,0.1
			c-1.4-2.5-2.7-4.8-4.2-7.3c-0.1-0.2,0-0.3-0.1-0.5c-7.5-12.7-14.1-25.1-21.6-37.8c-0.1-0.2,0-0.3-0.1-0.5c-1.8-3-3.4-5.9-5.2-8.9
			c-4.4-8-8.8-15.7-13.3-23.7c-7.1-12.3-13.7-24.3-20.9-36.6c-0.1-0.2,0-0.3-0.1-0.5c-2.2-3.4-3.8-6.8-6-10.2
			c-0.1-0.2,0-0.3-0.1-0.5c-2.6-4-4.6-8.1-6.9-12.2c-1.1-1.8-2.2-3.6-3.2-5.5L201.6,322.4z"/>
		<g>
			<path class="st0" d="M542.3,252.4l3-6l-3.9-9.3c0,0,0.9-1.5,1.7-0.2c0.8,1.3,16.9,29.1,16.9,29.1s0.9,3.9,0.9,5
				c0,0,0.2,2.1,3.1-2.8c0,0,4-5.6,4.1-8.3c0.1-2.8,0.5-4,0.2-6.3c-0.3-2.3,0.9-5.2-1.3-6.8c0,0-4.2-4-4.6-6.1c0,0-0.6-1.6-2.3,1.8
				c0,0-2.4,3.4-1.8,4.6c0.6,1.1,2.4,4,3.6,5.6c0,0,2.6,2.2,0.6,6.8c0,0-4.3-7.9-7-13.1L544,225.2l1.3-1.6c0,0-1-1.6-1.8-1.8
				c-0.8-0.1-7,9.7-7,10.5c0,0.8-0.5,3.1,0.3,4.7l0.6,0.8c0,0-1-0.1-1.3,1.3C535.8,240.6,539.9,248.7,542.3,252.4z"/>
			<g>
				<path class="st0" d="M527.4,265.4c3.9-0.7,4.1,7.4,5.7,9.6c2.6,4.2,5.1,8.5,6.8,13c1.2,3.2-0.2,8.6,2.8,11.1
					c4.8,3.6,9.6-5.8,10.1-8.9c0.5-3.6,0-7.8-0.3-11.2c-0.1-2.6-3.2-11.3-6.6-8c-2.7,2.6-0.8,9.1,0.3,11.8c0.2,0.8,2.8,4.3,1.9,5.1
					c-1.9,1.5-3.2-4-3.6-4.8c-2.9-5.9-6.5-11.7-9.2-17.5c-1.2-2.6-2.3-5.1-3.1-7.9c-1-2.4-3.4-5-3.7-7.4c-4.9,0.7-7.3,13.5-7.6,16.9
					c-0.4,5.7,3.2,12.1,8.4,15.5c2.4-4.1,2.6-4.7,0.4-8.9c-1.4-2.7-1.1-5.6-2.3-8.2"/>
			</g>
			<g>
				<path class="st0" d="M555.7,210c0.2,1.8,2,3.2,2.3,5.1c0.2,1.6,1.1,4,0.9,5.5c-0.1,2.1-2.2,5.2-4.4,3c-1.4-1.4-1.3-4.5-1.9-6.1
					c-1.6-3.2-4.1-6.4-3-10c0.5-1.9,2.3-3.6,2.8-5.4c0.4-1-0.1-4.4,0.9-4.9c5.2-3.2,11.5,14.8,12.5,17.2c1.4,3,3.3,6.1,5.3,9
					c0.8,1.4,2,2.5,2.6,4c0.4,1.1,0.3,2.4,0.9,3.4c2.9-2.3,6.4-8.5,7.5-11.8c0.4-1.3-0.7-4.7,1-5.4c2.9-1.2,2.8,2.7,2.6,4
					c-0.3,3.9-2.7,7.8-4.6,11.2c-0.7,1.8-1.9,3.3-2.2,4.9c-0.5,2.4,0.3,4.4-3.4,4.1c-4.5-0.4-4.2-3.2-5.2-5.7
					c-1.2-2.7-3.2-5.1-4.3-8c-0.6-1.6-8.8-16.3-10.7-14"/>
			</g>
			<g>
				<path class="st0" d="M578.9,187.4c-3.1-5.6-9.4-10.7-11.3-16.6c-2.9,1.8-2.6,7.3-3.7,9.6c-1.3,2.8-1,7.1,0.1,10.2
					c1.1,3.2,4.9,9.9,7.1,4.1c1.1-2.9-1.5-6.6-2-9.8c0-0.3-0.6-1-0.8-1.4c4.3,1.4,4.1,8,6.5,10.7c1.3-2,1.8-4.4,3.5-6.5"/>
			</g>
			<path class="st0" d="M578.3,185.4l8.4-16c0,0,6.7,4.4,7,14.1c0,0-0.7,1.3-0.5,3.2c0.2,1.9,0.2,1.9,0.2,1.9s-2.6,4.9-4.3,7.7
				c0,0-3.3,0.4-3.4-3.7c-0.1-4-0.2-6.5,3.1-7.8c3.3-1.3-0.2-0.6-0.2-0.6s0.7-2.6-0.3-3.2c-1-0.6-4.5,6.1-4.8,9.1
				c-0.3,3.1-0.3,3.1-0.3,3.1L578.3,185.4z"/>
			<path class="st0" d="M572.1,218.8l14,22.9l16.1-33.2c0,0,2.5-1.2,2.9,0.6c0.4,1.8-2.2,6.2-3.5,8.3l2.7,7.2c0,0,3.6-5.5,4.3-7.8
				c0.7-2.3-0.1-4.5-0.3-5.8c-0.2-1.3,2.4-6.5-5.3-15.7c0,0-1-1.1-1.6-0.5c-0.6,0.7-5.1,13.3-7.3,18.9C592,219.1,586,231,586,231
				l-10.6-18.2C575.5,212.7,571.9,217,572.1,218.8z"/>
			<path class="st0" d="M600.3,239.8c0,0,4.4,5.1,3.7,6.6c-0.7,1.5-4.3,6.2-3.3,9.3c1.1,3.1,1.1,3.1,1.1,3.1s9.4-21.2,11.1-25.9
				c1.6-4.7,4.2-10.6,4.2-10.6s4.3,2.3,6.3,10.1c0,0,3.1,5.9,1.4,10c-1.7,4.1-6,9.6-6,9.6s-4.5-7-2.9-7.9c1.5-0.8,1.5-0.8,1.5-0.8
				s1.8-4.1,2-6.2c0.1-2.1,0.3-4.9-0.9-3.5c-1.1,1.3-3.8,11.2-4.8,12.4c-0.9,1.1-10.2,22.8-12.5,24.5c0,0-1.9,1.2-2.2-0.8
				s-4.7-9.1-4.6-11.2c0.1-2.1,0.1-5.8,0.1-5.8S596.3,244.9,600.3,239.8z"/>
			<path class="st0" d="M613.9,268.8c0,0,5.7,5.1,4.4,6.4c-1.3,1.3-4.5,8.4-3.4,10.5l0.7,0.9c0,0,3.4-7.9,5.2-11.6
				c1.7-3.7,11.2-25,11.2-25s6.1,4.6,6.2,6.9c0.1,2.3,0.4,5,0.6,7.5c0.2,2.6,0.6,6.8-0.9,9.4c-1.5,2.6-3.1,7.3-3.9,7.2
				c-0.8-0.1-2.7-3.1-3.1-5.4c-0.4-2.4-0.1-3.5-0.1-3.5s3.3-4.6,3.5-6.5c0.2-1.9-0.9-3.4-0.9-3.4s-2.7,6.8-3.9,9.4
				c-1.2,2.6-14,28.6-14,28.6s-4.9-8.5-6-13.3c-1.2-4.7-0.9-5.4-0.3-8.5C609.6,275.3,613.9,268.8,613.9,268.8z"/>
			<path class="st0" d="M629.4,298.4c0,0,4.2,6.4,3.9,6.7c-0.2,0.3-5.9,8.5-4.8,10.3c0,0,0.4,1.4,1.1,0.5c0.6-0.9,18-38.5,18-38.5
				s15.1,23.5,14,26.7c-1.1,3.2-1.5,5.7-2.4,5.1c-0.8-0.6-8-14.8-9.5-16.7c-1.5-1.8-19.3,38.2-19.3,38.2s-2.4-3.5-5-8.8
				c-2.6-5.2-2.6-4.7-2.6-6.5c0-1.8-0.7-3.8,0.6-6.9C624.8,305.4,629.4,298.4,629.4,298.4z"/>
			<path class="st0" d="M523.4,310.1c0,0,8.1,21.4,9,21.5c0.9,0.1,6.2-5.3,6.6-8.2c0.3-2.9-0.6-4.5-0.6-4.5s0.9-10.4,1-11.9
				c0.1-1.5-5.5-7.7-5.5-7.7l-3.6,5.4c0,0,4.2,7.9,4.4,10.3c0.2,2.4-0.6,4-1.2,2.7c-0.7-1.3-17.2-30.3-19-36.4c0,0-0.7-2.6-2.1-0.4
				L498.8,303l3.1,8.1c0,0,9.5-16.7,10.1-17.3C512.6,293.2,523.4,310.1,523.4,310.1z"/>
			<path class="st0" d="M512.5,338.8c-2-0.5-4-1-6-1.4c-1.6-0.4-3.3-0.8-4.9-1.2c0.1-0.1,0.1-0.3,0.2-0.4c0.2-0.2,0.3-0.5,0.4-0.8
				c1.1-2.5,2.5-4.9,3.7-7.4c0.1-0.2,0-0.3,0.1-0.5c2.9-5.4,5.5-10.7,8.2-16.1c0.1-0.2,0-0.3,0.1-0.5c2-3.8,4-7.5,5.8-11.4
				c1.5-3.3,3.4-6.3,4.7-9.7c0.6-1.3,1.4-2.5,2-3.7c0.1-0.2,0-0.3,0.1-0.5c1-1.9,2-3.7,3-5.7c7.3-14.9,14.6-29.3,21.9-44.2
				c1.4-2.7,2.7-5.3,4.1-7.9c0.1-0.2,0-0.3,0.1-0.5c2.2-4.2,4.2-8.4,6.4-12.6c0.1-0.2,0-0.3,0.1-0.5c2.9-5.3,5.3-10.8,8.2-16.1
				c0.1-0.2,0-0.3,0.1-0.5c2.2-4.2,4.2-8.5,6.4-12.7c0.1,0.1,0,0.1,0,0c3.4,6,6.8,12,10.2,18c10.5,18.8,20.8,37.2,31.4,55.9
				c5.3,9.6,10.6,18.9,16,28.5c0.1,0.2,0,0.3,0.1,0.5c11.5,20.3,22.6,40.2,34,60.3c-2.3,0,0-0.1,0,0c-2.8,0-5.7,0.1-8.6,0.1
				c-1.4-2.5-2.7-4.8-4.2-7.3c-0.1-0.2,0-0.3-0.1-0.5c-7.5-12.7-14.1-25.1-21.6-37.8c-0.1-0.2,0-0.3-0.1-0.5c-1.8-3-3.4-5.9-5.2-8.9
				c-4.4-8-8.8-15.7-13.3-23.7c-7.1-12.3-13.7-24.3-20.9-36.6c-0.1-0.2,0-0.3-0.1-0.5c-2.2-3.4-3.8-6.8-6-10.3
				c-0.1-0.2,0-0.3-0.1-0.5c-2.6-4-4.6-8.1-6.9-12.2c-1.1-1.8-2.2-3.6-3.2-5.5L512.5,338.8z"/>
		</g>
		<g>
			<path class="st0" d="M388.1,240.2l3-6l-3.9-9.3c0,0,0.9-1.5,1.7-0.2c0.8,1.3,16.9,29.1,16.9,29.1s0.9,3.9,0.9,5
				c0,0,0.2,2.1,3.1-2.8c0,0,4-5.6,4.1-8.3c0.1-2.7,0.5-4,0.2-6.3c-0.3-2.3,0.8-5.2-1.3-6.8c0,0-4.2-4-4.6-6.1c0,0-0.6-1.6-2.3,1.8
				c0,0-2.5,3.4-1.8,4.6c0.6,1.1,2.4,4,3.6,5.6c0,0,2.6,2.2,0.6,6.8c0,0-4.3-7.9-6.9-13.1L389.8,213l1.3-1.6c0,0-1-1.6-1.8-1.8
				c-0.8-0.1-7,9.7-7,10.5c0,0.8-0.5,3.1,0.3,4.7l0.6,0.8c0,0-1-0.1-1.3,1.3C381.6,228.3,385.7,236.5,388.1,240.2z"/>
			<g>
				<path class="st0" d="M373.2,253.2c3.9-0.7,4.1,7.4,5.7,9.6c2.6,4.1,5.1,8.5,6.7,13c1.3,3.2-0.2,8.6,2.8,11.1
					c4.8,3.6,9.6-5.8,10.1-8.9c0.5-3.6,0-7.8-0.3-11.1c-0.1-2.6-3.2-11.3-6.6-8c-2.7,2.6-0.8,9.1,0.3,11.8c0.2,0.8,2.8,4.3,1.9,5.1
					c-1.9,1.5-3.2-4-3.6-4.8c-2.9-5.9-6.5-11.7-9.2-17.5c-1.2-2.6-2.3-5.1-3.1-7.9c-1-2.4-3.4-4.9-3.7-7.4
					c-4.8,0.7-7.3,13.5-7.6,16.9c-0.4,5.7,3.2,12.1,8.4,15.5c2.4-4.1,2.6-4.7,0.4-8.9c-1.4-2.7-1.1-5.6-2.3-8.2"/>
			</g>
			<g>
				<path class="st0" d="M401.5,197.8c0.2,1.8,2,3.2,2.3,5.1c0.2,1.6,1.1,4,0.9,5.5c-0.1,2.1-2.2,5.2-4.4,3
					c-1.4-1.4-1.3-4.5-1.9-6.1c-1.6-3.2-4.1-6.4-3-10c0.5-1.9,2.2-3.6,2.8-5.4c0.4-1-0.1-4.4,0.9-4.9c5.2-3.2,11.5,14.8,12.5,17.2
					c1.4,3,3.3,6.1,5.3,9c0.8,1.4,2,2.6,2.6,4c0.4,1.1,0.3,2.4,0.9,3.4c2.9-2.3,6.4-8.5,7.5-11.8c0.4-1.3-0.7-4.7,1-5.4
					c2.9-1.2,2.8,2.7,2.6,4c-0.3,3.9-2.7,7.8-4.6,11.2c-0.7,1.8-1.9,3.3-2.2,4.9c-0.5,2.4,0.3,4.4-3.4,4.1c-4.5-0.4-4.2-3.2-5.2-5.7
					c-1.2-2.7-3.2-5.1-4.3-8c-0.6-1.6-8.8-16.3-10.7-14"/>
			</g>
			<g>
				<path class="st0" d="M424.7,175.2c-3.1-5.6-9.4-10.7-11.3-16.6c-2.9,1.8-2.5,7.3-3.7,9.6c-1.3,2.8-1,7.1,0.1,10.2
					c1.1,3.2,4.9,9.9,7.1,4.1c1.1-2.9-1.5-6.6-2-9.8c0-0.3-0.6-1-0.8-1.4c4.3,1.4,4.1,8,6.5,10.7c1.3-2,1.8-4.4,3.5-6.5"/>
			</g>
			<path class="st0" d="M424.1,173.2l8.4-16c0,0,6.7,4.4,7,14.1c0,0-0.7,1.3-0.5,3.2c0.2,1.9,0.2,1.9,0.2,1.9s-2.6,4.9-4.3,7.7
				c0,0-3.3,0.4-3.4-3.7c-0.1-4-0.2-6.5,3.1-7.8c3.3-1.3-0.2-0.6-0.2-0.6s0.7-2.6-0.3-3.2c-1-0.6-4.5,6.1-4.8,9.1
				c-0.3,3.1-0.3,3.1-0.3,3.1L424.1,173.2z"/>
			<path class="st0" d="M417.9,206.6l14,22.9l16.1-33.3c0,0,2.5-1.2,2.9,0.6c0.4,1.8-2.2,6.2-3.5,8.3l2.7,7.2c0,0,3.6-5.6,4.3-7.8
				c0.7-2.3-0.1-4.5-0.3-5.8c-0.2-1.3,2.4-6.5-5.3-15.8c0,0-1-1.1-1.6-0.5c-0.6,0.7-5.1,13.3-7.3,18.9c-2.2,5.5-8.1,17.4-8.1,17.4
				l-10.6-18.3C421.2,200.5,417.6,204.8,417.9,206.6z"/>
			<path class="st0" d="M446.1,227.6c0,0,4.4,5.1,3.7,6.6c-0.7,1.5-4.3,6.2-3.3,9.3c1.1,3.1,1.1,3.1,1.1,3.1s9.4-21.2,11.1-25.9
				c1.6-4.7,4.2-10.6,4.2-10.6s4.3,2.3,6.3,10.1c0,0,3.1,5.9,1.4,10c-1.7,4.1-6,9.6-6,9.6s-4.5-7-2.9-7.9c1.5-0.8,1.5-0.8,1.5-0.8
				s1.9-4.1,2-6.2c0.1-2.1,0.3-4.9-0.9-3.5c-1.1,1.3-3.8,11.2-4.8,12.4c-0.9,1.1-10.2,22.8-12.5,24.5c0,0-1.9,1.2-2.2-0.8
				c-0.2-1.9-4.7-9.1-4.6-11.2c0.1-2.1,0.1-5.8,0.1-5.8S442.1,232.7,446.1,227.6z"/>
			<path class="st0" d="M459.6,256.6c0,0,5.7,5.1,4.4,6.4c-1.3,1.3-4.5,8.4-3.4,10.5l0.7,1c0,0,3.4-7.9,5.2-11.6
				c1.7-3.7,11.2-25,11.2-25s6.1,4.6,6.2,6.9c0.1,2.3,0.4,5,0.6,7.5c0.2,2.6,0.6,6.8-0.9,9.4c-1.5,2.6-3.1,7.3-3.8,7.2
				c-0.8-0.1-2.7-3.1-3.1-5.4c-0.4-2.4-0.1-3.4-0.1-3.4s3.3-4.6,3.5-6.5c0.2-1.9-0.9-3.4-0.9-3.4s-2.7,6.8-3.9,9.4
				c-1.2,2.6-14,28.6-14,28.6s-4.9-8.5-6-13.3c-1.1-4.7-0.9-5.4-0.3-8.5C455.4,263.1,459.6,256.6,459.6,256.6z"/>
			<path class="st0" d="M475.2,286.1c0,0,4.2,6.4,3.9,6.7c-0.2,0.3-5.9,8.5-4.8,10.3c0,0,0.4,1.4,1.1,0.5c0.6-0.9,18-38.5,18-38.5
				s15.1,23.4,14,26.7c-1.1,3.3-1.5,5.7-2.3,5.1c-0.8-0.6-8-14.8-9.5-16.6c-1.5-1.8-19.3,38.2-19.3,38.2s-2.4-3.5-5-8.8
				c-2.6-5.2-2.6-4.7-2.6-6.5c0-1.8-0.7-3.8,0.6-6.9C470.5,293.2,475.2,286.1,475.2,286.1z"/>
			<path class="st0" d="M493.8,317.6c0,0,4.6,2.8,4.2,5.9c-0.4,3-3.4,10.4-3.2,11.7c0.2,1.3,1.9,2.2,1.9,2.2l6.2-13.9l2.8,9
				l-6.7,16.5c0,0,0.3,2.6-3.1-0.2c0,0-6.9-7.6-7.1-8c-0.1-0.3-0.1-4.8,0.7-5.3c0.8-0.4-1.4-2.9-1.4-2.9S492.7,318.8,493.8,317.6z"
				/>
			<path class="st0" d="M369.2,297.9c0,0,8.1,21.4,9,21.5c0.9,0.1,6.2-5.3,6.6-8.2c0.3-2.9-0.6-4.5-0.6-4.5s0.9-10.4,1-11.9
				c0.1-1.5-5.5-7.7-5.5-7.7l-3.6,5.5c0,0,4.2,7.9,4.4,10.3c0.2,2.4-0.6,4-1.2,2.7c-0.7-1.3-17.2-30.3-19-36.4c0,0-0.7-2.6-2.1-0.4
				l-13.5,22.1l3.1,8.1c0,0,9.5-16.7,10.1-17.3C358.3,281,369.2,297.9,369.2,297.9z"/>
			<path class="st0" d="M351.2,324.8c-0.1,0.3,10.5,23.5,11.6,24.3c1.2,0.7,3.6-3.6,5.8-7.7c2.2-4.1,5.8-7.3-1-18.6l-3.9-6.2
				l-3.5,7.2c0,0,1.7,3.6,3,6.1c1.4,2.5,1.6,5.5,1.1,6.1c-0.5,0.7-0.4,1.1-0.4,1.1s-3.6-4.1-5.7-10.4
				C356.2,320.4,351.2,324.8,351.2,324.8z"/>
			<g>
				<path class="st0" d="M348.7,320.4l4.2,7.8c0,0-10.4,21.2-11.2,21.2c-0.8,0-4.2-2.6-4.3-3.9c0-1.3,0.4-4.3-0.5-4.9
					c-0.9-0.6-3-0.7-3-1.6c0-0.9-0.9-8.2,0.6-10.8c1.5-2.6,6-11.5,6.3-12c0.4-0.4,3.4,2,3.8,4.9c0.3,2.9-3.2,7.3-3.6,10.5
					c-0.4,3.2,1,4.9,1,4.9s2.5-7.6,3.9-10.2C347.3,323.8,348.7,320.4,348.7,320.4z"/>
			</g>
			<path class="st0" d="M358.3,326.6c-2-0.5-4-1-6-1.4c-1.6-0.4-3.2-0.8-4.9-1.2c0.1-0.1,0.1-0.3,0.2-0.4c0.2-0.2,0.3-0.5,0.4-0.8
				c1.1-2.5,2.5-4.9,3.7-7.4c0.1-0.2,0-0.3,0.1-0.5c2.9-5.4,5.5-10.7,8.2-16.1c0.1-0.2,0-0.3,0.1-0.5c2-3.8,4-7.5,5.8-11.4
				c1.5-3.3,3.4-6.3,4.7-9.7c0.6-1.3,1.4-2.5,2-3.7c0.1-0.2,0-0.3,0.1-0.5c1-1.8,2-3.7,3-5.7c7.3-14.9,14.6-29.3,21.9-44.2
				c1.4-2.7,2.7-5.3,4.1-7.9c0.1-0.2,0-0.3,0.1-0.5c2.2-4.2,4.2-8.4,6.4-12.6c0.1-0.2,0-0.3,0.1-0.5c2.9-5.3,5.3-10.8,8.2-16.1
				c0.1-0.2,0-0.3,0.1-0.5c2.2-4.2,4.2-8.5,6.4-12.7c0.1,0.1,0,0.1,0,0c3.4,6,6.8,12,10.2,18c10.5,18.8,20.8,37.2,31.4,55.9
				c5.3,9.6,10.6,18.9,16,28.5c0.1,0.2,0,0.3,0.1,0.5c11.6,20.3,22.6,40.2,34,60.3c-2.3,0,0-0.1,0,0c-2.8,0-5.7,0.1-8.6,0.1
				c-1.4-2.5-2.7-4.8-4.2-7.3c-0.1-0.2,0-0.3-0.1-0.5c-7.5-12.7-14.1-25.1-21.6-37.8c-0.1-0.2,0-0.3-0.1-0.5c-1.8-3-3.4-5.9-5.2-8.9
				c-4.4-8-8.8-15.7-13.3-23.7c-7.1-12.3-13.7-24.3-20.9-36.6c-0.1-0.2,0-0.3-0.1-0.5c-2.2-3.4-3.8-6.8-6-10.3
				c-0.1-0.2,0-0.3-0.1-0.5c-2.6-4-4.6-8.1-6.9-12.2c-1.1-1.8-2.2-3.6-3.2-5.5L358.3,326.6z"/>
			<path class="st0" d="M506.7,321l9.6,16.9c0,0,2.4,0.8,2.5-3.1c0.1-3.9-5.3-11.4-5.3-11.4l1.9-5.6c0,0,11.7,10.3,10.2,14.3
				c-1.9,5.3-5,14.6-6.3,17.2c-1.3,2.7-1.3,2.7-1.3,2.7s-11-14.3-13.8-20.3C501.3,325.8,506.7,321,506.7,321z"/>
		</g>
	</g>
</g>
</svg>
