<?xml version="1.0" encoding="utf-8"?>
<!-- Generator: Adobe Illustrator 19.0.0, SVG Export Plug-In . SVG Version: 6.00 Build 0)  -->
<svg version="1.1" id="Layer_1" xmlns="http://www.w3.org/2000/svg" xmlns:xlink="http://www.w3.org/1999/xlink" x="0px" y="0px"
	 viewBox="96 5 264 612" style="enable-background:new 96 5 264 612;" xml:space="preserve">
<style type="text/css">
	.st0{fill:#EC1C24;}
	.st1{fill:#FFFFFF;}
	.st2{fill:#37B34A;}
	.st3{fill:#E1A938;}
	.st4{fill:#0C7F40;}
	.st5{fill:#2073B9;}
	.st6{clip-path:url(#SVGID_2_);fill:#0C7F40;}
	.st7{clip-path:url(#SVGID_4_);fill:#EC1C24;}
	.st8{clip-path:url(#SVGID_6_);fill:#E3B123;}
	.st9{clip-path:url(#SVGID_8_);fill:#2073B9;}
	.st10{clip-path:url(#SVGID_10_);fill:#0C7F40;}
	.st11{clip-path:url(#SVGID_12_);fill:#0C7F40;}
	.st12{clip-path:url(#SVGID_14_);fill:#FFFFFF;}
	.st13{clip-path:url(#SVGID_16_);fill:#007F40;}
	.st14{clip-path:url(#SVGID_18_);fill:#077F40;}
	.st15{clip-path:url(#SVGID_20_);fill:#FFFFFF;}
	.st16{clip-path:url(#SVGID_22_);fill:#E3B123;}
	.st17{clip-path:url(#SVGID_24_);fill:#DD1F29;}
	.st18{clip-path:url(#SVGID_26_);fill:#3E5FAA;}
	.st19{clip-path:url(#SVGID_28_);}
	.st20{fill:#2971B1;}
	.st21{fill:#DE3740;}
	.st22{fill:#057C3F;}
	.st23{fill:#EC1E24;}
	.st24{fill:#0B9948;}
</style>
<g>
	<g id="XMLID_857_">
		<path id="XMLID_866_" class="st0" d="M203.5,525.3H169c5.8,22.9-0.1,48.6-3,58.6h35.1C195,561.5,200.5,536.2,203.5,525.3z"/>
		<path id="XMLID_865_" class="st1" d="M210.4,525.3h-6.8c-3,10.9-8.5,36.2-2.4,58.6h6.9C201.6,561.6,207.5,535.7,210.4,525.3z"/>
		<path id="XMLID_864_" class="st1" d="M164.5,525.3c6.1,22.9-0.3,49.3-3,58.6h4.5c2.9-10.1,8.8-35.7,3-58.6H164.5z"/>
		<path id="XMLID_863_" class="st2" d="M220.8,525.3h-9.9c-2.7,9.5-9.1,36.3-2.5,58.6h10.1C209.8,564.1,218.8,531.7,220.8,525.3z"/>
		<path id="XMLID_862_" class="st2" d="M210.8,525.3h-0.5c-2.9,10.4-8.7,36.3-2.3,58.6h0.3C201.7,561.6,208.1,534.8,210.8,525.3z"/>
		<path id="XMLID_861_" class="st2" d="M164.5,525.3h-2.7h-10.1c10.6,35.7-0.5,55-3,58.6h10.1h2.8
			C164.2,574.6,170.6,548.2,164.5,525.3z"/>
		<path id="XMLID_858_" class="st3" d="M219.8,585.1h-72.9l1-1.4c2.3-3.5,13.4-22.5,2.9-57.9l-0.3-1.2h71.4l-0.4,1.2
			c-1.9,6.3-10.8,38.4-2.3,58L219.8,585.1z M150.3,583.3h66.9c-7.5-19.2,0-48.6,2.4-56.8h-66.8C162.1,558.6,153.7,577.5,150.3,583.3
			z"/>
	</g>
	<g id="XMLID_852_">
		<rect id="XMLID_856_" x="151.7" y="165.6" class="st1" width="68.7" height="5.7"/>
		<rect id="XMLID_855_" x="151.7" y="171.3" class="st4" width="68.7" height="5.7"/>
		<rect id="XMLID_854_" x="151.7" y="177.1" class="st1" width="68.7" height="5.7"/>
		<rect id="XMLID_853_" x="151.7" y="182.8" class="st5" width="69.2" height="5.7"/>
	</g>
	<path id="XMLID_849_" class="st3" d="M221.9,192.2h-71.6v-27.8h71.6V192.2z M152.1,190.7h68v-24.8h-68
		C152.1,165.9,152.1,190.7,152.1,190.7z"/>
	<g id="XMLID_843_">
		<rect id="XMLID_848_" x="151.1" y="189.4" class="st2" width="70" height="333.7"/>
		<path id="XMLID_847_" class="st0" d="M205.9,189.4c-4.1,7.1-13.5,22.5-18.3,24.8c-6.2,3-16.5,6.8-17.4,10.8c-0.9,4-2.2,4-2.2,4
			s-11.2,21.4,6.2,40.8l13.8,12.8c0,0,11.1,5.2,13.1,6.4c2,1.2,8.5,11.4,9.4,15.6s2.2,16.8,0,20.8S188,353,188,353s-8,0-11.6,4
			s-10.9,12.5-11.6,16.8c-0.7,4.3-1.8,18.9,1.5,23.6c3.3,4.7,21,24,21,24s9.3-0.7,15.4,9.4s7.2,10,7.6,16.8
			c0.5,6.8,1.3,12.7-1.8,18.6s-19.2,23.4-19.2,23.4l-11.1,3c0,0-8.5,5.6-10.9,11.2c-2.4,5.6-6,13.6-5.4,16.4c0.2,1,0.4,1.8,0.6,2.5
			H221V189.4H205.9z"/>
		<path id="XMLID_846_" class="st1" d="M184.9,523c-1-1.1-1.7-2.5-1.6-4.1c0,0,0.5-3,3-4c1.2-0.5,2.7-0.3,3.7,0.4
			c0.8,0.6,0.8,1.8,0.5,2.7c-0.2,0.5-0.7,1.4-1.8,1.4l-0.1,3.6h4c1.1-0.8,2-1.9,2.5-3.3c1.1-3.1,0.2-6.3-2.1-8.1
			c-2.3-1.8-5.7-2.2-8.4-1.1c-5.2,2.1-5.9,7.8-5.9,7.9c-0.2,1.7,0.1,3.2,0.7,4.7L184.9,523L184.9,523z"/>
		<path id="XMLID_845_" class="st1" d="M190.6,244.3l-0.2,4.8c2.9,0.2,5.5-1.7,6.5-4.5c1.1-3.1,0.2-6.3-2.1-8.1s-5.7-2.2-8.4-1.1
			c-5.2,2.1-5.9,7.8-5.9,7.9c-0.6,4.9,2.9,9,6.5,10.9c5.6,2.9,12.3,0.9,16-2.6c2.8-2.7,4.3-6.3,4.2-10.3c-0.2-4.4-2.4-8.7-6-11.6
			c-5.8-4.6-14.3-5.1-20.6-1.2c-4.1,2.5-7.2,6.9-8.4,11.8c-2.3,9.3,1.2,18.7,8.7,23.4c6.5,4.1,14.9,4.5,22,1.1
			c6.1-2.9,11.1-8.7,13.7-15.8c4.6-12.5,0.5-25-10.4-31.8c-2.4-1.5-5.1-2.7-8-3.4c-0.2,0-3-0.8-6.8-0.9c5.9-5.1,11.3-10.8,16-17.1
			c1.5-2.1,3-4.3,4.3-6.5h-5.8c-0.8,1.2-1.6,2.4-2.5,3.6c-6,8-13.1,15.1-21.2,21c-9.8,2.9-16.8,11.2-19.9,18c-3.7,8-4,17.5-0.7,25.9
			c2.9,7.4,9.4,13.5,15.1,18.9l1.4,1.3c1.4,1.3,2.7,2.5,4.2,3.8c-1.8,0.3-3,0.6-3.1,0.6c-2.7,0.8-5.4,2-7.7,3.5
			c-10.5,6.8-14.4,19.2-10,31.7c2.5,7.2,7.4,12.9,13.3,15.9c6.9,3.4,15.1,3,21.4-1.1c7.3-4.7,10.6-14.1,8.4-23.4
			c-1.2-5-4.2-9.3-8.1-11.8c-6.2-4-14.4-3.5-20,1.2c-3.4,2.9-5.6,7.2-5.8,11.5c-0.2,3.9,1.3,7.6,4,10.2c3.6,3.6,10.1,5.6,15.6,2.6
			c3.5-1.9,6.8-6,6.3-10.9c0-0.1-0.7-5.8-5.8-7.9c-2.7-1.1-6-0.7-8.3,1.1c-2.3,1.8-3.1,5.2-2,8.2c1.1,2.8,3.5,4.6,6.3,4.4l-0.2-4.8
			c-1,0-1.4-0.7-1.6-1.3c-0.3-0.9-0.3-2.2,0.5-2.8c0.9-0.7,2.3-0.9,3.5-0.4c2.4,1,2.8,4,2.8,4c0.3,2.8-2.1,5.2-3.8,6.1
			c-3.4,1.8-7.6,0.4-9.9-1.9c-2.3-2.2-2.6-4.8-2.6-6.6c0.1-3,1.6-6,4.1-8c4-3.3,10-3.7,14.4-0.9c2.9,1.9,5.1,5.1,6.1,8.9
			c1.8,7.3-0.8,14.6-6.3,18.2c-4.8,3.1-11.3,3.4-16.7,0.8c-4.8-2.4-8.8-7.1-10.9-13.1c-3.6-10.3-0.4-20.6,8.1-26.1
			c1.9-1.2,4.1-2.2,6.4-2.9c0.1,0,5.1-1.4,10.2-0.5c8.7,1.4,15.7,9.1,18.8,16s3.3,15,0.6,22.2c-2.4,6.4-8.3,12.1-13.5,17.1l-1.4,1.3
			c-2.5,2.5-5.2,4.9-7.9,7.2c-0.3,0.3-0.6,0.5-1,0.8c-0.5,0-1,0.1-1.5,0.2c-11.5,1.8-19.6,11.3-23.1,18.8c-3.7,8-4,17.5-0.7,25.9
			c2.9,7.4,9.4,13.5,15.1,18.9l1.4,1.3c1.5,1.4,3,2.8,4.6,4.1c-2.2,0.3-3.7,0.7-3.8,0.7c-2.7,0.8-5.4,2-7.7,3.5
			c-10.5,6.8-14.4,19.2-10,31.7c2.5,7.2,7.4,12.9,13.3,15.9c6.9,3.4,15.1,3,21.4-1.1c7.3-4.7,10.6-14.1,8.4-23.4
			c-1.2-5-4.2-9.3-8.1-11.8c-6.2-4-14.4-3.5-20,1.2c-3.4,2.9-5.6,7.2-5.8,11.5c-0.2,3.9,1.3,7.6,4,10.2c3.6,3.6,10.1,5.6,15.6,2.6
			c3.5-1.9,6.8-6,6.3-10.8c0-0.1-0.7-5.8-5.8-7.9c-2.7-1.1-6-0.7-8.3,1.1c-2.3,1.8-3.1,5.2-2,8.2c1.1,2.8,3.5,4.5,6.3,4.4l-0.2-4.8
			c-1,0-1.4-0.7-1.6-1.3c-0.3-0.9-0.3-2.2,0.5-2.8c0.9-0.7,2.3-0.9,3.5-0.4c2.4,1,2.8,4,2.8,4c0.3,2.8-2.1,5.2-3.8,6.1
			c-3.4,1.8-7.6,0.4-9.9-1.9c-2.3-2.2-2.6-4.8-2.6-6.6c0.1-3,1.6-6,4.1-8c4-3.3,10-3.7,14.4-0.9c2.9,1.9,5.1,5.1,6.1,8.9
			c1.8,7.3-0.8,14.6-6.3,18.2c-4.8,3.1-11.3,3.4-16.7,0.8c-4.8-2.4-8.8-7.1-10.9-13.1c-3.6-10.3-0.4-20.6,8.1-26.1
			c1.9-1.2,4.1-2.2,6.4-2.9c0.1,0,5.1-1.4,10.2-0.5c8.7,1.4,15.7,9.1,18.8,16s3.3,15,0.6,22.2c-2.4,6.4-8.3,12.1-13.5,17.1l-1.4,1.3
			c-2.2,2.1-4.4,4.2-6.7,6.1c-1.3,0-2.6,0.1-4,0.3c-11.5,1.8-19.6,11.3-23.1,18.8c-2.3,5-3.2,10.5-2.8,16h4.8
			c-0.4-4.8,0.4-9.6,2.4-14c3.2-7,10.5-14.6,19.5-16.1c5.3-0.8,10.6,0.5,10.7,0.5c2.4,0.6,4.7,1.6,6.7,2.9
			c8.9,5.5,12.2,15.8,8.4,26.1c-0.1,0.2-0.2,0.4-0.2,0.6h5.1c3.9-12.1-0.2-24.1-10.7-30.7c-2.4-1.5-5.1-2.7-8-3.4
			c-0.1,0-0.9-0.2-2.1-0.4c1.2-1.1,2.3-2.1,3.4-3.2l1.3-1.3c5.6-5.4,11.9-11.5,14.6-18.9c3.1-8.4,2.9-17.9-0.7-25.9
			c-3.4-7.5-11.2-17-22.4-18.8c-0.3-0.1-0.7-0.1-1-0.1l-0.5-0.4c-2.8-2.3-5.6-4.7-8.2-7.2l-1.4-1.3c-5.4-5-11.5-10.8-13.9-17.1
			c-2.8-7.3-2.6-15.3,0.6-22.2c3.2-7,10.5-14.6,19.5-16.1c5.3-0.8,10.6,0.5,10.7,0.5c2.4,0.6,4.7,1.6,6.7,2.9
			c8.9,5.5,12.2,15.8,8.4,26.1c-2.2,6-6.3,10.8-11.3,13.1c-5.6,2.6-12.4,2.3-17.4-0.8c-5.7-3.6-8.4-10.9-6.6-18.2
			c0.9-3.8,3.2-7,6.3-8.9c4.6-2.8,10.9-2.5,15,0.9c2.5,2,4.1,5,4.2,8c0.1,1.8-0.3,4.4-2.7,6.6c-2.4,2.3-6.9,3.7-10.4,1.9
			c-1.8-0.9-4.3-3.3-4-6c0,0,0.5-3,3-4c1.2-0.5,2.7-0.3,3.7,0.4c0.8,0.6,0.8,1.8,0.5,2.7c-0.2,0.5-0.7,1.4-1.8,1.4l-0.2,4.8
			c2.9,0.2,5.5-1.7,6.5-4.5c1.1-3.1,0.2-6.3-2.1-8.1c-2.3-1.8-5.7-2.2-8.4-1.1c-5.2,2.1-5.9,7.8-5.9,7.9c-0.6,4.9,2.9,9,6.5,10.9
			c5.6,2.9,12.3,0.9,16-2.6c2.8-2.7,4.3-6.3,4.2-10.3c-0.2-4.4-2.4-8.7-6-11.6c-5.8-4.6-14.3-5.1-20.6-1.2
			c-4.1,2.5-7.2,6.9-8.4,11.8c-2.3,9.3,1.2,18.7,8.7,23.4c6.5,4.1,14.9,4.5,22,1.1c6.1-2.9,11.1-8.7,13.7-15.8
			c4.6-12.5,0.5-25-10.4-31.8c-2.4-1.5-5.1-2.7-8-3.4c-0.1,0-1.6-0.4-3.9-0.7c1.7-1.5,3.4-3,5-4.6l1.3-1.3
			c5.6-5.4,11.9-11.5,14.6-18.9c3.1-8.4,2.9-17.9-0.7-25.9c-3.4-7.5-11.2-17-22.4-18.8c-0.7-0.1-1.4-0.2-2-0.2c-2.7-2.2-5.4-4.6-8-7
			l-1.4-1.3c-5.4-5-11.5-10.8-13.9-17.1c-2.8-7.3-2.6-15.3,0.6-22.2c3-6.4,9.4-13.4,17.4-15.6l0.1,0.1c0.1-0.1,0.2-0.2,0.3-0.2
			c0.6-0.1,1.2-0.3,1.7-0.4c5.3-0.8,10.6,0.5,10.7,0.5c2.4,0.6,4.7,1.6,6.7,2.9c8.9,5.5,12.2,15.8,8.4,26.1
			c-2.2,6-6.3,10.8-11.3,13.1c-5.6,2.6-12.4,2.3-17.4-0.8c-5.7-3.6-8.4-10.9-6.6-18.2c0.9-3.8,3.2-7,6.3-8.9
			c4.6-2.8,10.9-2.5,15,0.9c2.5,2,4.1,5,4.2,8c0.1,1.8-0.3,4.4-2.7,6.6c-2.4,2.3-6.9,3.7-10.4,1.9c-1.8-0.9-4.3-3.3-4-6
			c0,0,0.5-3,3-4c1.2-0.5,2.7-0.3,3.7,0.4c0.8,0.6,0.8,1.8,0.5,2.7C192.2,243.5,191.7,244.3,190.6,244.3z"/>
		<path id="XMLID_844_" class="st1" d="M174.5,523c-0.2-2.1-0.1-4.3,0.4-6.4c0.9-3.8,3.2-7,6.3-8.9c4.6-2.8,10.9-2.5,15,0.9
			c2.5,2,4.1,5,4.2,8c0.1,1.7-0.3,4.3-2.6,6.5h5.9c1.1-2,1.6-4.3,1.5-6.7c-0.2-4.4-2.4-8.7-6-11.6c-5.8-4.6-14.3-5.1-20.6-1.2
			c-4.1,2.5-7.2,6.9-8.4,11.8c-0.6,2.6-0.8,5.1-0.6,7.6L174.5,523L174.5,523z"/>
	</g>
	<path id="XMLID_840_" class="st3" d="M221.9,525h-71.6V188.4h71.6V525z M152.1,523.2h68v-333h-68
		C152.1,190.2,152.1,523.2,152.1,523.2z"/>
	<g id="XMLID_829_">
		<g id="XMLID_831_">
			<g>
				<g>
					<g>
						<defs>
							<path id="SVGID_1_" d="M151.4,165.9h69.8V93.1c-7.7-8.5-20.8-14-35.7-14c-13.7,0-25.8,4.7-33.7,12
								C151.8,91.1,151,165.5,151.4,165.9z"/>
						</defs>
						<clipPath id="SVGID_2_">
							<use xlink:href="#SVGID_1_"  style="overflow:visible;"/>
						</clipPath>
						<path id="XMLID_839_" class="st6" d="M149.9,165.5c0.5-0.2,1.1-0.3,1.7,0h10.5l-2.6-86.3l-8.1,10.4l-1.7,75.9H149.9z"/>
					</g>
				</g>
			</g>
			<g>
				<g>
					<g>
						<defs>
							<path id="SVGID_3_" d="M151.4,165.9h69.8V93.1c-7.7-8.5-20.8-14-35.7-14c-13.7,0-25.8,4.7-33.7,12
								C151.8,91.1,151,165.5,151.4,165.9z"/>
						</defs>
						<clipPath id="SVGID_4_">
							<use xlink:href="#SVGID_3_"  style="overflow:visible;"/>
						</clipPath>
						<polygon id="XMLID_838_" class="st7" points="175.5,165.5 172.9,126.3 172.9,68.6 159.5,79.8 161.4,165.5 						"/>
					</g>
				</g>
			</g>
			<g>
				<g>
					<g>
						<defs>
							<path id="SVGID_5_" d="M151.4,165.9h69.8V93.1c-7.7-8.5-20.8-14-35.7-14c-13.7,0-25.8,4.7-33.7,12
								C151.8,91.1,151,165.5,151.4,165.9z"/>
						</defs>
						<clipPath id="SVGID_6_">
							<use xlink:href="#SVGID_5_"  style="overflow:visible;"/>
						</clipPath>
						<path id="XMLID_837_" class="st8" d="M201.2,165.5l6.4-92.8c0,0-10.6-8.4-15.7-8.6c-4.5-0.2-3.3,84-3.1,101.4H201.2z"/>
					</g>
				</g>
			</g>
			<g>
				<g>
					<g>
						<defs>
							<path id="SVGID_7_" d="M151.4,165.9h69.8V93.1c-7.7-8.5-20.8-14-35.7-14c-13.7,0-25.8,4.7-33.7,12
								C151.8,91.1,151,165.5,151.4,165.9z"/>
						</defs>
						<clipPath id="SVGID_8_">
							<use xlink:href="#SVGID_7_"  style="overflow:visible;"/>
						</clipPath>
						<path id="XMLID_836_" class="st9" d="M214.4,165.5l8.4-70.9c0,0-4.3-16.8-15.2-21.9l-6.4,92.8H214.4z"/>
					</g>
				</g>
			</g>
			<g>
				<g>
					<g>
						<defs>
							<path id="SVGID_9_" d="M151.4,165.9h69.8V93.1c-7.7-8.5-20.8-14-35.7-14c-13.7,0-25.8,4.7-33.7,12
								C151.8,91.1,151,165.5,151.4,165.9z"/>
						</defs>
						<clipPath id="SVGID_10_">
							<use xlink:href="#SVGID_9_"  style="overflow:visible;"/>
						</clipPath>
						<polygon id="XMLID_835_" class="st10" points="221.3,165.5 224.1,94.8 221.6,93.7 213.9,165.5 						"/>
					</g>
				</g>
			</g>
			<g>
				<g>
					<g>
						<defs>
							<path id="SVGID_11_" d="M151.4,165.9h69.8V93.1c-7.7-8.5-20.8-14-35.7-14c-13.7,0-25.8,4.7-33.7,12
								C151.8,91.1,151,165.5,151.4,165.9z"/>
						</defs>
						<clipPath id="SVGID_12_">
							<use xlink:href="#SVGID_11_"  style="overflow:visible;"/>
						</clipPath>
						<polygon id="XMLID_834_" class="st11" points="213.4,170.2 213.4,170.5 221.1,170.8 221.2,170.2 						"/>
					</g>
				</g>
			</g>
			<g>
				<g>
					<g>
						<defs>
							<path id="SVGID_13_" d="M151.4,165.9h69.8V93.1c-7.7-8.5-20.8-14-35.7-14c-13.7,0-25.8,4.7-33.7,12
								C151.8,91.1,151,165.5,151.4,165.9z"/>
						</defs>
						<clipPath id="SVGID_14_">
							<use xlink:href="#SVGID_13_"  style="overflow:visible;"/>
						</clipPath>
						<path id="XMLID_833_" class="st12" d="M189.5,165.5L192,64.1c0,0-13.9-2-19.1,4.5c-5.1,6.5-5.1,6.5-5.1,6.5l6.2,90.4H189.5z"
							/>
					</g>
				</g>
			</g>
		</g>
		<path id="XMLID_830_" class="st3" d="M151.4,165.5h0.6c-0.2-7.2,0.2-46.9,0.5-74c8.1-7.4,20-11.7,32.9-11.7c14,0,27,5.1,34.9,13.6
			v72h1.8V92.8l-0.2-0.3c-8.2-9.1-21.8-14.5-36.4-14.5c-13.4,0-26,4.5-34.4,12.4l-0.3,0.3v0.4c-0.6,54-0.6,69.6-0.4,74.3
			C150.6,165.3,151,165.4,151.4,165.5z"/>
	</g>
	<rect id="XMLID_828_" x="150.4" y="165.1" class="st3" width="71.6" height="1.4"/>
	<g id="XMLID_816_">
		<g id="XMLID_820_">
			<g>
				<g>
					<g>
						<defs>
							<path id="SVGID_15_" d="M238.8,51.4c0,0,10.2,16.4,26.3,24.9c0,0,23.2,13.5,44.5-23.5V164h-69.8
								C239.7,163.9,238.8,51.1,238.8,51.4z"/>
						</defs>
						<clipPath id="SVGID_16_">
							<use xlink:href="#SVGID_15_"  style="overflow:visible;"/>
						</clipPath>
						<polygon id="XMLID_827_" class="st13" points="309.5,50 308.9,167.6 297.6,167.6 						"/>
					</g>
				</g>
			</g>
			<g>
				<g>
					<g>
						<defs>
							<path id="SVGID_17_" d="M238.8,51.4c0,0,10.2,16.4,26.3,24.9c0,0,23.2,13.5,44.5-23.5V164h-69.8
								C239.7,163.9,238.8,51.1,238.8,51.4z"/>
						</defs>
						<clipPath id="SVGID_18_">
							<use xlink:href="#SVGID_17_"  style="overflow:visible;"/>
						</clipPath>
						<path id="XMLID_826_" class="st14" d="M238.5,47.6c0,0,6.5,10.6,8.1,12.1l5,105.9h-13C238.6,165.6,238.7,47.6,238.5,47.6z"/>
					</g>
				</g>
			</g>
			<g>
				<g>
					<g>
						<defs>
							<path id="SVGID_19_" d="M238.8,51.4c0,0,10.2,16.4,26.3,24.9c0,0,23.2,13.5,44.5-23.5V164h-69.8
								C239.7,163.9,238.8,51.1,238.8,51.4z"/>
						</defs>
						<clipPath id="SVGID_20_">
							<use xlink:href="#SVGID_19_"  style="overflow:visible;"/>
						</clipPath>
						<path id="XMLID_825_" class="st15" d="M247.4,60.5c0,0,8.3,8.8,13,11.9l3.4,92.3h-12.9l-4.5-105.1L247.4,60.5z"/>
					</g>
				</g>
			</g>
			<g>
				<g>
					<g>
						<defs>
							<path id="SVGID_21_" d="M238.8,51.4c0,0,10.2,16.4,26.3,24.9c0,0,23.2,13.5,44.5-23.5V164h-69.8
								C239.7,163.9,238.8,51.1,238.8,51.4z"/>
						</defs>
						<clipPath id="SVGID_22_">
							<use xlink:href="#SVGID_21_"  style="overflow:visible;"/>
						</clipPath>
						<path id="XMLID_824_" class="st16" d="M260.4,72.5c0,0,2,6,17.9,5.5v87.8h-17.4l-0.8-92.9L260.4,72.5z"/>
					</g>
				</g>
			</g>
			<g>
				<g>
					<g>
						<defs>
							<path id="SVGID_23_" d="M238.8,51.4c0,0,10.2,16.4,26.3,24.9c0,0,23.2,13.5,44.5-23.5V164h-69.8
								C239.7,163.9,238.8,51.1,238.8,51.4z"/>
						</defs>
						<clipPath id="SVGID_24_">
							<use xlink:href="#SVGID_23_"  style="overflow:visible;"/>
						</clipPath>
						<path id="XMLID_823_" class="st17" d="M277.7,77.6c0,0,8.5-2.2,13.6-6.7l-2.4,96.4h-12.5L277.7,77.6z"/>
					</g>
				</g>
			</g>
			<g>
				<g>
					<g>
						<defs>
							<path id="SVGID_25_" d="M238.8,51.4c0,0,10.2,16.4,26.3,24.9c0,0,23.2,13.5,44.5-23.5V164h-69.8
								C239.7,163.9,238.8,51.1,238.8,51.4z"/>
						</defs>
						<clipPath id="SVGID_26_">
							<use xlink:href="#SVGID_25_"  style="overflow:visible;"/>
						</clipPath>
						<path id="XMLID_822_" class="st18" d="M291.1,72c0,0,13.1-15.7,15.7-19s2.6-3.3,2.6-3.3l-9.3,118.5h-11.7L291.1,72z"/>
					</g>
				</g>
			</g>
		</g>
		<path id="XMLID_817_" class="st3" d="M310.5,164H239v-0.9c0-1.1-0.9-106.5-1-112.3v-1.2v-2.2l1.5,2.4l0,0l0.1,0.2
			c0.1,0.2,10.3,16.3,25.9,24.6c1,0.6,22.8,12.6,43.3-23.2l1.6-2.8V164H310.5z M240.7,162.2h68.1V55.1c-21,34-43.8,21.2-44.1,21.1
			c-12.3-6.5-21.4-17.9-24.9-22.8c0,0.6,0,1.2,0,2L240.7,162.2z"/>
	</g>
	<g id="XMLID_579_">
		<rect id="XMLID_815_" x="240.5" y="186.2" class="st1" width="70.5" height="341.4"/>
		<g id="XMLID_583_">
			<g>
				<g>
					<g>
						<defs>
							<rect id="SVGID_27_" x="240.5" y="186.3" width="70.5" height="340.9"/>
						</defs>
						<clipPath id="SVGID_28_">
							<use xlink:href="#SVGID_27_"  style="overflow:visible;"/>
						</clipPath>
						<g id="XMLID_585_" class="st19">
							<g id="XMLID_794_">
								<g id="XMLID_805_">
									<polygon id="XMLID_814_" class="st3" points="258.1,433.5 275,433.5 275,494.8 									"/>
									<polyline id="XMLID_813_" class="st20" points="258.1,433.5 275,494.8 258.1,494.8 									"/>
									<polygon id="XMLID_812_" class="st21" points="258.2,433.5 240.5,433.5 240.5,494.8 									"/>
									<polygon id="XMLID_811_" class="st1" points="258.2,433.5 258.2,494.8 240.5,494.8 									"/>
									<polygon id="XMLID_810_" class="st22" points="258.2,557.4 258.1,495.9 240.5,495.9 									"/>
									<polyline id="XMLID_809_" class="st3" points="240.5,495.9 258.2,557.4 240.5,557.4 									"/>
									<polyline id="XMLID_808_" class="st1" points="258.3,557.4 275.1,495.9 258.2,495.9 									"/>
									<polygon id="XMLID_807_" class="st21" points="275.1,557.4 275.1,495.9 258.2,557.4 									"/>
								</g>
								<g id="XMLID_795_">
									<polygon id="XMLID_804_" class="st3" points="294.3,433.5 311.2,433.5 311.2,494.8 									"/>
									<polyline id="XMLID_803_" class="st20" points="294.3,433.5 311.2,494.8 294.3,494.8 									"/>
									<polygon id="XMLID_802_" class="st21" points="294.4,433.5 276.7,433.5 276.7,494.8 									"/>
									<polygon id="XMLID_801_" class="st1" points="294.4,433.5 294.4,494.8 276.7,494.8 									"/>
									<polygon id="XMLID_800_" class="st22" points="294.4,557.4 294.3,495.9 276.7,495.9 									"/>
									<polyline id="XMLID_799_" class="st3" points="276.7,495.9 294.4,557.4 276.7,557.4 									"/>
									<polyline id="XMLID_798_" class="st1" points="294.5,557.4 311.3,495.9 294.3,495.9 									"/>
									<polygon id="XMLID_797_" class="st21" points="311.3,557.4 311.3,495.9 294.4,557.4 									"/>
								</g>
							</g>
							<g id="XMLID_772_">
								<g id="XMLID_783_">
									<polygon id="XMLID_793_" class="st3" points="258.1,308.2 275,308.2 275,369.5 									"/>
									<polyline id="XMLID_792_" class="st20" points="258.1,308.2 275,369.5 258.1,369.5 									"/>
									<polygon id="XMLID_791_" class="st21" points="258.2,308.2 240.5,308.2 240.5,369.5 									"/>
									<polygon id="XMLID_789_" class="st1" points="258.2,308.2 258.2,369.5 240.5,369.5 									"/>
									<polygon id="XMLID_788_" class="st22" points="258.2,432.1 258.1,370.7 240.5,370.7 									"/>
									<polyline id="XMLID_787_" class="st3" points="240.5,370.7 258.2,432.1 240.5,432.1 									"/>
									<polyline id="XMLID_786_" class="st1" points="258.3,432.1 275.1,370.7 258.2,370.7 									"/>
									<polygon id="XMLID_785_" class="st21" points="275.1,432.1 275.1,370.7 258.2,432.1 									"/>
								</g>
								<g id="XMLID_773_">
									<polygon id="XMLID_782_" class="st3" points="294.3,308.2 311.2,308.2 311.2,369.5 									"/>
									<polyline id="XMLID_781_" class="st20" points="294.3,308.2 311.2,369.5 294.3,369.5 									"/>
									<polygon id="XMLID_780_" class="st21" points="294.4,308.2 276.7,308.2 276.7,369.5 									"/>
									<polygon id="XMLID_779_" class="st1" points="294.4,308.2 294.4,369.5 276.7,369.5 									"/>
									<polygon id="XMLID_778_" class="st22" points="294.4,432.1 294.3,370.7 276.7,370.7 									"/>
									<polyline id="XMLID_777_" class="st3" points="276.7,370.7 294.4,432.1 276.7,432.1 									"/>
									<polyline id="XMLID_776_" class="st1" points="294.5,432.1 311.3,370.7 294.3,370.7 									"/>
									<polygon id="XMLID_775_" class="st21" points="311.3,432.1 311.3,370.7 294.4,432.1 									"/>
								</g>
							</g>
							<g id="XMLID_739_">
								<g id="XMLID_762_">
									<polygon id="XMLID_771_" class="st3" points="258.1,182.9 275,182.9 275,244.3 									"/>
									<polyline id="XMLID_770_" class="st20" points="258.1,182.9 275,244.3 258.1,244.3 									"/>
									<polygon id="XMLID_769_" class="st21" points="258.2,182.9 240.5,182.9 240.5,244.3 									"/>
									<polygon id="XMLID_768_" class="st1" points="258.2,182.9 258.2,244.3 240.5,244.3 									"/>
									<polygon id="XMLID_767_" class="st22" points="258.2,306.8 258.1,245.4 240.5,245.4 									"/>
									<polyline id="XMLID_766_" class="st3" points="240.5,245.4 258.2,306.8 240.5,306.8 									"/>
									<polyline id="XMLID_765_" class="st1" points="258.3,306.8 275.1,245.4 258.2,245.4 									"/>
									<polygon id="XMLID_764_" class="st21" points="275.1,306.8 275.1,245.4 258.2,306.8 									"/>
								</g>
								<g id="XMLID_752_">
									<polygon id="XMLID_761_" class="st3" points="294.3,182.9 311.2,182.9 311.2,244.3 									"/>
									<polyline id="XMLID_760_" class="st20" points="294.3,182.9 311.2,244.3 294.3,244.3 									"/>
									<polygon id="XMLID_759_" class="st21" points="294.4,182.9 276.7,182.9 276.7,244.3 									"/>
									<polygon id="XMLID_758_" class="st1" points="294.4,182.9 294.4,244.3 276.7,244.3 									"/>
									<polygon id="XMLID_757_" class="st22" points="294.4,306.8 294.3,245.4 276.7,245.4 									"/>
									<polyline id="XMLID_756_" class="st3" points="276.7,245.4 294.4,306.8 276.7,306.8 									"/>
									<polyline id="XMLID_755_" class="st1" points="294.5,306.8 311.3,245.4 294.3,245.4 									"/>
									<polygon id="XMLID_754_" class="st21" points="311.3,306.8 311.3,245.4 294.4,306.8 									"/>
								</g>
							</g>
							<g id="XMLID_628_">
								<polygon id="XMLID_738_" class="st22" points="258.2,181.5 258.1,120.1 240.5,120.1 								"/>
								<polyline id="XMLID_737_" class="st3" points="240.5,120.1 258.2,181.5 240.5,181.5 								"/>
								<polyline id="XMLID_736_" class="st1" points="258.3,181.5 275.1,120.1 258.2,120.1 								"/>
								<polygon id="XMLID_735_" class="st21" points="275.1,181.5 275.1,120.1 258.2,181.5 								"/>
								<polygon id="XMLID_733_" class="st22" points="294.4,181.5 294.3,120.1 276.7,120.1 								"/>
								<polyline id="XMLID_732_" class="st3" points="276.7,120.1 294.4,181.5 276.7,181.5 								"/>
								<polyline id="XMLID_730_" class="st1" points="294.5,181.5 311.3,120.1 294.3,120.1 								"/>
								<polygon id="XMLID_729_" class="st21" points="311.3,181.5 311.3,120.1 294.4,181.5 								"/>
							</g>
							<polygon id="XMLID_610_" class="st3" points="258.1,559.2 275,559.2 275,620.6 							"/>
							<polyline id="XMLID_609_" class="st20" points="258.1,559.2 275,620.6 258.1,620.6 							"/>
							<polygon id="XMLID_608_" class="st21" points="258.2,559.2 240.5,559.2 240.5,620.6 							"/>
							<polygon id="XMLID_606_" class="st1" points="258.2,559.2 258.2,620.6 240.5,620.6 							"/>
							<polygon id="XMLID_603_" class="st3" points="294.3,559.2 311.2,559.2 311.2,620.6 							"/>
							<polyline id="XMLID_601_" class="st20" points="294.3,559.2 311.2,620.6 294.3,620.6 							"/>
							<polygon id="XMLID_593_" class="st21" points="294.4,559.2 276.7,559.2 276.7,620.6 							"/>
							<polygon id="XMLID_591_" class="st1" points="294.4,559.2 294.4,620.6 276.7,620.6 							"/>
						</g>
					</g>
				</g>
			</g>
		</g>
		<path id="XMLID_580_" class="st3" d="M311.1,528.5h-71.8V185.6h71.8V528.5z M241.6,526.7h67.3V187.4h-67.2L241.6,526.7
			L241.6,526.7z"/>
	</g>
	<g id="XMLID_561_">
		<g id="XMLID_576_">
			<path id="XMLID_578_" class="st23" d="M239.8,527.4l0.3,1.2c3.3,11.9,4.5,22,4.4,30.4h59.6c1.1-14,4.4-26.7,5.5-30.4l0.3-1.2
				H239.8L239.8,527.4z"/>
			<path id="XMLID_577_" class="st24" d="M304.2,558.6h-59.7c-0.6,15.7-5.7,24.7-7.1,26.9l-0.9,1.4h71.7l-0.5-1.3
				C304.3,577.9,303.6,568,304.2,558.6z"/>
		</g>
		<path id="XMLID_573_" class="st3" d="M309,587.4h-73.7l1-1.4c2.4-3.5,13.6-22.5,2.9-57.9l-0.4-1.2h72.4l-0.4,1.2
			c-1.9,6.3-11,38.4-2.3,58L309,587.4z M238.6,585.6h67.7c-7.6-19.2,0-48.6,2.5-56.8h-67.6C250.6,560.8,242.1,579.7,238.6,585.6z"/>
		<g id="XMLID_562_">
			<path id="XMLID_572_" class="st1" d="M253.7,542.1c0,0,3.2-0.3,3.5-4.4l9.5,10.2l6.3,7.1l10,10.6l1.4-1.7l1,3.5v0.1l5,5.4
				l2.4,0.3l-3.9,5l-0.7-3l-5.1-4.8l-3.5-0.5l1.4-1.7L253.7,542.1z"/>
			<path id="XMLID_563_" class="st1" d="M289.2,537.7c0,0,0.4,3.5,3.2,4.5l-7.9,7.8l-19.1,17.9l1.3,1.9l-3.4,0.7l-5.2,4.8l-0.6,2.8
				l-3.7-4.8l2.1-0.3l5.5-5.7l0.5-3.4l1.4,1.6l20.3-22L289.2,537.7z"/>
		</g>
	</g>
	<g id="XMLID_532_">
		<path id="XMLID_560_" class="st0" d="M294.9,166.3c0.1-0.7,0.1-1.3,0.1-2c0-10.9-9.6-19.8-21.5-19.8s-21.5,8.8-21.5,19.8
			c0,0.7,0.1,1.4,0.1,2H294.9z"/>
		<path id="XMLID_533_" class="st1" d="M295.6,167.3h-44.7l-0.1-0.9c-0.1-0.7-0.1-1.4-0.1-2.1c0-11.4,10.1-20.7,22.6-20.7
			s22.6,9.3,22.6,20.7c0,0.7-0.1,1.4-0.1,2.1L295.6,167.3z M252.8,165.4h40.9c0-0.4,0-0.7,0-1.1c0-10.4-9.2-18.8-20.5-18.8
			s-20.5,8.4-20.5,18.8C252.8,164.7,252.8,165,252.8,165.4z"/>
	</g>
	<g id="XMLID_527_">
		<rect id="XMLID_531_" x="240.6" y="162.1" class="st1" width="68.7" height="5.7"/>
		<rect id="XMLID_530_" x="240.6" y="167.8" class="st4" width="68.7" height="5.7"/>
		<rect id="XMLID_529_" x="240.6" y="173.5" class="st1" width="68.7" height="5.7"/>
		<rect id="XMLID_528_" x="240.6" y="179.2" class="st5" width="69.2" height="5.7"/>
	</g>
	<path id="XMLID_523_" class="st3" d="M311.1,186.3h-71.8v-25.5h71.8V186.3z M241.2,184.9h68.2v-22.7h-68.2V184.9z"/>
</g>
</svg>
