<?xml version="1.0" encoding="utf-8"?>
<!-- Generator: Adobe Illustrator 19.0.0, SVG Export Plug-In . SVG Version: 6.00 Build 0)  -->
<svg version="1.1" id="Layer_1" xmlns="http://www.w3.org/2000/svg" xmlns:xlink="http://www.w3.org/1999/xlink" x="0px" y="0px"
	 viewBox="772.6 155 456.4 304" style="enable-background:new 772.6 155 456.4 304;" xml:space="preserve">
<style type="text/css">
	.st0{fill-rule:evenodd;clip-rule:evenodd;}
</style>
<g>
	<g id="XMLID_286_">
		<path id="XMLID_326_" d="M1207.4,372.8c-0.7-15.3-3-30.4-7.2-45.2c-12.6-44.2-37.3-80.4-73.8-108.3
			c-22.6-17.3-47.8-29.1-75.4-35.8c-5.4-1.3-10.9-2.3-16.4-3.4c10.2,3.8,17.1,9.9,16.3,21.7c-0.3,3.9-2,7.4-4.7,10.4
			c-4.5,4.9-10.3,6-16.6,6.5c0.6,0.2,1.1,0.4,1.7,0.5c5.3,1.2,10.6,2,15.8,3.5c25.7,7.2,48.4,19.8,68.1,37.7
			c14,12.8,25.4,27.7,34.4,44.5c6.5,12.1,11.3,24.9,14.6,38.2c2.9,11.7,4.5,23.7,4.7,35.7c0.1,4.9,0,9.9-0.5,14.8h0.1h2h2.8h15.1
			h13.8h5.3C1207.7,386.6,1207.7,379.7,1207.4,372.8z M1181.4,330.9c-1.2-3.6-2.2-7.3-3.7-10.8c-4.1-9.5-8.5-18.8-12.7-28.3
			c-0.3-0.6-0.3-2,0-2.3c4.5-2.8,9.2-5.4,14.2-8.3C1182,298.1,1183,314.4,1181.4,330.9z M1097.1,202.9l-2.1,3.6l-0.9-0.5l-22.6-11.3
			l-13.4-7C1066.1,188,1093.2,201,1097.1,202.9z M1048.1,188c6.5-0.5,24.1,8.8,25.7,9.5c1.2,0.5,13.3,6.2,20.8,9.6l-2.3,4
			c-0.6-0.2-1.1-0.4-1.7-0.5c-11.7-5-35.6-15-35.6-15C1053.2,191.3,1048.1,188,1048.1,188z M1054.4,196.2l32.9,14.6
			c-1.7,0.5-3.3,1.6-4.3,3.3c-6-2.6-13.9-6-17.5-7.2c-6.2-2.1-11.1-3.6-11.1-3.6C1054.3,203.2,1055.5,198.4,1054.4,196.2z
			 M1053.1,204.3c0,0,18.2,5.6,29.5,10.6c-0.9,2-0.9,4.2-0.1,6.1c-4.8-2-12.8-5.1-16.4-6.1c-5.3-1.5-15.7-3.9-16.7-3.9
			C1049.4,211,1053.4,207.6,1053.1,204.3z M1080.3,233.9l-0.1,0.1c0,0-23-11.5-37.8-13.6c0,0,31.8,3.1,39.5,9l-2.3,4.1L1080.3,233.9
			z M1058.3,220.8c-15.4-1.1-20.3-1.8-20.3-1.8s6.9-1.7,10.2-4.6c0,0,20.4,2,34.5,7.3c0.5,1,1.2,1.9,2.2,2.6l-1.5,2.6
			C1080.4,225.5,1070.9,221.7,1058.3,220.8z M1084.2,235.7l17.5-31l-1.7-0.8l0,0l4.4,2.1l-17.2,31.2L1084.2,235.7z M1132.5,252.7
			c-3.3,3.4-6.6,6.7-9.9,10c-0.9,0.9-1.6,1.3-2.7,0.2c-8.6-8.6-18.2-16-28.4-22.5c-0.3-0.2-0.5-0.5-0.7-0.8c0.1-0.2,0.2-0.4,0.3-0.5
			c14.6,2,28.6,6.3,42.2,12.3C1132.9,252,1132.8,252.4,1132.5,252.7z M1104.3,209.4c18.2,6.8,40.7,28.4,40.7,28.4l-11.4,12.1
			C1130.4,240.5,1104.3,209.4,1104.3,209.4z M1147,239.6c11,10.9,20.7,23.4,28.8,37.2c-12.9-9.8-26.4-18.4-41-25.2
			C1138.9,247.6,1142.8,243.7,1147,239.6z M1147.7,298.3c-1.9-15.2-5.8-29.4-11.4-43.1c10.1,10.4,18.8,21.9,26.1,34.6
			C1157.6,292.5,1152.9,295.3,1147.7,298.3z M1166.3,338.5c-1.3,0.4-1.8,0.2-2.2-1.1c-3.2-11.7-7.8-22.9-13.5-33.7
			c-0.2-0.3-0.3-0.7-0.4-1c12,8.8,22,19.4,31,31.7c-3.3,0.9-6.2,1.7-9.1,2.5C1170.2,337.5,1168.2,337.9,1166.3,338.5z M1170.4,392.3
			c0.1-1.7,0.2-3.3,0.3-5c0.7,1.7,1.4,3.3,2,5H1170.4z M1170.3,382.3c5.9-14.1,9.8-28.4,11.9-43.3c3.9,14.1,5.4,28.5,5.7,43.3
			H1170.3z M1182.4,334.9c5.8-1.5,11.1-3,16.7-4.5c4.2,15.5,6.3,31.1,6.5,47C1199.2,362.6,1192,348.3,1182.4,334.9z M1202.5,392.3
			h-14.2c0.2-2.9,0.4-5.8,0.6-8.7h17C1204.9,386.5,1203.7,389.4,1202.5,392.3z"/>
		<path id="XMLID_311_" d="M917.6,223.9c-5.1-2.3-7.4-6-5.5-11.9c-3.4,2.3-4.3,6.3-2.5,9.5C911.2,224.2,914.8,225.4,917.6,223.9z"/>
		<path id="XMLID_287_" d="M942.8,186.6c-27.2,8.4-51.6,21.7-73.2,40.2c-28.6,24.6-49.2,54.8-61.2,90.7c-8.3,24.8-11.7,50.1-10.3,76
			h2.9h7.7h2.3h13h13.1c0-0.5-0.1-1-0.1-1.5c-0.8-16.1,0.3-32.1,4.2-47.8c7-28.7,20.5-54,40.9-75.5c19.4-20.5,42.5-35.2,69.3-43.9
			c4.3-1.4,7.9-3.3,11-6.8c5.6-6.5,6.7-15.2,2.1-22.7C960.2,188.3,949.8,184.5,942.8,186.6z M964.1,201.2c0,0-20.9,5.6-26.3,7.3
			c-4.2,1.3-15.1,5.8-19.9,7.8l-2.3-4.7c4.5-2.3,13.8-6.9,17.8-8.8c5.5-2.6,21.8-8,26.1-7.8C959.5,194.8,963.5,197.5,964.1,201.2z
			 M959.1,193.7c0,0-16,3.2-23.7,6.9c-6.2,3-16.3,7.9-20.4,9.8l-2.3-4.7c2.2-1.1,4.9-2.5,5.7-2.9c1.4-0.7,7.4-5.9,9.7-7.1
			C930.6,194.5,949.5,184.4,959.1,193.7z M928.7,193l0.1,1c-1.3,1.9-12.5,8.9-16.1,11.2l-2-4.2C916,198.3,928.7,193,928.7,193z
			 M917.5,238.1l-8.7-15.2c-3.1-0.3-6.1-0.6-9.2-0.8c-4.9-0.4-9.8-0.1-14.2,2.2c-7.3,3.7-8.5,13.5-2.4,18.4c5.1,4,12.6,1.7,14.1-4.4
			c0.6-2.5,0-4.8-1.9-6.6c-1.7-1.6-3.7-2.1-6-1.4c-2.4,0.8-3.8,3.3-2.9,5.5c0.7,1.7,1.7,2.1,3.7,1.4c-0.8-0.5-1.7-0.8-2.3-1.4
			c-1.3-1.7-0.2-4.1,2.1-4.6c2-0.5,3.7,0.2,4.9,1.8c1.4,1.8,1.5,4.7,0.3,6.8c-2.7,4.6-9.8,4.6-13,0.1c-4.3-6.1-0.5-14.7,7-15.7
			c4.9-0.6,8.9,0.9,11.6,5.1c2.8,4.4,3,9,0.6,13.6c-3,5.8-8.6,7.3-14.3,8.1c-7.6,1.1-15.4,1.6-23,2.9c-4.1,0.7-8.3,2-12.1,3.8
			c-6.7,3-9.1,10-6.1,16c2.8,5.6,9.8,7.2,14.8,3.2c4.1-3.3,3.6-10.1-0.9-12.4c-2.4-1.2-5.3-0.7-7.1,1.1c-1.4,1.5-1.5,4-0.1,5.5
			c1.1,1.2,2.3,1.3,3.3,0.5c-1.1-1-2.4-1.7-2.9-2.8c-0.3-0.7,0.4-2.6,1.2-2.9c1.4-0.6,3.3-0.9,4.7-0.5c2.1,0.6,3.4,3.6,3.2,5.9
			c-0.3,2.8-2.5,5.3-5.4,6c-3.5,0.9-6.4-0.2-8.7-2.9c-2.5-3-2.9-7.5-1-10.9c2.3-4.2,6-6,10.6-5.7c5.1,0.3,9.1,3.6,10.7,8.5
			c2.1,6.6-0.2,13-6.7,16.5c-4.4,2.4-9.1,4.2-13.8,6c-7.6,2.9-15.1,5.8-21.7,10.8c-6,4.6-7.7,11.6-4,17.1c2.2,3.2,5.4,4.9,9.3,4.4
			c3.6-0.4,6.2-2.3,7.6-5.7c1.2-3,0.4-6.3-2-8.4c-2.2-2-4.9-2.2-7.3-0.8c-2.7,1.6-3.4,4.7-1.6,6.9c1.3,1.6,2.6,1.5,3.9,0.3
			c-1.1-0.5-2.6-0.9-3.4-1.8c-0.5-0.6-0.2-2.3,0.3-3.2c0.9-1.6,2.6-2.1,4.4-1.8c4.1,0.7,6.1,6.1,3.6,9.8c-1.9,2.8-5.5,4.2-8.8,3.3
			c-3.6-0.9-6.5-4.3-6.9-8.2c-0.5-4.5,1.5-7.8,5.1-10.2c3.7-2.5,7.8-2.6,11.6-0.4c8.3,4.7,9.6,14.8,2.6,22c-3.2,3.4-7.2,6-11.1,8.7
			c-6.8,4.8-13.3,9.8-18.7,16.2c-4,4.7-4.7,10.6-2,15.2c2.1,3.5,6.7,5.8,10.4,5.2c3.9-0.7,7-3.7,7.8-7.3c0.7-3.3-0.9-6.8-4-8.4
			c-2.7-1.4-5.4-1-7.4,1.2c-2.1,2.2-2,5.3,0.3,6.9c1.7,1.3,3.1,0.9,4-0.7c-1.2-0.2-2.7-0.2-3.9-0.8c-0.6-0.3-0.7-2-0.5-2.9
			c0.4-1.8,1.8-2.9,3.7-3.1c2.5-0.3,4.4,1,5.6,3c1.4,2.3,1.3,4.7-0.1,7c-2.7,4.4-8.4,5.3-12.5,2.1c-3.4-2.7-4.8-7.2-3.4-11.2
			c1.4-4.2,5.7-7.5,9.7-7.9c10.4-1,17.9,10.9,12.7,19.5c-3.5,5.8-7.9,11.2-12.1,16.6c-2.4,3.1-4.9,6.3-7,9.6h-2.1
			c4.4-6.3,9.2-12.3,13.8-18.5c2.2-3,4.5-6.1,6-9.6c3.3-7.9-2.9-16.3-11.2-15.4c-3.7,0.4-7.3,3.8-7.9,7.4c-0.6,3.8,1.1,7.1,4.4,8.5
			c3.5,1.5,7.4-0.1,8.4-3.7c0.6-2.1-0.5-4.5-2.4-5.2c-1.8-0.7-3,0.1-3.3,1.5c1.3,0.2,2.9,0,3.9,0.7c0.6,0.5,0.6,2.4,0.2,3.3
			c-0.8,1.9-2.5,2.7-4.5,2.4c-4.4-0.6-6.7-5.6-4.4-9.7c1.8-3.2,5.4-4.8,9.1-3.9c3.6,0.8,6.9,4.5,7.2,8.2c0.4,4.8-1.8,8.9-6,11.1
			c-4.2,2.2-9.6,1.5-13.2-1.6c-5.8-5-6.9-12.9-1.8-19.6c3.2-4.2,7.1-8,11.2-11.3c5.3-4.4,11.1-8.1,16.5-12.3c3.6-2.8,6.6-6.1,7-11
			c0.4-4.5-2.7-9.4-7-11c-4.1-1.5-8.6-0.2-11.1,3.3c-2.8,3.8-1.6,9.2,2.5,11.4c2.8,1.5,6.3,0.6,7.9-2.1c1.3-2.1,0.5-4.9-1.6-6
			c-1.5-0.7-2.5-0.3-3.2,1.6c2.6-0.7,3.8-0.1,4.1,1.8c0.3,1.9-1.4,3.8-3.6,4.1c-2.4,0.3-4.1-0.8-5.2-2.7c-1.3-2.2-1.3-4.6,0.1-6.8
			c2.9-4.6,9.5-4.9,13.2-0.7c2.6,3.1,3.4,6.7,1.8,10.4c-1.7,4.1-5,6.4-9.5,6.8c-5.4,0.4-9.7-2.3-12.1-7.2c-2.4-5-1.4-11.1,2.6-15.5
			c4.5-4.9,10.3-7.6,16.2-10.1c5.8-2.5,11.9-4.4,17.7-7c3-1.4,6-3.3,8.4-5.6c3.1-3,3.6-7.1,2-11.2c-1.5-3.8-4.3-6.1-8.5-6.6
			c-3.3-0.4-7.1,1.6-8.7,4.6c-1.6,3-1.2,5.8,0.8,8.5c2.2,2.9,6.4,3.2,9,0.7c1.5-1.5,1.7-3.8,0.5-5.5c-1.2-1.6-2.6-1.6-3.9-0.2
			c1,0.5,2.5,0.8,3.1,1.7c1,1.5-0.4,3.7-2.4,4.2c-2,0.5-3.7,0.1-5-1.6c-1.6-1.9-1.9-4.8-0.7-7c1.5-2.8,5-4.4,8.3-3.8
			c3.6,0.7,6.6,4,7,7.7c0.5,4.9-1.7,8.8-6.3,10.8c-4.5,2-10,0.8-13.2-2.7c-5.6-6.3-4.4-15.5,2.6-20.5c4.7-3.3,10.2-4.7,15.8-5.5
			c7.7-1.1,15.5-1.7,23.2-2.9c2.7-0.4,5.4-1.3,7.8-2.7c4-2.3,5.6-6,5.2-10.6c-0.4-4-2.4-7-6.2-8.5c-3.2-1.3-6.3-0.9-9,1.2
			c-2.5,1.9-3.3,4.6-2.9,7.6c0.5,3.7,4.1,6.1,7.7,5.1c2.9-0.8,4.3-3.8,3-6.2c-0.9-1.6-2.1-1.8-3.9-0.4c2.3,0.2,3.5,1.2,2.9,3.4
			c-0.5,1.8-3,2.6-5.1,1.8c-2-0.7-2.9-2.3-3.2-4.2c-0.3-2.4,0.5-4.4,2.4-5.9c3.8-2.9,9.6-1.6,11.9,2.8c1.9,3.6,1.4,7.9-1.3,11
			c-2.7,3.2-7.6,4.5-11.9,3c-4.7-1.6-7.3-5.1-8-9.9c-0.7-5,1-9.3,5-12.5c3.2-2.6,7-3.7,11-3.7c4.7,0,9.4,0.2,14.1,0.6
			c0.1,0,0.2,0,0.3,0.1l-7.8-13.5l8.7-5.1l16.6,32.4L917.5,238.1z M926.2,233.5L926.2,233.5L924,229c2.9-1.5,9.2-3.7,21.1-3.9
			C945.2,225.1,931.4,230.7,926.2,233.5z M947.3,222.9c0,0-16.2,0.4-24.1,4.5l-1.9-3.9c3.5-1.7,13-6.1,21.5-7.4
			c0,0,18.4-3.9,20.7-4.2l0.9,0C964.5,211.9,960.6,221.2,947.3,222.9z M965,210.2c0,0-29.5,5.4-44,12.4l-2.2-4.6
			c7.5-3.3,29.4-12.5,45.5-15.3C964.3,202.7,966.6,207.7,965,210.2z"/>
	</g>
	<g id="XMLID_220_">
		<g id="XMLID_253_">
			<path id="XMLID_274_" class="st0" d="M1198.2,395.4c0,0-4.7,26,0.8,32.1h-24.6c0,0,4.1-9.1,1-32.1H1198.2z"/>
			<path id="XMLID_273_" class="st0" d="M1166,430.1c0,0,40.2-0.2,39.7,0c-0.5,0.2,0,13.7,0,13.7H1166V430.1z"/>
			<path id="XMLID_270_" class="st0" d="M1170.4,395.4c0,0,5.3,13.4-1.5,32.1h-4.2c0,0,8-12.5,2.1-32.1H1170.4z"/>
			<path id="XMLID_269_" class="st0" d="M1202.9,427.5c0,0-5.3-13.4,1.5-32.1h4.2c0,0-8,12.5-2.1,32.1H1202.9z"/>
			<rect id="XMLID_256_" x="1164.7" y="427.5" class="st0" width="41.8" height="1.4"/>
			<polygon id="XMLID_255_" class="st0" points="1208.6,395.4 1208.6,393.2 1166.4,393.2 1166.8,395.4 			"/>
		</g>
		<g id="XMLID_231_">
			<path id="XMLID_252_" class="st0" d="M827.8,395.2c0,0-4.7,26,0.8,32.1H804c0,0,4.1-9.1,1-32.1H827.8z"/>
			<path id="XMLID_249_" class="st0" d="M795.6,429.9c0,0,40.2-0.2,39.7,0c-0.5,0.2,0,13.7,0,13.7h-39.7V429.9z"/>
			<path id="XMLID_236_" class="st0" d="M800,395.2c0,0,5.3,13.4-1.5,32.1h-4.2c0,0,8-12.5,2.1-32.1H800z"/>
			<path id="XMLID_234_" class="st0" d="M832.5,427.3c0,0-5.3-13.4,1.5-32.1h4.2c0,0-8,12.5-2.1,32.1H832.5z"/>
			<rect id="XMLID_233_" x="794.3" y="427.3" class="st0" width="41.8" height="1.4"/>
		</g>
	</g>
	<polygon id="XMLID_217_" class="st0" points="838.2,394.6 838.2,392.1 796,392.1 796.4,394.6 	"/>
</g>
</svg>
