<?xml version="1.0" encoding="utf-8"?>
<!-- Generator: Adobe Illustrator 19.0.0, SVG Export Plug-In . SVG Version: 6.00 Build 0)  -->
<svg version="1.1" id="Layer_1" xmlns="http://www.w3.org/2000/svg" xmlns:xlink="http://www.w3.org/1999/xlink" x="0px" y="0px"
	 viewBox="204 -128 792 612" style="enable-background:new 204 -128 792 612;" xml:space="preserve">
<style type="text/css">
	.st0{fill:#AAD4C8;}
	.st1{fill:#FFFFFF;}
	.st2{fill:#F7CA31;}
</style>
<g>
	<path class="st0" d="M651.9,167.6c0-39.2-31.9-71-71-71c-28.7,0-53.5,17.2-64.7,41.7c-11.2-24.6-35.9-41.7-64.7-41.7
		c-39.2,0-71,31.9-71,71c0,8.3,1.4,16.2,4,23.6c3,8.4,7.5,16.1,13.2,22.7c2.4,2.8,5.1,5.5,7.9,7.9l108.3,107.6c0.7,0.7,1.5,1,2.4,1
		c0.9,0,1.8-0.3,2.4-1l112.3-111.6l0,0c7.3-7.3,13-16.2,16.6-26C650.4,184.2,651.9,176.1,651.9,167.6z"/>
</g>
<rect id="XMLID_2427_" x="811.4" y="-486.5" transform="matrix(-0.7071 -0.7071 0.7071 -0.7071 1829.1534 -15.4015)" class="st1" width="199.9" height="199.9"/>
<path class="st2" d="M546.7,104.3c16.6-48.5,73.2-77.3,119.9-60.9c20.5,7.2,38.3,21.7,58.9,28.7C741,77.4,759,79,770.2,91.6
	c7.3,8.3,10.1,19.8,12.7,30.7c4.7,20.3,9.4,40.7,14.2,61c4.3,18.5,8.6,37.8,4.5,56.4c-5.7,26-27.4,45.8-51.4,54.9
	c-24,9.1-50.1,9.2-75.6,8.1c-24.7-1.1-49.8-3.3-73-12.3c-23.2-9-44.7-25.5-55.3-48.9c-8.4-18.4-9.5-39.4-9.8-59.7
	c-0.3-26.5,0.8-53.6,9.6-78.4c8.8-24.8,26.5-47.4,50.6-55.7"/>
</svg>
