<?xml version="1.0" encoding="utf-8"?>
<!-- Generator: Adobe Illustrator 19.0.0, SVG Export Plug-In . SVG Version: 6.00 Build 0)  -->
<svg version="1.1" id="Layer_1" xmlns="http://www.w3.org/2000/svg" xmlns:xlink="http://www.w3.org/1999/xlink" x="0px" y="0px"
	 viewBox="0 0 202.7 202.7" style="enable-background:new 0 0 202.7 202.7;" xml:space="preserve">
<style type="text/css">
	.st0{fill:#F7EE70;}
	.st1{fill:#211915;}
	.st2{fill:none;stroke:#000000;stroke-width:6;stroke-miterlimit:10;}
</style>
<path id="XMLID_18_" class="st0" d="M101.4,170.7c38.3,0,69.3-31,69.3-69.3S139.6,32,101.4,32C63.1,32,32,63.1,32,101.4
	S63.1,170.7,101.4,170.7z"/>
<path id="XMLID_17_" class="st1" d="M73.8,89.3c5.6,0,10.1-4.5,10.1-10.1C84,73.6,79.4,69,73.8,69c-5.6,0-10.1,4.5-10.1,10.1
	C63.7,84.8,68.2,89.3,73.8,89.3z"/>
<path id="XMLID_16_" class="st1" d="M128.7,89.3c5.6,0,10.1-4.5,10.1-10.1c0-5.6-4.5-10.1-10.1-10.1c-5.6,0-10.1,4.5-10.1,10.1
	C118.6,84.8,123.1,89.3,128.7,89.3z"/>
<path id="XMLID_15_" class="st2" d="M128.7,106.5c0,15.1-12.2,27.3-27.3,27.3c-15.1,0-27.3-12.2-27.3-27.3"/>
</svg>
