<?xml version="1.0" encoding="utf-8"?>
<!-- Generator: Adobe Illustrator 19.0.0, SVG Export Plug-In . SVG Version: 6.00 Build 0)  -->
<svg version="1.1" id="Layer_1" xmlns="http://www.w3.org/2000/svg" xmlns:xlink="http://www.w3.org/1999/xlink" x="0px" y="0px"
	 viewBox="320 203 1440 246" style="enable-background:new 320 203 1440 246;" xml:space="preserve">
<style type="text/css">
	.st0{fill:#FFFFFF;}
</style>
<path class="st0" d="M303.7,203l40.5,37.3C384.8,278,465.9,352,547,379s162.1,5,243.2-16s162.1-43,243.2-16s162.1,101,243.2,101.3
	c81.1-0.3,162.1-74.3,243.2-122.6c81.1-47.7,162.1-69.7,202.7-80L1763,235v-32h-40.5c-40.5,0-121.6,0-202.7,0s-162.1,0-243.2,0
	s-162.1,0-243.2,0s-162.1,0-243.2,0S628,203,547,203s-162.1,0-202.7,0H303.7z"/>
</svg>
